<?xml version="1.0" encoding="utf-8"?>
<!-- Generator: Adobe Illustrator 27.5.0, SVG Export Plug-In . SVG Version: 6.00 Build 0)  -->
<svg version="1.1" xmlns="http://www.w3.org/2000/svg" xmlns:xlink="http://www.w3.org/1999/xlink" x="0px" y="0px"
	 viewBox="0 0 500 500" style="enable-background:new 0 0 500 500;" xml:space="preserve">
<g id="BACKGROUND">
	<rect style="fill:#FFFFFF;" width="500" height="500"/>
</g>
<g id="OBJEKTS">
	<g id="XMLID_55_">
	</g>
	<g id="XMLID_122_">
	</g>
	<g>
		<path style="opacity:0.54;fill:#80B2BA;" d="M389.208,363.648c3.915-3.962,7.634-8.119,11.114-12.487
			c9.365-11.754,17.071-25.065,22.072-39.262c2.095-5.946,2.03-10.659,2.59-16.692c0.648-6.985,3.591-13.729,5.602-20.418
			c8.259-27.473,16.599-55.192,19.942-83.779c2.755-23.551,6.086-55.365-21.713-64.457c-12.901-4.219-27.026-2.134-40.08,1.587
			c-13.053,3.722-25.697,9.041-39.073,11.347c-19.173,3.305-39.011,0.22-57.472-5.921c-47.266-15.723-91.883-52.828-144.775-41.654
			c-24.409,5.157-45.662,21.22-60.335,41.397s-23.238,44.241-28.364,68.657c-10.767,51.293-12.471,118.637,21.027,161.683H389.208z"
			/>
		<path style="opacity:0.56;fill:#A1E3DD;" d="M424.346,105.999c-5.541-12.791-14.424-24.199-26.143-30.332
			c-21.69-11.351-46.679-10.447-69.658-3.631c-24.99,7.413-48.212,20.717-67.245,38.528c-10.233,9.575-19.306,20.455-30.506,28.878
			c-19.59,14.731-44.416,20.929-68.854,22.824c-18.182,1.41-36.926,0.712-54.048,6.988c-20.878,7.652-37.025,25.055-47.665,44.58
			c-7.857,14.419-13.051,30.068-17.524,45.813c-3.615,12.725-3.829,25.738-6.058,38.81c-3.269,19.167-4.148,39.805-0.884,59.505
			h396.144c1.859-2.838,3.672-5.706,5.426-8.605c12.952-21.409,21.467-45.2,26.512-69.652c4.785-23.192,10.813-51.358,5.872-74.78
			c-0.767-3.638-1.802-7.277-3.747-10.446c-6.425-10.47-20.864-13.276-28.419-22.962c-8.194-10.506-5.917-25.351-6.69-38.652
			C430.348,124.087,428.124,114.721,424.346,105.999z"/>
		<path style="opacity:0.54;fill:#80B2BA;" d="M398.492,362.089c7.926-6.236,13.961-14.258,16.428-25.675
			c3.96-18.321,4.006-37.232,4.035-55.976c0.028-18.221,0.053-36.488-1.654-54.647c-1.329-14.143-4.023-32.145-9.467-45.276
			c-3.21-7.742-8.919-14.718-16.613-18.042c-3.974-1.716-8.831-2.327-12.459,0.034c-1.85,1.204-3.18,3.047-4.849,4.491
			c-4.839,4.186-12.674,4.369-17.703,0.413c-3.299-2.595-5.234-6.501-7.197-10.211c-5.446-10.293-12.047-20.228-21.149-27.491
			c-26.195-20.903-55.821-2.118-77.52,16.314c-10.627,9.027-21.191,18.707-30.23,29.355c-7.88,9.281-13.988,20.082-21.806,29.542
			c-15.818,19.139-34.486,35.925-55.228,49.577c-12.391,8.155-25.652,15.318-36.127,25.822
			c-7.677,7.699-13.605,16.956-18.962,26.416c-14.644,25.858-23.619,65.314,8.037,83.139c9.847,5.545,21.177,7.831,32.383,9.289
			c22.738,2.958,45.773,2.789,68.583,0.774c11.696-1.033,23.312-2.628,34.917-4.382c7.912-1.196,15.731-0.419,23.543-1.694
			c21.299-3.474,41.803-5.899,63.425-6.98c18.107-0.905,33.515-2.061,50.625-9.318C379.955,373.131,390.247,368.577,398.492,362.089
			z"/>
		<path style="fill:#F0F0F0;" d="M457.517,411.608c-20.703,2.117-42.324,0.315-62.942,0.315c-35.265,0-70.53,0-105.795,0
			c-39.332,0-78.664,0-117.996,0c-21.825,0-43.65,0-65.476,0c-15.438,0-30.993-0.007-46.369,0.912
			c-5.828,0.349-11.869,0.33-17.246-1.946c-3.761-1.593-7.311-4.572-8.953-8.385c-2.112-4.905,1.667-8.88,0.338-13.732
			c-0.798-2.912-3.991-4.933-6.479-6.211c-7.266-3.73-11.65-12.994-7.118-20.496c2.073-3.431,5.625-5.766,9.396-7.128
			c7.871-2.842,16.837-2.81,25.09-2.79c7.805,0.019,15.585,1.015,23.379,1.016c32.617,0,65.233,0,97.85,0
			c39.603,0,79.205,0,118.808,0c34.976,0,69.953,0,104.929,0c12.125,0,24.249,0,36.373,0c4.086,0,8.173,0.027,12.259,0
			c4.458-0.03,11.327-0.413,12.797,5.289c1.376,5.338-5.526,9.45-5.988,14.589c-1.295,14.4,27.63,8.401,27.985,24.798
			c0.08,3.709-2.353,7.126-5.468,9.14c-3.115,2.014-6.834,2.85-10.494,3.454C463.46,410.917,460.498,411.303,457.517,411.608z"/>
		<g>
			<defs>
				<path id="SVGID_1_" d="M457.517,411.608c-20.703,2.117-42.324,0.315-62.942,0.315c-35.265,0-70.53,0-105.795,0
					c-39.332,0-78.664,0-117.996,0c-21.825,0-43.65,0-65.476,0c-15.438,0-30.993-0.007-46.369,0.912
					c-5.828,0.349-11.869,0.33-17.246-1.946c-3.761-1.593-7.311-4.572-8.953-8.385c-2.112-4.905,1.667-8.88,0.338-13.732
					c-0.798-2.912-3.991-4.933-6.479-6.211c-7.266-3.73-11.65-12.994-7.118-20.496c2.073-3.431,5.625-5.766,9.396-7.128
					c7.871-2.842,16.837-2.81,25.09-2.79c7.805,0.019,15.585,1.015,23.379,1.016c32.617,0,65.233,0,97.85,0
					c39.603,0,79.205,0,118.808,0c34.976,0,69.953,0,104.929,0c12.125,0,24.249,0,36.373,0c4.086,0,8.173,0.027,12.259,0
					c4.458-0.03,11.327-0.413,12.797,5.289c1.376,5.338-5.526,9.45-5.988,14.589c-1.295,14.4,27.63,8.401,27.985,24.798
					c0.08,3.709-2.353,7.126-5.468,9.14c-3.115,2.014-6.834,2.85-10.494,3.454C463.46,410.917,460.498,411.303,457.517,411.608z"/>
			</defs>
			<use xlink:href="#SVGID_1_"  style="overflow:visible;fill:#A1E3DD;"/>
			<clipPath id="SVGID_00000148619770435868789050000016019576874216563074_">
				<use xlink:href="#SVGID_1_"  style="overflow:visible;"/>
			</clipPath>
			<g style="clip-path:url(#SVGID_00000148619770435868789050000016019576874216563074_);">
				
					<line style="fill:none;stroke:#FFFFFF;stroke-width:0.75;stroke-miterlimit:10;" x1="8.818" y1="359.748" x2="480.921" y2="359.748"/>
				
					<line style="fill:none;stroke:#FFFFFF;stroke-width:0.75;stroke-miterlimit:10;" x1="8.818" y1="366.84" x2="480.921" y2="366.84"/>
				
					<line style="fill:none;stroke:#FFFFFF;stroke-width:0.75;stroke-miterlimit:10;" x1="8.818" y1="373.931" x2="480.921" y2="373.931"/>
				
					<line style="fill:none;stroke:#FFFFFF;stroke-width:0.75;stroke-miterlimit:10;" x1="8.818" y1="381.023" x2="480.921" y2="381.023"/>
				
					<line style="fill:none;stroke:#FFFFFF;stroke-width:0.75;stroke-miterlimit:10;" x1="8.818" y1="388.115" x2="480.921" y2="388.115"/>
			</g>
			<g style="clip-path:url(#SVGID_00000148619770435868789050000016019576874216563074_);">
				
					<line style="fill:none;stroke:#FFFFFF;stroke-width:0.75;stroke-miterlimit:10;" x1="8.818" y1="395.207" x2="480.921" y2="395.207"/>
				
					<line style="fill:none;stroke:#FFFFFF;stroke-width:0.75;stroke-miterlimit:10;" x1="8.818" y1="402.298" x2="480.921" y2="402.298"/>
				
					<line style="fill:none;stroke:#FFFFFF;stroke-width:0.75;stroke-miterlimit:10;" x1="8.818" y1="409.39" x2="480.921" y2="409.39"/>
				
					<line style="fill:none;stroke:#FFFFFF;stroke-width:0.75;stroke-miterlimit:10;" x1="8.818" y1="416.482" x2="480.921" y2="416.482"/>
				
					<line style="fill:none;stroke:#FFFFFF;stroke-width:0.75;stroke-miterlimit:10;" x1="8.818" y1="423.573" x2="480.921" y2="423.573"/>
			</g>
		</g>
		<g>
			
				<rect id="XMLID_109_" x="419.755" y="305.915" transform="matrix(-1 -1.224647e-16 1.224647e-16 -1 841.6159 658.2752)" style="fill:#110809;" width="2.106" height="46.444"/>
			<path id="XMLID_108_" style="fill:none;stroke:#110809;stroke-width:2;stroke-miterlimit:10;" d="M439.217,362.106
				c0-6.858-12.135-9.734-18.199-9.746c-7.218-0.014-18.199,2.647-18.199,9.746"/>
			
				<line id="XMLID_107_" style="fill:none;stroke:#110809;stroke-width:2;stroke-miterlimit:10;" x1="420.814" y1="363.939" x2="420.814" y2="352.548"/>
			<path id="XMLID_102_" style="fill:#110809;" d="M399.842,363.76c0,1.645,1.333,2.978,2.978,2.978
				c1.645,0,2.978-1.333,2.978-2.978c0-1.645-1.333-2.978-2.978-2.978C401.175,360.782,399.842,362.116,399.842,363.76z"/>
			<path id="XMLID_101_" style="fill:#110809;" d="M417.89,363.76c0,1.645,1.333,2.978,2.978,2.978c1.645,0,2.978-1.333,2.978-2.978
				c0-1.645-1.333-2.978-2.978-2.978C419.223,360.782,417.89,362.116,417.89,363.76z"/>
			<path id="XMLID_96_" style="fill:#110809;" d="M435.938,363.76c0,1.645,1.333,2.978,2.978,2.978c1.645,0,2.978-1.333,2.978-2.978
				c0-1.645-1.333-2.978-2.978-2.978C437.272,360.782,435.938,362.116,435.938,363.76z"/>
			<path id="XMLID_95_" style="fill:#F7FAE6;" d="M424.879,290.325v-34.171c0-5.914,4.794-10.709,10.709-10.709h11.792
				c5.914,0,10.709,4.794,10.709,10.709v38.202c0,8.438-6.903,15.341-15.341,15.341h-17.662h-20.781
				c-0.997,0-1.805-0.808-1.805-1.805l0,0c0-0.997,0.808-1.805,1.805-1.805h4.813C417.822,306.087,424.879,299.03,424.879,290.325z"
				/>
		</g>
		<g>
			<rect id="XMLID_94_" x="148.35" y="299.837" style="fill:#110809;" width="2.106" height="46.444"/>
			<path id="XMLID_93_" style="fill:none;stroke:#110809;stroke-width:2;stroke-miterlimit:10;" d="M130.993,356.027
				c0-6.858,12.135-9.735,18.199-9.746c7.218-0.014,18.199,2.647,18.199,9.746"/>
			
				<line id="XMLID_92_" style="fill:none;stroke:#110809;stroke-width:2;stroke-miterlimit:10;" x1="149.396" y1="357.861" x2="149.396" y2="346.469"/>
			<path id="XMLID_91_" style="fill:#110809;" d="M170.369,357.682c0,1.645-1.333,2.978-2.978,2.978s-2.978-1.333-2.978-2.978
				c0-1.645,1.333-2.978,2.978-2.978S170.369,356.037,170.369,357.682z"/>
			<path id="XMLID_90_" style="fill:#110809;" d="M152.32,357.682c0,1.645-1.333,2.978-2.978,2.978s-2.978-1.333-2.978-2.978
				c0-1.645,1.333-2.978,2.978-2.978S152.32,356.037,152.32,357.682z"/>
			<circle id="XMLID_89_" style="fill:#110809;" cx="131.294" cy="357.682" r="2.978"/>
			<path id="XMLID_88_" style="fill:#F7FAE6;" d="M149.384,284.246v-34.171c0-5.914-4.794-10.709-10.709-10.709h-11.792
				c-5.914,0-10.709,4.794-10.709,10.709v38.202c0,8.438,6.904,15.341,15.341,15.341h17.662h20.781c0.997,0,1.805-0.808,1.805-1.805
				l0,0c0-0.997-0.808-1.805-1.805-1.805h-4.813C156.441,300.008,149.384,292.952,149.384,284.246z"/>
		</g>
		<g>
			<path style="fill:#FF9575;" d="M239.026,211.171c0.473-0.947,0.849-1.936,1.128-2.889c0.942-3.224,0.904-6.831,2.777-9.619
				c1.001,0.106,1.368,1.36,1.451,2.364c0.308,3.732,0.013,7.484-0.282,11.217c-0.074,0.939-0.152,1.893-0.49,2.771
				c-0.382,0.99-1.072,1.826-1.75,2.642c-1.324,1.593-4.76,7.647-7.074,6.8c-1.649-0.603-2.288-4.252-1.81-5.686
				c0.71-2.133,2.204-2.821,3.667-4.233C237.602,213.611,238.399,212.428,239.026,211.171z"/>
			<path style="fill:#110809;" d="M202.49,365.603c0.089,0.147,0.197,0.286,0.327,0.414c1.738,1.722,5.308,1.356,7.692,1.366
				c3.369,0.014,6.758,0.027,10.124-0.528c1.059-0.175,2.205-0.458,2.921-1.29c1.62-1.883-0.966-3.458-2.427-3.832
				c-1.5-0.384-3.077-0.484-4.612-0.745c-1.535-0.261-3.073-0.707-4.241-1.676c-0.944-0.784-1.604-1.893-1.852-3.118
				c-0.262-1.293-0.137-2.825-1.08-3.713c-0.833-0.785-2.542-0.82-3.59-0.252c-1.3,0.704-2.197,2.021-2.691,3.362
				c-0.776,2.108-0.599,4.514-0.838,6.696C202.1,363.411,201.927,364.675,202.49,365.603z"/>
			<path style="fill:#0E398A;" d="M214.977,300.848c-0.078-0.555-0.162-1.11-0.253-1.663c-1.053-6.406-3.336-12.258-4.884-18.485
				c-2.136-8.588-4.281-17.109-7.1-25.508c-1.158-3.45-2.063-7.784-3.837-10.942c-1.631-2.904-3.841-2.668-7.21-2.037
				c-1.887,0.354-3.893,0.766-5.266,2.109c-0.897,0.878-1.42,2.06-1.895,3.222c-2.658,6.506-3.755,12.454-4.273,19.335
				c-0.351,4.671,0.639,8.169,1.755,12.532c1.261,4.931,1.24,9.414,4.075,13.912c1.909,3.029,4.52,5.692,5.647,9.091
				c1.122,3.383,0.959,7.021,2.084,10.426c0.99,2.996,2.431,5.819,3.672,8.718c1.403,3.278,1.561,6.933,1.7,10.495
				c0.347,8.913,0.693,17.826,1.04,26.739c4.129-0.87,8.258-1.74,12.387-2.61c0.556-0.117,1.158-0.261,1.514-0.704
				c0.388-0.483,0.363-1.167,0.324-1.786c-0.675-10.889,0.619-21.79,1.127-32.688C215.897,314.293,215.908,307.516,214.977,300.848z
				"/>
			<path style="fill:#110809;" d="M161.966,369.656c0.089,0.147,0.197,0.286,0.327,0.414c1.738,1.722,5.308,1.356,7.692,1.366
				c3.369,0.014,6.758,0.027,10.124-0.528c1.059-0.175,2.205-0.458,2.921-1.29c1.62-1.883-0.966-3.458-2.427-3.832
				c-1.5-0.384-3.077-0.484-4.612-0.745c-1.535-0.261-3.073-0.707-4.241-1.676c-0.944-0.784-1.604-1.893-1.852-3.118
				c-0.262-1.293-0.137-2.826-1.08-3.713c-0.833-0.785-2.541-0.82-3.59-0.252c-1.3,0.704-2.197,2.021-2.691,3.362
				c-0.777,2.108-0.599,4.514-0.838,6.696C161.576,367.463,161.403,368.728,161.966,369.656z"/>
			<path style="fill:#FF9575;" d="M207.622,189.402c0.189-0.05,0.376-0.105,0.559-0.171c1.659-0.598,2.894-2.08,3.525-3.727
				s0.723-3.452,0.644-5.214c-0.06-1.321-0.212-2.643-0.12-3.962c0.093-1.346,0.438-2.719,0.094-4.023
				c-0.874-3.318-4.934-3.73-7.775-3.639c-3.386,0.108-7.319,2.081-9.124,5.026c-0.95,1.551-1.254,3.569-0.475,5.213
				c0.641,1.354,1.922,2.307,3.278,2.945c-1.994,2.262-3.989,4.524-5.983,6.786c-1.788,2.028-4.014,3.866-4.687,6.604
				c-0.394,1.604,1.726,2.038,2.514,0.874c0.507-0.748,1.199-1.398,1.951-2.011c0.201,1.288,1.141,2.001,2.182,2.017
				c0.141,1.118,1.251,2.039,2.43,1.615c4.096-1.471,5.456-6.594,9.659-7.981C206.728,189.609,207.179,189.519,207.622,189.402z"/>
			<path style="fill:#F02B66;" d="M193.416,203.176c0.603-2.2,3.604-6.676,2.497-8.673c-0.917-1.654-3.058-2.32-4.926-2.023
				c-1.868,0.296-3.516,1.362-5.043,2.478c-8.739,6.389-15.545,15.267-19.99,25.138c-0.943,2.095-1.794,4.275-1.984,6.564
				c-0.202,2.428,0.348,4.848,0.895,7.222c2.354,10.229,4.709,20.458,7.063,30.687c2.535,1.071,5.509-0.97,6.48-3.545
				c0.971-2.575,0.516-5.438,0.091-8.157c-0.526-3.367-0.987-6.745-1.381-10.13c-0.431-3.704-0.736-7.672,1.032-10.956
				c0.777-1.444,1.938-2.711,2.355-4.297c0.266-1.01,0.21-2.092,0.553-3.078c0.813-2.341,3.415-3.697,4.867-5.611
				c1.793-2.363,3.572-5.372,4.799-8.086C191.824,208.275,192.711,205.75,193.416,203.176z"/>
			<path style="fill:#F02B66;" d="M207.58,220.988c0.031-3.779,1.03-7.496,2.264-11.042c1.217-3.498,3.214-6.824,4.064-10.408
				c0.124-0.522,0.225-1.067,0.117-1.593c-0.183-0.885-0.919-1.543-1.663-2.057c-4.797-3.32-11.913-4.82-17.666-4.563
				c-8.416,0.376-14.579,7.747-15.519,15.836c-0.503,4.325,0.226,8.695,1.141,12.952c0.915,4.257,2.023,8.499,2.291,12.845
				c0.183,2.964-0.034,5.927-0.135,8.889c-0.094,2.757-0.71,5.75,2.275,7.11c7.248,3.3,14.948,1.497,18.792-5.613
				c1.786-3.304,2.62-7.029,3.327-10.719C207.628,228.661,207.549,224.835,207.58,220.988z"/>
			<path style="fill:#F02B66;" d="M233.452,216.128c-3.091,2.968-6.181,5.937-9.272,8.905c-0.926,0.889-1.865,1.788-2.984,2.416
				c-0.979-4.11-1.699-8.33-2.785-12.405c-0.98-3.679-0.724-7.533-1.422-11.257c-0.338-1.804-0.859-3.179-1.893-4.512
				c-0.969-1.248-1.451-2.827-2.982-3.556c-0.385-0.184-0.804-0.291-1.185-0.484c-0.942-0.479-1.696-1.492-2.752-1.458
				c-0.196,0.006-0.4,0.056-0.544,0.189c-0.102,0.095-0.166,0.225-0.217,0.355c-0.27,0.689-0.247,1.451-0.268,2.19
				c-0.043,1.493-0.16,3.317-0.877,4.658c-0.689,1.287-1.314,2.352-1.775,3.79c-1.069,3.337-1.885,6.835-1.743,10.36
				c0.094,2.35,1.442,3.555,2.202,5.775c0.81,2.366,0.971,4.916,1.456,7.357c1.08,5.442,3.741,10.561,7.575,14.571
				c0.634,0.664,1.335,1.319,2.212,1.588c6.693,2.055,12.085-6.623,15.727-10.755c3.776-4.284,7.256-9.982,9.069-15.416
				c-1.551-1.704-3.252-3.272-5.076-4.68C235.097,214.548,234.275,215.338,233.452,216.128z"/>
			<path style="fill:#2155B5;" d="M189.712,236.191c-1.096-0.458-2.255-0.773-3.503-0.893c-0.746-0.072-2.419-0.608-3.076-0.15
				c-0.723,0.503-0.921,2.437-1.343,3.271c-1.254,2.477-3.29,4.477-5.146,6.501c-2.868,3.129-5.456,6.514-7.723,10.103
				c-1.275,2.019-2.467,4.151-2.912,6.497c-0.975,5.146,1.868,9.551,1.96,14.57c0.094,5.064-2.792,9.678-3.768,14.647
				c-1.438,7.316,1.334,14.799,1.17,22.253c-0.084,3.839-0.946,7.612-1.604,11.396c-2.163,12.452-2.122,25.168-2.075,37.806
				c2.829-0.281,5.658-0.563,8.487-0.845c1.004-0.1,2.054-0.216,2.892-0.778c0.624-0.419,1.072-1.049,1.484-1.678
				c5.494-8.404,3.726-18.663,5.822-28.203c1.662-7.568,3.315-15.136,4.939-22.706c0.609-2.84,1.63-5.601,2.287-8.47
				c1.271-5.549,1.99-10.919,3.562-16.378c1.754-6.088,3.988-12.601,4.85-18.836c0.211-1.528,4.874-19.64,6.738-18.488
				C198.153,242.97,194.538,238.206,189.712,236.191z"/>
			<path style="fill:#1C0029;" d="M215.642,173.65c1.44-1.28,2.44-2.984,1.74-4.988c-0.731-2.096-3.165-3.389-5.343-2.956
				c-1.575,0.313-2.914,1.371-4.475,1.746c-2.843,0.682-5.862-1.003-8.699-0.3c-1.229,0.304-2.339,1.063-3.069,2.097
				c-0.765,1.085-1.106,2.425-1.874,3.507c-1.237,1.743-3.305,2.485-5.219,3.221c-1.567,0.603-4.312,1.246-5.2,2.795
				c-0.624,1.089-0.872,2.388-0.691,3.63c0.072,0.493,0.208,0.983,0.175,1.48c-0.079,1.184-1.062,2.067-1.8,2.995
				c-1.528,1.923-2.13,4.718-0.991,6.894c0.765,1.462,2.185,2.467,3.645,3.236c1.035,0.546,2.137,1.008,3.301,1.131
				c3.897,0.411,7.806-0.723,10.593-3.58c2.254-2.311,3.536-5.541,3.479-8.769c-0.028-1.59-0.278-3.434,0.867-4.537
				c0.924-0.89,1.989-1.027,2.266-2.437c0.195-0.993-0.35-2.113,0.188-3.033c0.417-0.713,1.188-1.205,1.978-1.402
				c1.12-0.279,2.299-0.079,3.429,0.157c2.15,0.448,3.837,0.702,5.55-0.758C215.543,173.736,215.592,173.693,215.642,173.65z"/>
			<path style="fill:#FF9575;" d="M205.114,180.275c-0.017-0.346-0.064-0.692-0.061-1.039c0.003-0.339,0.054-0.686-0.039-1.013
				c-0.208-0.73-1.111-1.091-1.847-0.907c-0.736,0.184-1.306,0.773-1.714,1.412c-0.825,1.292-0.792,3.423,0.852,4.104
				c1.244,0.515,2.69-0.835,2.803-2.059C205.123,180.607,205.122,180.441,205.114,180.275z"/>
			<path style="opacity:0.6;fill:none;stroke:#051433;stroke-miterlimit:10;" d="M187.411,255.569
				c-1.948-1.081-7.637-4.731-7.64-4.732c-0.268-0.09-3.81,5.495-4.254,8.216c-0.184,1.129-0.05,2.378,0.7,3.242
				c0.438,0.504,1.048,0.843,1.692,1.018c1.417,0.385,2.965-0.011,4.203-0.801C183.88,261.383,186.47,257.411,187.411,255.569"/>
			<path style="fill:#FFFFFF;" d="M208.707,183.001c0.154,0.555,0.478,1.084,0.979,1.368c0.5,0.284,1.19,0.267,1.605-0.131
				c0.161-0.154,0.273-0.354,0.359-0.559c0.135-0.32,0.213-0.664,0.231-1.011c0.001-0.028-0.003-0.063-0.029-0.071
				c-0.027-0.008-0.034,0.051-0.009,0.039"/>
		</g>
		<g id="XMLID_97_">
			<path style="fill:#FF9575;" d="M161.022,124.751c0.057-1.759-0.239-3.646-0.322-5.341c-0.042-0.858-0.085-1.72-0.253-2.563
				c-0.044-0.219-0.098-0.442-0.223-0.628c-0.194-0.29-0.528-0.449-0.846-0.594c-0.679-0.31-1.509-0.611-2.129-0.195
				c-0.221,0.148-0.379,0.371-0.53,0.59c-0.879,1.277-1.314,2.774-1.623,4.276c-0.199,0.963-0.094,3.328-1.004,3.845
				c0.506-0.288-0.274-4.295-1.489-3.932c-0.289,0.086-0.462,0.394-0.498,0.694c-0.036,0.299,0.035,0.599,0.076,0.898
				c0.306,2.234-1.047,4.411-0.922,6.662c0.083,1.49,0.787,2.852,1.005,4.317c0.225,1.514,0.368,3.197,0.25,4.729
				c-0.086,1.129,0.015,4.683-1.231,5.33c1.596-0.829,3.499-1.05,5.244-0.61c0.332-2.136,0.664-4.271,0.996-6.407
				c0.218-1.406,0.44-2.824,0.961-4.148c0.726-1.846,2.024-3.472,2.389-5.455C160.96,125.746,161.005,125.254,161.022,124.751z"/>
			<g id="XMLID_86_">
				<path id="XMLID_87_" style="fill:#111314;" d="M130.935,361.908c0.206,0.18,0.422,0.349,0.642,0.507
					c2.384,1.715,5.295,2.363,8.033,3.283c1.444,0.485,5.451,1.637,3.64,3.77c-1.85,2.18-6.122,1.712-8.599,1.505
					c-2.701-0.226-5.391-0.779-8.097-0.623c-1.718,0.099-3.444,0.483-5.143,0.211c-5.937-0.948-2.865-9.103-2.851-13.082
					c0.013-3.886-0.121-7.839,0.893-11.628c0.447-1.67,1.282-3.456,2.906-4.048c1.04-0.38,2.691-0.117,3.715,0.294
					c1.231,0.494,1.459,1.471,1.811,2.732c1.083,3.884,1.39,8.137,1.267,12.144c-0.029,0.957-0.055,1.941,0.267,2.843
					C129.711,360.639,130.273,361.33,130.935,361.908z"/>
			</g>
			<g id="XMLID_606_">
				<path id="XMLID_622_" style="fill:#FF9575;" d="M112.066,176.137c0.066,0.241,0.135,0.482,0.206,0.721
					c0.266,0.9,0.239,1.945,0.325,2.879c0.154,1.672,0.233,3.388,0.54,5.041c0.396,2.133,5.878,11.686,7.936,11.645
					c2.257-0.046,4.041-9.293,3.657-11.494c-0.523-2.995-2.112-8.922-2.119-8.961c-0.667-1.82-1.819-3.59-3.602-4.474
					c-1.875-0.93-4.507-0.74-6.526-0.523c-0.325,0.035-0.669,0.086-0.919,0.296c-0.483,0.405-0.39,1.158-0.254,1.773
					C111.54,174.082,111.785,175.115,112.066,176.137z"/>
				
					<linearGradient id="XMLID_00000096738184916323097110000013461080618993042092_" gradientUnits="userSpaceOnUse" x1="113.7352" y1="167.9619" x2="120.656" y2="187.0765">
					<stop  offset="0.2654" style="stop-color:#371B85;stop-opacity:0.9148"/>
					<stop  offset="0.5554" style="stop-color:#F26D5A;stop-opacity:0"/>
				</linearGradient>
				<path id="XMLID_621_" style="fill:url(#XMLID_00000096738184916323097110000013461080618993042092_);" d="M123.155,179.333
					c0.031-0.039,0.041-0.095,0.029-0.143c-0.327-1.283-0.57-2.194-0.573-2.209c-2.859-7.799-10.932-5.503-10.35,0.115
					c0.054,0.519,0.16,1.716,0.284,3.069l0.934,0.663C116.642,183.198,120.784,182.376,123.155,179.333z"/>
				<g id="XMLID_607_">
					<path id="XMLID_620_" style="fill:#FF9575;" d="M121.274,159.908c-1.538-0.587-4.148,1.612-5.752,2.022
						c-1.558,0.559-4.007,1.28-4.987,2.604c-2.075,2.801-1.083,7.087,0.808,9.942c0.317,0.478,1.005,1.711,1.368,2.154
						c2.901,3.536,7.419,3.312,9.596,2.485c2.601-0.988,3.774-3.411,3.832-6.602c0.01-0.573-0.201-2.412-0.265-2.981
						C125.486,166.032,122.893,160.525,121.274,159.908z"/>
					<path id="XMLID_611_" style="fill:#151A36;" d="M123.223,153.562c-0.326,0.109-0.656,0.31-0.949,0.482
						c-1.717,1.007-3.824,0.974-5.77,1.388c-2.897,0.617-5.821,2.091-7.359,4.729c-1.888,3.239-0.668,7.33,0.31,10.693
						c0.067,0.229,0.136,0.459,0.249,0.669c1.193,2.216,2.8,0.346,3.028-1.344c0.142-1.055-0.001-2.137,0.179-3.187
						c0.409-2.383,2.681-4.404,5.104-4.23c2.261,0.162,4.977-0.482,6.126-2.655c0.928-1.756,1.09-3.9,0.436-5.775
						c-0.091-0.261-0.208-0.531-0.432-0.694C123.869,153.438,123.548,153.453,123.223,153.562z"/>
					<path id="XMLID_610_" style="fill:#151A36;" d="M125.841,167.827c-0.008,0.125-0.02,0.248-0.038,0.367
						c-0.078-0.015-0.238-0.052-0.287-0.12c-1.175-1.634-1.343-3.771-2.456-5.425c-0.468-0.696-1.249-0.71-1.659-1.264
						c-0.593-0.803-0.184-2.388,0.583-2.924c0.728-0.509,1.848-0.376,2.393,0.324c0.173,0.222,0.287,0.484,0.386,0.747
						c0.608,1.616,0.726,3.369,0.838,5.092C125.666,165.619,125.904,166.816,125.841,167.827z"/>
					<path id="XMLID_81_" style="fill:#FF9575;" d="M112.393,173.11c-0.227,0.435-0.587,0.809-1.038,1.001
						c-0.452,0.193-0.997,0.186-1.42-0.065c-0.652-0.388-1.231-1.757-1.321-2.482c-0.089-0.721,0.228-1.479,0.805-1.921
						C111.578,167.987,113.33,171.305,112.393,173.11z"/>
					<path id="XMLID_608_" style="fill:#FF9575;" d="M126.523,167.641c0.002,0.018,0.004,0.035,0.005,0.052
						c0.039,0.395,0.077,0.796,0,1.185c-0.077,0.389-0.289,0.77-0.639,0.957c-0.714,0.381-1.712-0.434-2.028-1.04
						c-0.395-0.758-0.381-1.847,0.028-2.596c0.293-0.538,0.885-0.991,1.483-0.856c0.401,0.09,0.711,0.428,0.875,0.805
						c0.164,0.377,0.207,0.794,0.247,1.204C126.504,167.448,126.514,167.545,126.523,167.641z"/>
				</g>
			</g>
			<path style="fill:#FAD100;" d="M136.105,187.806c-0.223-0.403-0.726-0.538-1.175-0.641c-1.327-0.305-2.642-0.662-3.941-1.068
				c-1.219-0.381-2.282-0.949-3.568-1.171c-0.321-0.056-0.646-0.099-0.958-0.195c-0.239-0.074-0.468-0.177-0.696-0.281
				c-0.426-0.194-0.852-0.387-1.277-0.58c0.192,1.395-0.04,2.955-0.935,4.083c-1.172,1.476-3.352,1.979-5.151,1.729
				c-1.743-0.242-3.378-1.158-4.162-2.767c-0.439-0.899-0.927-1.837-1.261-2.78c-0.655-0.14-2.163,0.321-2.642,0.424
				c-1.379,0.296-2.747,0.646-4.112,1.003c-2.08,0.543-4.162,1.097-6.222,1.712c-2.234,1.795,0.072,4.944-0.24,6.321
				c-0.93,4.111-0.399,53.843-0.399,53.843l33.482-0.541c0.2-3.015,0.39-6.03,0.576-9.046c0.404-6.526,0.789-13.054,1.134-19.584
				c0.331-6.264,0.656-12.533,0.798-18.805c0.027-1.195,0.03-2.389,0.042-3.585c0.009-0.951-0.119-1.891,0.008-2.84
				c0.009-0.065,0.018-0.13,0.028-0.194c0.227-1.448,0.784-2.839,0.801-4.319C136.239,188.277,136.224,188.021,136.105,187.806z"/>
			<g id="XMLID_562_">
				<g id="XMLID_572_">
					<path style="fill:#D4004A;" d="M138.001,257.541c-0.151-2.809-0.318-5.618-0.498-8.424c-0.138-2.154-0.331-4.396-1.445-6.244
						c-1.502-2.491-5.942-4.919-8.522-6.29c-3.668-1.951-8.302-0.93-11.538,1.487c-3.401,2.54-5.53,6.46-6.858,10.491
						c-2.18,6.621-2.435,13.864-0.727,20.622c0.914,3.614,2.985,7.614,3.087,11.353c0.124,4.545-1.684,8.406,0.206,12.947
						c0.955,2.295,2.612,4.24,3.615,6.514c1.551,3.517,1.424,7.513,1.268,11.353c-0.614,15.199-1.227,30.398-1.841,45.597h16.73
						c0.001-0.008,0.005-0.016,0.007-0.024c1.302-8.788,2.494-17.592,3.575-26.409c0.992-8.093,1.891-16.198,2.697-24.312
						C139.371,289.945,138.878,273.884,138.001,257.541z"/>
				</g>
			</g>
			<g id="XMLID_166_">
				<path id="XMLID_168_" style="fill:#111314;" d="M75.856,360.105c-0.079,0.327-0.1,0.642-0.019,0.925
					c0.244,0.852,1.547,1.53,2.123,2.257c1.071,1.351,2.896,1.834,4.609,2.03c1.55,0.178,4.831-0.029,5.72,1.659
					c0.163,0.309,0.195,0.672,0.165,1.02c-0.374,4.336-7.84,3.286-10.672,3.097c-2.67-0.178-5.339-0.356-8.008-0.534
					c-3.852-0.257-7.331-1.866-5.943-6.387c0.283-0.92,0.689-1.797,1.094-2.67c1.019-2.197,2.038-4.394,3.057-6.591
					c0.847-1.827,1.738-3.712,3.261-5.03c1.834-1.587,6.381-2.265,7.364,0.715c0.339,1.028-0.02,2.141-0.377,3.162
					c-0.468,1.338-0.935,2.675-1.403,4.013C76.605,358.405,76.052,359.291,75.856,360.105z"/>
			</g>
			<g id="XMLID_169_">
				<g id="XMLID_171_">
					<path style="fill:#F02B66;" d="M120.902,238.962c-0.078-0.796-0.19-1.65-0.731-2.239c-0.44-0.478-1.091-0.698-1.601-1.1
						c-1.538-1.212-0.846-1.877-3.357-2.249c-1.884-0.28-3.816-0.292-5.706-0.052c-3.311,0.42-6.811,1.613-9.132,4.12
						c-4.11,4.439-6.009,10.678-6.632,16.579c-0.837,7.922,0.209,15.962-0.752,23.87c-0.568,4.673-1.829,9.233-2.611,13.876
						c-0.44,2.613-0.746,5.308-1.939,7.674c-0.828,1.641-2.046,3.046-3.108,4.546c-4.743,6.694-4.747,14.815-7.405,22.325
						c-3.091,8.729-8.651,20.331-12.148,28.903c0.557,0.217,1.043,0.392,1.28,0.495c1.285,0.56,2.593,1.061,3.892,1.587
						c2.566,1.04,5.05,2.262,7.535,3.485c5.756-10.009,14.306-22.794,20.269-32.619c5.916-9.748,11.886-18.246,15.2-29.393
						C119.666,279.563,122.875,259,120.902,238.962z"/>
				</g>
			</g>
			<path style="fill:#2155B5;" d="M121.244,220.76c0.063-0.303,0.123-0.604,0.175-0.903c0.89-5.108,1.429-10.269,1.837-15.436
				c0.204-2.585,0.389-5.173,0.541-7.762c0.128-2.191,0.52-4.34,0.671-6.541c0.13-1.896,0.286-3.916,1.58-5.385
				c0.087,0.02,0.186,0.022,0.296-0.002c3.622-0.795,6.727-4.143,9.155-7.628c0.378-0.169,0.777-0.221,1.181-0.073
				c0.743,0.273,1.095,1.117,1.26,1.891c0.517,2.431,0.014,4.903,0.177,7.353c0.145,2.194,0.415,4.025,0.366,6.242
				c-0.055,2.434,0.328,4.711-0.684,7.016c-1.16,2.644-1.036,5.291-0.95,8.161c0.481,16.072,1.682,32.142,3.234,48.085
				c0.073,0.317-0.366,0.478-0.69,0.495c-3.964,0.208-7.934-0.125-11.889-0.458c-0.716-0.06-1.456-0.128-2.083-0.479
				c-0.567-0.318-0.991-0.841-1.343-1.387c-2.145-3.323-2.127-7.069-2.341-10.852c-0.252-4.461-0.504-8.921-0.755-13.382
				c-0.097-1.717-0.37-3.492-0.331-5.21C120.677,223.264,120.986,222.001,121.244,220.76z"/>
			<path style="fill:#2155B5;" d="M95.733,219.347c-1.352,10.838-3.354,21.585-4.683,32.429c-0.118,0.964-0.697,2.486,0.198,3.231
				c0.465,0.387,1.092,0.504,1.689,0.601c4.251,0.687,8.554,1.052,12.859,1.091c3.252,0.03,8.009,0.593,10.916-1.203
				c2.753-1.701,3.479-5.313,3.947-8.515c0.651-4.452,1.278-8.92,1.451-13.422c0.081-2.107,0.103-4.238-0.171-6.327
				c-0.278-2.117-0.072-4.272-0.419-6.38c-0.235-1.429-0.742-2.796-1.228-4.16c-1.888-5.303-3.488-10.709-4.791-16.186
				c-1.264-5.314-1.999-10.705-3.027-16.051c-0.008-0.044-0.019-0.091-0.052-0.122c-0.039-0.037-0.099-0.042-0.153-0.043
				c-1.747-0.05-3.364,0.427-5.083,0.545c-1.601,0.11-3.216-0.042-4.81,0.144c-1.594,0.186-3.236,0.775-4.217,2.046
				c-1.572,2.036-1.528,5.13-1.417,7.568c0.103,2.262,0.532,4.542,0.467,6.808C97.042,207.405,96.476,213.39,95.733,219.347z"/>
			<g id="XMLID_644_">
				<path id="XMLID_79_" style="fill:#FF9575;" d="M81.269,271.487c0.033-1.93-1.024-3.741-1.992-5.372
					c-0.123-0.207-0.253-0.417-0.445-0.562c-0.192-0.145-0.461-0.213-0.677-0.108c-0.144,0.07-0.245,0.204-0.331,0.34
					c-1.174,1.858-0.067,2.8,1.136,4.111c0.445,0.485,0.923,1.116,0.704,1.737c-0.121,0.344-0.43,0.578-0.683,0.84
					c-0.387,0.401-0.667,1.979,0.36,1.493C80.43,273.45,81.248,272.717,81.269,271.487z"/>
				<path id="XMLID_78_" style="fill:#111314;" d="M81.463,277.248c-0.016-1.458,0.175-3.416-0.877-4.59
					c-0.935-1.043-2.646-1.347-3.965-1.453c-3.651-0.294-5.083,1.936-5.61,5.246c-0.139,0.871,1.221,1.042,1.359,0.172
					c0.178-1.12,0.332-2.383,1.151-3.232c0.924-0.958,2.316-0.937,3.552-0.757c1.256,0.183,2.47,0.504,2.877,1.868
					c0.259,0.869,0.146,2.038,0.156,2.942C80.117,278.321,81.473,278.12,81.463,277.248z"/>
				<g id="XMLID_76_">
					<g>
						<path id="XMLID_9_" style="fill:#FF9575;" d="M79.939,264.335c-0.216,0.919-0.463,1.831-0.564,2.769
							c-0.152,1.406,0.214,2.651,0.367,4.022c0.114,1.027,0.309,2.39-0.571,3.157c-0.44,0.383-1.04,0.548-1.624,0.548
							c-1.651,0-3.259-0.995-3.972-2.481c-0.483-1.006-0.629-2.139-0.699-3.253c-0.193-3.09,1.551-5.74,2.812-8.466
							c0.342-0.74,0.814-1.857,1.594-2.246c1.073-0.536,2.14,0.208,2.598,1.171c0.516,1.086,0.509,2.353,0.319,3.516
							C80.13,263.496,80.038,263.916,79.939,264.335z"/>
					</g>
				</g>
			</g>
			<g id="XMLID_74_">
				<path id="XMLID_75_" style="fill:#0E398A;" d="M94.373,307.936l-42.886-5.418c-0.548-0.069-0.936-0.569-0.867-1.117
					l3.387-26.812c0.069-0.548,0.569-0.936,1.117-0.867l42.886,5.418c0.548,0.069,0.936,0.57,0.867,1.117l-3.387,26.812
					C95.421,307.617,94.921,308.005,94.373,307.936z"/>
				<path id="XMLID_642_" style="fill:#2155B5;" d="M98.505,280.228l-23.138,8.609c-0.239,0.089-0.514,0.054-0.724-0.091
					l-20.269-14.093c-0.608-0.423-0.229-1.301,0.52-1.207l43.407,5.484C99.051,279.025,99.199,279.97,98.505,280.228z"/>
				<path id="XMLID_641_" style="fill:#2155B5;" d="M75.783,288.386c0.051-0.826-1.231-0.993-1.281-0.162
					c-0.049,0.807-0.137,1.609-0.264,2.408c-0.13,0.821,1.151,0.982,1.281,0.162C75.646,289.995,75.734,289.193,75.783,288.386z"/>
			</g>
			<g id="XMLID_73_">
				<path id="XMLID_121_" style="fill:#2155B5;" d="M95.992,188.044c-4.722,3.594-7.846,9.285-8.787,15.204
					c-0.257,1.614-0.375,3.273-0.98,4.791c-0.563,1.411-1.517,2.623-2.368,3.882c-2.405,3.557-4.05,7.626-4.793,11.855
					c-0.847,4.824-0.53,9.805-1.495,14.607c-1.652,8.223-3.891,15.928-4.605,24.335c0.762,0.173,9.045,1.683,8.869,2.188
					c1.251-3.591,2.622-7.164,3.788-10.781c0.921-2.857,2.162-5.346,3.337-8.13c1.772-4.201,1.082-9.292,3.558-13.12
					c0.963-1.489,2.341-2.666,3.379-4.105c3.206-4.441,2.739-10.623,5.361-15.432c1.457-2.672,3.802-4.79,5.167-7.51
					c2.433-4.847,1.118-10.331,0.218-15.369c-0.707-3.953-2.767-6.527-6.973-4.616C98.354,186.437,97.127,187.18,95.992,188.044z"/>
			</g>
			<g id="XMLID_405_">
				<path id="XMLID_404_" style="fill:#111314;" d="M123.886,224.664c0,0.782-0.634,1.415-1.415,1.415
					c-0.782,0-1.415-0.633-1.415-1.415s0.634-1.415,1.415-1.415C123.252,223.249,123.886,223.883,123.886,224.664z"/>
				<path id="XMLID_403_" style="fill:#111314;" d="M123.886,233.457c0,0.782-0.634,1.415-1.415,1.415
					c-0.782,0-1.415-0.633-1.415-1.415s0.634-1.415,1.415-1.415C123.252,232.042,123.886,232.675,123.886,233.457z"/>
			</g>
			<path style="fill:#FFFFFF;" d="M117.637,173.228c0.315,1.49,1.676,2.503,3.127,2.277c1.451-0.226,2.439-1.605,2.286-3.121
				L117.637,173.228z"/>
			<path style="fill:#2155B5;" d="M150.234,134.755c-1.489,4.242-1.624,9.745-2.403,14.09c-0.252,1.407-0.509,2.83-1.088,4.137
				c-0.785,1.772-2.124,3.243-3.006,4.969c-1.696,3.318-1.576,7.276-2.875,10.769c-2.076,5.582-7.465,9.28-10.221,14.559
				c-2.823,5.407-2.942,12.282-2.231,18.665c0.257,2.302,0.621,4.54,1.006,6.622c0.993,5.373,10.522-4.957,12.047-6.578
				c4.974-5.286,9.541-11.321,11.203-18.524c0.465-2.015,0.691-4.078,1.099-6.105c0.435-2.165,1.075-4.282,1.636-6.418
				c2.338-8.896,4.536-18.656,4.342-27.881c-0.053-2.537-0.187-5.069-0.245-7.602C156.401,135.537,153.293,135.264,150.234,134.755z
				"/>
			<path id="XMLID_72_" style="fill:#0E398A;" d="M110.782,184.3c-0.078,0.558-0.188,2.318-0.206,2.497
				c-0.12,1.172-0.241,2.344-0.361,3.516c-0.233,2.267-0.466,4.533-0.699,6.8c-0.041,0.4-0.082,0.799-0.123,1.199l4.427,1.163
				l-3.42,4.064l11.047,16.842c-0.887-4.342-1.759-8.688-2.713-13.019c-0.886-4.023-1.996-7.957-3-11.944
				c-0.969-3.844-1.942-7.686-2.921-11.528c-0.672,0.016-1.34,0.097-1.991,0.242C110.81,184.134,110.797,184.196,110.782,184.3z"/>
			<path style="fill:#0E398A;" d="M127.661,190.025c-0.254-1.787-0.475-3.576-0.664-5.368c-0.888-0.017-1.7-0.349-2.518-0.727
				c0.039,0.64-0.147,2.439-0.164,2.673c-0.073,1.007-0.181,2.011-0.324,3.007c-0.272,1.894-0.731,3.745-1.074,5.614
				c-0.704,3.838-0.692,7.792-0.874,11.702c-0.105,2.247-0.189,4.496-0.279,6.744c-0.045,1.124-0.09,2.247-0.141,3.371
				c-0.026,0.584-0.053,1.167-0.082,1.751c-0.017,0.338,0.099,1.211-0.077,1.48l6.908-16.733c0,0-3.807-4.063-3.808-4.064
				c0.134,0.143,2.099-0.566,2.314-0.624c0.507-0.137,1.017-0.265,1.521-0.41c0.273-0.079,0.554-0.099,0.634-0.346
				c0.1-0.31-0.228-1.152-0.292-1.493C128.333,194.416,127.972,192.223,127.661,190.025z"/>
		</g>
		<g id="XMLID_54_">
			<path style="fill:#110809;" d="M370.461,365.949c-0.238,0.534-0.537,1.044-0.914,1.515c-2.4,3.007-6.776,3.303-10.267,4.921
				c-1.584,0.734-3.893,2.858-2.341,4.67c1.075,1.255,3.786,1.141,5.254,1.036c5.189-0.373,10.358-1.018,15.479-1.933
				c0.472-0.084,0.968-0.182,1.331-0.496c0.557-0.482,0.629-1.305,0.657-2.041c0.18-4.725,0.211-9.456,0.095-14.183
				c0-0.007-6.514-0.165-7.129,0.109c-1.362,0.607-1.164,1.733-1.323,3.05C371.165,363.751,370.93,364.899,370.461,365.949z"/>
			<path style="fill:#110809;" d="M410.168,371.961c-0.375,0.409-0.837,0.772-1.393,1.107c-2.276,1.373-4.682,2.531-7.176,3.452
				c-1.903,0.703-4.006,1.378-5.13,3.068c-2.547,3.831,2.698,4.764,5.235,4.581c5.189-0.373,10.358-1.018,15.479-1.933
				c0.472-0.084,0.968-0.182,1.331-0.496c0.557-0.482,0.629-1.305,0.657-2.041c0.18-4.725,0.211-9.456,0.095-14.183
				c0.002,0.055-6.648-0.264-7.21,0.108c-1.068,0.708-0.552,2.22-0.65,3.31C411.293,370.202,410.896,371.167,410.168,371.961z"/>
			<g id="XMLID_70_">
				<g id="XMLID_71_">
					<path style="fill:#D4004A;" d="M411.129,269.977c-0.579-5.383-2.28-11.354-4.358-16.332c-0.28-0.671-0.821-2.456-1.678-2.612
						c-0.487-0.089-2.126,1.204-2.648,1.439c-1.071,0.482-2.19,0.849-3.314,1.182c-2.492,0.74-5.064,1.219-7.505,2.126
						c-1.88,0.699-5.075,1.883-5.922,3.784c-1.18,2.647-2.278,5.33-3.292,8.045c-0.911,2.441-2.268,5.011-2.719,7.568
						c-0.393,2.226-0.39,4.298-1.149,6.547c-3.049,9.035-8.436,17.262-10.429,26.587c-0.846,3.957-1.057,8.02-1.187,12.065
						c-0.493,15.353,0.154,31.736,1.288,47.056h13.193c0.406-2.888,0.811-6.789,1.217-9.677c0.452-3.22,0.91-6.461,1.953-9.54
						c0.602-1.776,1.395-3.488,1.882-5.299c1.454-5.415,0.128-11.531,2.758-16.482c0.649-1.221,1.515-2.313,2.196-3.516
						c1.124-1.986,1.718-4.223,2.237-6.445c1.529-6.544,2.555-13.333,5.711-19.266c1.789-3.363,4.205-4.561,6.755-7.013
						c2.013-1.935,3.592-5.888,4.207-8.555C411.206,277.824,411.549,273.877,411.129,269.977z"/>
				</g>
			</g>
			<path style="fill:#FF9575;" d="M353.157,183.778c-0.661-1.764-0.5-3.698-0.32-5.539c0.254-2.598,0.197-5.225-0.168-7.81
				c-0.102-0.72-0.233-1.452-0.586-2.088c-0.525-0.942-2.105-1.882-3.123-1.123c-0.374,0.279-0.61,0.702-0.816,1.121
				c-0.482,0.981-1.053,2.125-1.001,3.232c0.052,1.104,0.396,2.304-0.007,3.389c-0.358,0.964-0.905-0.208-1.029-0.74
				c-0.111-0.477-0.708-1.735-1.374-1.437c-0.747,0.334-0.072,2.547,0.093,3.136c0.659,2.356,1.957,4.514,2.319,6.956
				c0.19,1.284,0.104,2.593,0.233,3.884c0.222,2.209,1.03,4.28,1.399,6.465c0.257,1.521,0.44,3.055,0.523,4.595
				c0.043,0.806,0.059,1.613,0.139,2.415c0.156,1.564,0.551,3.092,0.945,4.614c0.427,1.646,0.853,3.292,1.28,4.938
				c0.386,1.491,0.868,2.84,1.382,4.272c1.111,3.093,2.454,5.433,4.458,7.961c1.875,2.364,3.188,5.891,6.72,5.852
				c1.761-0.02,3.967-0.683,5.666-1.18c2.11-0.618,4.12-1.587,5.893-2.891c2.922-2.148,5.183-5.215,6.247-8.682
				c0.362-1.179,0.585-2.453,0.253-3.64c-0.895-3.197-4.591-3.584-7.343-3.161c-1.558,0.239-3.116,0.478-4.673,0.718
				c-1.496,0.23-3.535,1.705-4.428-0.208c-2.019-4.325-4.929-8.286-7.195-12.49c-1.789-3.317-2.966-6.94-4.548-10.356
				C353.775,185.287,353.439,184.532,353.157,183.778z"/>
			<g id="XMLID_66_">
				<g id="XMLID_68_">
					<path style="fill:#F02B66;" d="M427.295,276.085c0.815-7.23-1.28-14.747-5.717-20.513c-2.752-3.576-6.619-6.589-11.104-7.083
						c-16.324-1.8-14.614,27.919-13.74,37.644c0.698,7.762,1.959,15.465,2.54,23.239c0.403,5.388-0.051,10.78-0.011,16.148
						c0.041,5.458,2.219,11.039,3.31,16.389c0.456,2.235,3.276,21.532,4.259,31.101h13.892c2.241-17.13,3.819-34.347,4.722-51.599
						c0.309-5.912,0.561-11.899,0.685-17.788c0.129-6.108-1.345-12.083-0.485-18.267
						C426.077,282.246,426.943,279.205,427.295,276.085z"/>
				</g>
			</g>
			<path style="fill:#2155B5;" d="M389.22,204.246c-2.383-0.582-5.398,0.019-7.548,0.411c-3.426,0.626-6.662,1.911-9.995,2.864
				c-0.177,0.063-0.357,0.12-0.534,0.184c-0.214,0.077-0.431,0.157-0.645,0.245c-0.025,0.389-0.049,0.779-0.074,1.168
				c0.65,6.219,1.671,12.391,2.617,18.573c6.605-2.665,12.368-7.422,16.141-13.47c0.513-0.823,1.059-2.082,1.471-3.473
				c0.022-0.367,0.029-0.734,0.005-1.102C390.533,207.782,389.744,206.045,389.22,204.246z"/>
			<path style="fill:#2155B5;" d="M383.814,261.983c3.531-0.883-4.062-29.8-4.62-32.534c-0.767-3.754-1.536-7.525-1.742-11.351
				c-0.133-2.46,0.023-5.099,1.471-7.091c0.946-1.301,2.344-2.185,3.708-3.038c7.126-4.455,13.278-10.274,22.115-10.676
				c0.509-0.023,1.034-0.029,1.509,0.156c0.946,0.369,1.451,1.377,1.87,2.302c2.07,4.563,2.873,9.545,4.988,13.999
				c2.162,4.555,3.633,9.095,4.871,14.007c2.533,10.052,4.844,20.237,5.935,30.563c-1.31-2.722-15.602,0.42-18.722,0.786
				C398.053,259.945,390.924,260.904,383.814,261.983z"/>
			<path style="fill:#FF9575;" d="M409.076,200.851c1.611,1.815,2.434,4.632,2.953,7.125c1.385,6.657,2.777,13.382,2.65,20.18
				c-0.075,4.04-0.686,8.049-1.296,12.044c-1.099,7.197-2.197,14.394-3.296,21.59c-0.549,3.598-1.107,7.196-1.648,10.795
				c-0.271,1.801-0.184,4.984-1.474,6.47c-0.708,0.816-1.883,0.999-2.956,1.119c-5.198,0.581-10.425,0.908-15.656,0.977
				c-0.737-2.715,1.419-5.537,4.043-6.552c2.624-1.015,5.55-0.693,8.343-0.356c-0.753-8.956-1.507-17.912-2.261-26.868
				c-0.903-6.319,0.459-12.946-0.942-19.165c-1.402-6.227-1.781-12.59-2.337-19.001c-0.18-2.08-0.318-4.342,0.837-6.082
				c1.011-1.524,2.797-2.31,4.489-3.003c1.779-0.729,3.697-1.457,5.578-1.061C407.319,199.319,408.291,199.966,409.076,200.851z"/>
			<path style="fill:#2155B5;" d="M394.612,225.838c7.154-1.331,14.464-1.821,21.731-1.455c-0.368-5.477-1.128-10.926-2.274-16.295
				c-0.694-3.251-1.646-6.674-4.124-8.891c-4.287-3.836-13.469-2.827-15.546,2.973C391.98,208.929,393.324,219.025,394.612,225.838z
				"/>
			<g id="XMLID_56_">
				<path id="XMLID_69_" style="fill:#FF9575;" d="M393.537,195.641c0.23,1.309,1.37,7.109,1.481,8.298
					c0.196,2.083-2.368,12.392-4.287,12.896c-2.105,0.553-6.201-7.554-6.426-9.697c-0.306-2.916-0.396-8.834-0.4-8.872
					C384.498,190.277,392.593,190.276,393.537,195.641z"/>
				
					<linearGradient id="SVGID_00000176748002243011625930000017776667285611912069_" gradientUnits="userSpaceOnUse" x1="390.6075" y1="188.5899" x2="387.4584" y2="211.1466">
					<stop  offset="0.2654" style="stop-color:#371B85;stop-opacity:0.9148"/>
					<stop  offset="0.5554" style="stop-color:#F26D5A;stop-opacity:0"/>
				</linearGradient>
				<path style="fill:url(#SVGID_00000176748002243011625930000017776667285611912069_);" d="M392.238,192.54
					c-0.454-0.46-1.16-0.481-2.16-0.537c-1.242-0.069-2.528,0.094-3.564,0.838c-1.669,1.199-2.8,3.351-2.609,5.425
					c0.075,0.812,0.085,1.548,0.2,2.257c0.118,0.726,0.348,1.424,0.87,2.145c0.681,0.94,1.577,1.699,2.464,2.447
					c0.451,0.381,0.921,0.771,1.489,0.928c0.968,0.267,1.973-0.197,2.857-0.674c4.527-2.446,1.678-7.863,0.97-11.655
					C392.65,193.153,392.48,192.784,392.238,192.54z"/>
				<g id="XMLID_57_">
					<path id="XMLID_67_" style="fill:#FF9575;" d="M380.906,183.016c1.272-0.951,4.273,0.4,5.87,0.357
						c1.593,0.107,4.055,0.13,5.314,1.099c2.664,2.051,2.875,6.288,1.875,9.435c-0.167,0.527-0.48,1.852-0.701,2.359
						c-1.758,4.046-6.008,5.03-8.245,4.838c-2.674-0.23-4.401-2.167-5.298-5.113c-0.161-0.529-0.45-2.29-0.542-2.835
						C378.615,189.809,379.567,184.016,380.906,183.016z"/>
					<path id="XMLID_65_" style="fill:#110809;" d="M378.081,176.73c1.238-0.769,2.876-0.998,4.028-0.145
						c1.258,0.931,1.769,2.032,3.47,1.941c1.627-0.088,2.697-0.759,4.369-0.106c2.678,1.046,4.345,3.99,4.664,6.737
						c0.231,1.992,0.115,4.638-0.082,6.657c-0.056,0.116-0.384,0.265-0.476-0.194c-0.194-0.967-0.23-2.163-0.582-3.075
						c-0.192-0.496-0.629-0.935-1.16-0.964c-0.452-0.025-0.978,0.223-1.316-0.078c-0.169-0.15-0.219-0.388-0.286-0.604
						c-0.317-1.023-1.246-1.83-2.304-2.001c-2.471-0.398-4.701,0.504-7.143,0.484c-4.023-0.033-7.323-5.308-3.678-8.298
						C377.741,176.956,377.907,176.838,378.081,176.73z"/>
					<path id="XMLID_64_" style="fill:#110809;" d="M378.777,191.561c0.048,0.468,0.109,0.375,0.347,0.154
						c0.866-2.393,0.073-6.459,1.893-6.922c0.136-0.034,0.477-1.575,0.138-1.513c-0.572,0.104-1.731,0.455-1.995,0.891
						C378.294,185.601,378.582,189.653,378.777,191.561z"/>
					<path id="XMLID_60_" style="fill:#FF9575;" d="M392.479,191.627c-0.02,1.009,0.589,1.84,1.361,1.856
						c0.772,0.016,1.414-0.79,1.435-1.799c0.021-1.009-0.589-1.84-1.361-1.856C393.142,189.812,392.5,190.617,392.479,191.627z"/>
					<path id="XMLID_58_" style="fill:#FF9575;" d="M377.519,191.303c-0.02,1.009,0.589,1.84,1.361,1.856
						c0.772,0.016,1.414-0.79,1.435-1.799c0.021-1.009-0.589-1.84-1.361-1.856C378.181,189.488,377.539,190.294,377.519,191.303z"/>
				</g>
			</g>
			<path style="fill:#FFFFFF;" d="M387.795,194.412c0.101,1.466-0.894,2.764-2.299,2.938c-1.405,0.173-2.686-0.845-2.944-2.291
				L387.795,194.412z"/>
		</g>
		<g>
			<path id="XMLID_53_" style="fill:#110809;" d="M270.137,343.805c1.438,2.147,2.468,4.182,2.086,7.046
				c-0.562,4.209-3.997,6.999-4.903,11.085c-0.082,0.368-0.142,0.759-0.044,1.155c0.19,0.772,0.949,1.366,1.688,1.56
				c3.973,1.045,7.449-4.793,9.694-7.053c2.825-2.844,5.65-5.688,8.475-8.532c0.755-0.753,0.652-2.124-0.227-3.032l-9.46-9.774
				l-1.39-1.454c-2.304-2.41-5.758-2.676-7.653-0.59c-1.638,1.803-1.507,4.887,0.152,7.308
				C269.104,342.321,269.644,343.069,270.137,343.805z"/>
			<g>
				
					<rect id="XMLID_106_" x="301.729" y="304.396" transform="matrix(-1 -1.224647e-16 1.224647e-16 -1 605.5644 655.2359)" style="fill:#110809;" width="2.106" height="46.444"/>
				<path id="XMLID_105_" style="fill:none;stroke:#110809;stroke-width:2;stroke-miterlimit:10;" d="M321.191,360.586
					c0-6.858-12.135-9.734-18.199-9.746c-7.218-0.014-18.199,2.647-18.199,9.746"/>
				
					<line id="XMLID_104_" style="fill:none;stroke:#110809;stroke-width:2;stroke-miterlimit:10;" x1="302.789" y1="362.42" x2="302.789" y2="351.028"/>
				<path id="XMLID_103_" style="fill:#110809;" d="M281.816,362.241c0,1.645,1.333,2.978,2.978,2.978
					c1.645,0,2.978-1.333,2.978-2.978s-1.333-2.978-2.978-2.978C283.149,359.263,281.816,360.596,281.816,362.241z"/>
				<path id="XMLID_52_" style="fill:#110809;" d="M299.864,362.241c0,1.645,1.333,2.978,2.978,2.978
					c1.645,0,2.978-1.333,2.978-2.978s-1.333-2.978-2.978-2.978C301.198,359.263,299.864,360.596,299.864,362.241z"/>
				<path id="XMLID_100_" style="fill:#110809;" d="M317.913,362.241c0,1.645,1.333,2.978,2.978,2.978
					c1.645,0,2.978-1.333,2.978-2.978s-1.333-2.978-2.978-2.978C319.246,359.263,317.913,360.596,317.913,362.241z"/>
				<path id="XMLID_99_" style="fill:#FFFFFF;" d="M304.827,288.805v-34.172c0-5.914,4.794-10.709,10.709-10.709h11.791
					c5.914,0,10.709,4.794,10.709,10.709v38.202c0,8.438-6.904,15.341-15.341,15.341h-17.662h-20.781
					c-0.997,0-1.805-0.808-1.805-1.805l0,0c0-0.997,0.808-1.805,1.805-1.805h4.813C297.77,304.567,304.827,297.51,304.827,288.805z"
					/>
			</g>
			<path id="XMLID_98_" style="fill:#110809;" d="M264.095,360.45c-0.459,2.543-1.135,4.722-3.401,6.514
				c-3.331,2.634-7.739,2.25-11.232,4.556c-0.315,0.208-0.63,0.447-0.835,0.799c-0.4,0.687-0.267,1.642,0.128,2.295
				c2.129,3.514,8.686,1.735,11.871,1.672c4.008-0.079,8.016-0.158,12.024-0.237c1.066-0.016,1.946-1.073,1.946-2.337l-0.001-13.602
				l0.012-2.011c0.02-3.334-2.277-5.927-5.089-5.746c-2.431,0.156-4.481,2.464-4.972,5.357
				C264.384,358.666,264.252,359.579,264.095,360.45z"/>
			<g>
				<path style="fill:#FF9575;" d="M284.929,255.719c-2.302,2.244-5.006,3.836-8.408,3.573c-2.54-0.196-4.834-1.526-7.027-2.823
					c-4.611-2.727-7.548-7.425-10.414-11.773c-3.96-6.008-9.086-11.432-11.704-18.235c-1.292-3.356-2.199-6.212-1.928-9.876
					c0.264-3.565,1.164-7.168,0.366-10.73c-0.269-1.198-1.636-4.866,0.113-5.527c1.604-0.606,3.113,2.004,3.455,3.146
					c0.407,1.359,0.403,2.8,0.521,4.214c0.513,6.119,3.059,14.517,8.077,18.454c1.626,1.276,3.661,1.912,5.39,3.044
					c3.397,2.224,5.282,6.1,8.07,9.051c0.678,0.718,1.486,1.418,2.468,1.52c2.874,0.299,3.284-3.12,4.405-4.85
					c2.169-3.347,7.816-7.373,11.96-6.454c2.828,0.628,5.133,3.15,5.503,6.023c0.16,1.241-0.01,2.498-0.18,3.737
					c-0.167,1.217-0.335,2.442-0.715,3.61c-0.741,2.277-2.241,4.216-3.714,6.105C289.3,250.321,287.334,253.375,284.929,255.719z"/>
				<path style="fill:#7A483A;" d="M289.203,269.044l-0.003-0.001c0.013-0.047,0.021-0.096,0.033-0.143L289.203,269.044z"/>
				<polygon style="fill:#7A483A;" points="297.255,230.767 297.098,231.512 297.098,231.512 				"/>
				<path style="fill:#7A483A;" d="M289.332,268.478c-0.026,0.144-0.062,0.283-0.099,0.422l0.114-0.542
					C289.341,268.398,289.339,268.438,289.332,268.478z"/>
				<path style="fill:#FAD100;" d="M297.953,228.994c-0.034,2.425-0.265,4.779-0.268,6.097c-0.004,1.638-0.03,3.292-0.408,4.886
					c-0.333,1.4-0.93,2.723-1.562,4.016c-1.931,3.955-4.164,8.216-7.074,11.532c-1.254-1.658-2.787-3.447-3.904-5.293
					c-1.704-2.815-3.334-5.674-4.965-8.532c-0.901-1.578-3.691-4.5-3.182-6.257c0.367-1.267,4.728-4.415,5.794-5.749
					c2.465-3.084,7.61-8.624,11.892-8.952C297.493,220.495,298.012,224.85,297.953,228.994z"/>
			</g>
			<path style="fill:#0E398A;" d="M245.249,296.368c-0.013-2.178,0.83-4.392,2.305-6.018c3.066-3.38,8.01-4.126,12.541-4.668
				c6.148-0.735,12.297-1.47,18.445-2.204c10.516-1.257,21.791-2.383,31.149,2.576c6.42,3.402,8.631,11.287,2.462,16.289
				c-3.432,2.783-7.992,3.638-12.344,4.401c-6.213,1.09-12.426,2.18-18.64,3.27c-5.483,0.962-11.869,2.998-16.91-0.41
				c-1.336-0.903-2.487-2.117-3.983-2.718c-4.262-1.714-12.071-2.638-14.299-7.28C245.488,298.591,245.256,297.484,245.249,296.368z
				"/>
			<path style="fill:#0E398A;" d="M253.56,286.911c1.815-0.441,3.802-0.624,5.929-0.606c5.781,0.049,9.942,5.905,6.948,11.297
				c-0.649,1.168-1.615,2.216-1.831,3.535c-0.198,1.21,0.277,2.419,0.742,3.553c5.063,12.339,12.825,25.64,14.221,38.945
				c-3.665,1.837-14.499,2.953-16.625-0.765c-1.885-3.297-3.77-6.595-5.655-9.892c-1.192-2.085-2.389-4.178-3.863-6.074
				c-1.814-2.335-4.024-4.34-5.84-6.674c-5.101-6.555-6.709-15.678-4.155-23.582C245.268,290.966,248.832,288.061,253.56,286.911z"
				/>
			<path style="fill:#2155B5;" d="M268.659,300.562c7.048-9.789,21.985-8.402,27.707-19.844c0.184-0.369,0.361-0.748,0.629-1.061
				c0.879-1.029,2.425-1.07,3.778-1.065c7.67,0.028,15.277-1.12,22.816-2.424c4.483-0.776,4.417-0.082,6.03,4.085
				c1.204,3.109,2.26,6.298,2.557,9.639c0.406,4.574-0.804,9.53-4.227,12.591c-1.859,1.663-4.213,2.649-6.529,3.576
				c-11.199,4.482-22.667,8.292-34.322,11.404c-2.185,0.583-4.407,1.146-6.668,1.128c-4.333-0.034-8.583-2.363-10.942-5.998
				C266.16,307.467,266.451,303.629,268.659,300.562z"/>
			<path style="fill:#FAD100;" d="M289.572,224.442c0.657-1.012,1.533-1.958,2.682-2.828c3.774-2.855,9.186-2.59,13.658-2.735
				c4.683-0.152,9.754,0.202,14.136,1.982c4.489,1.824,5.424,3.732,5.557,8.174c0.177,5.913,1.948,11.869,2.61,17.772
				c0.702,6.256,1.03,12.554,0.982,18.85c-0.026,3.346-0.15,6.695-0.397,10.033c-0.277,3.743-0.607,3.768-4.279,4.279
				c-8.587,1.194-20.037,3.684-28.55,1.262c-0.451-15.228-5.586-29.905-7.722-44.989
				C287.621,231.809,287.416,227.766,289.572,224.442z"/>
			<path id="XMLID_50_" style="fill:#FF9575;" d="M306.397,228.919c1.284-0.515,2.44-1.372,3.283-2.469
				c3.496-4.553,0.159-7.655-0.041-12.267c-0.146-3.356,2.177-6.713,1.104-9.896c-0.211-0.626-0.825-1.307-1.416-1.012
				c-0.205,0.102-0.34,0.301-0.467,0.492c-2.936,4.426-6.835,4.064-11.885,4.975c0.653-0.118,0.807,10.933,0.657,11.684
				c-0.171,0.853-0.405,1.699-0.445,2.567c-0.133,2.866,2.082,5.591,4.867,6.281C303.494,229.632,305.019,229.472,306.397,228.919z"
				/>
			
				<linearGradient id="SVGID_00000083086087789064165480000004478191330023917725_" gradientUnits="userSpaceOnUse" x1="306.8972" y1="204.6856" x2="301.4899" y2="226.9058">
				<stop  offset="0.2654" style="stop-color:#371B85;stop-opacity:0.9148"/>
				<stop  offset="0.5554" style="stop-color:#F26D5A;stop-opacity:0"/>
			</linearGradient>
			<path style="fill:url(#SVGID_00000083086087789064165480000004478191330023917725_);" d="M309.708,211.329l-11.106,0.543
				l0.911,8.201h0c3.711,1.954,12.22,1.388,10.194-2.665V211.329z"/>
			<path id="XMLID_48_" style="fill:#FF9575;" d="M301.131,215.979c1.495,0.115,2.941-0.542,4.283-1.696
				c1.165-1.002,2.13-2.213,3.244-3.27c0.669-0.635,1.4-1.224,1.91-1.993c0.676-1.022,0.9-2.268,1.112-3.475
				c0.264-1.504,0.729-2.871,0.385-4.421c-0.193-0.87-0.623-1.668-1.073-2.437c-0.652-1.115-1.356-2.199-2.109-3.247
				c-1.519-2.114-4.031-3.922-6.77-2.899c-1.286,0.48-2.323,1.52-2.941,2.745c-0.822,1.629-0.939,3.531-1.66,5.208
				c-0.237,0.552-0.538,1.075-0.807,1.613c-1.117,2.238-2.029,5.075-1.451,7.577c0.496,2.149,1.608,4.21,3.491,5.439
				C299.549,215.647,300.347,215.919,301.131,215.979z"/>
			<path style="fill:#110809;" d="M314.259,199.13c-1.641-0.65-1.678-1.532-2.129-3.131c-0.464-1.642-1.669-3.025-3.151-3.87
				c-1.482-0.845-3.221-1.18-4.926-1.135c-1.36,0.036-2.734,0.315-3.924,0.976c-1.19,0.661-2.183,1.728-2.596,3.025
				c-0.171,0.536-0.239,1.124-0.064,1.658c0.433,1.32,2.364,1.855,3.515,2.309c1.318,0.519,2.666,0.991,3.92,1.656
				c2.449,1.299,3.643,3.295,2.414,5.987c-0.454,0.995-0.598,2.732-2.232,2.314c-0.484-0.124-0.817-0.55-1.142-0.929
				c-0.653-0.763-1.428-1.438-2.337-1.865c-0.991-0.466-1.899-0.424-2.959-0.404c-0.864,0.016-1.846,0.281-2.688,0.099
				c-0.353-0.076-0.225-0.637-0.681-0.628c-0.286,0.006-0.426,0.345-0.494,0.622c-0.255,1.038-0.51,2.076-0.765,3.113
				c-0.43,1.75-0.853,4.093-0.06,5.796c0.612,1.315,1.764,2.266,3.052,2.885c2.494,1.2,6.045,1.485,8.416-0.165
				c1.762-1.227,2.218-3.183,3.691-4.557c1.3-1.212,3.867-1.4,4.597-3.154c0.448-1.076-0.112-2.371,0.325-3.456
				C315.035,203.814,319.133,201.061,314.259,199.13z M296.152,211.258c-0.094-0.102-0.17-0.225-0.221-0.371
				c-0.303-0.855,0.188-1.821,0.898-2.385c1.247-0.99,3.182-0.985,4.424,0.012c0.779,0.626,1.718,1.483,1.808,2.535
				c0.041,0.471-0.109,0.975-0.467,1.285c-0.462,0.4-1.177,0.395-1.725,0.125c-0.878-0.432-1.104-1.436-2.225-1.039
				c-0.664,0.236-0.725,0.501-1.437,0.344C296.812,211.678,296.414,211.545,296.152,211.258z"/>
			<path style="fill:#FF9575;" d="M308.979,206.176c-0.131,0.132-0.251,0.277-0.358,0.428c-0.512,0.722-1.089,1.955-1.178,2.835
				c0.466,0.188,1.067,0.434,1.574,0.333c0.381-0.076,0.722-0.287,1.018-0.538c0.742-0.63,1.24-1.542,1.367-2.507
				c0.041-0.309,0.038-0.647-0.142-0.901c-0.252-0.356-0.768-0.42-1.19-0.31C309.654,205.625,309.285,205.868,308.979,206.176z"/>
			<path id="XMLID_47_" style="fill:#FFFFFF;" d="M302.154,210.953c0,0-1.521,0.956-3.246,0.254
				c-1.972-0.803-2.086-2.432-2.086-2.432"/>
			<g id="XMLID_28_">
				<path id="XMLID_45_" style="fill:#FF9575;" d="M330.304,271.498c0.679-0.075,1.368-0.122,2.068-0.135
					c-2.149-2.725-4.941-4.896-7.05-7.652c-2.369-3.097-2.121-6.183-3.239-9.654c-0.923-2.867-2.736-5.393-3.636-8.309
					c-2.188-7.091,0.472-19.824,10.737-16.712c2.916,0.884,5.214,3.221,6.706,5.878c1.491,2.657,2.279,5.64,3.053,8.587
					c1.646,6.273,3.292,12.546,4.938,18.819c0.737,2.81,1.288,5.695,1.972,8.485c0.961,3.915,3.344,8.304-2.206,9.873
					c-3.338,0.944-6.829,1.177-10.29,1.405c-6.484,0.428-13.008,1.112-19.504,1.286c-3.947,0.106-7.729-1.132-11.618-1.571
					c-3.384-0.382-6.638,0.81-9.951,0.248c-1.391-0.236-2.873-1.262-2.786-2.671c0.049-0.795,0.595-1.475,1.207-1.985
					c2.471-2.054,6.081-2.053,9.194-1.256c0.707,0.181,1.424,0.399,2.152,0.345c0.76-0.056,1.461-0.404,2.164-0.699
					c4.495-1.89,8.519-0.404,12.969-1.094C321.642,273.997,325.786,271.996,330.304,271.498z"/>
				<path id="XMLID_44_" style="fill:#FAD100;" d="M314.187,242.277c-0.072-0.235-0.142-0.47-0.212-0.705
					c-1.029-3.468-1.863-7.113-1.266-10.68c0.597-3.568,2.932-7.055,6.415-8.03c2.245-0.628,4.671-0.157,6.826,0.732
					c5.326,2.197,9.202,6.784,11.695,11.859c1.182,2.407,2.769,5.254,1.488,7.176c-1.578,2.367-20.514,11.369-19.74,12.979
					C317.323,251.305,315.581,246.844,314.187,242.277z"/>
			</g>
			<path style="fill:#2155B5;" d="M269.073,300.987c-4.407,8.267-2.361,18.418-3.217,27.335
				c-1.088,11.332-2.504,22.633-4.248,33.883c5.702-0.451,11.475,0.013,17.031,1.369c3.185-10.879,6.386-21.831,7.551-33.106
				c0.356-3.443,0.528-6.944,1.576-10.243c1.271-4.001,3.792-7.573,4.62-11.688c1.051-5.231-3.428-13.778-9.089-14.42
				C278.503,293.574,271.402,296.617,269.073,300.987z"/>
		</g>
		<g id="XMLID_581_">
			<path id="XMLID_587_" style="fill:#FFFFFF;" d="M215.115,280.01h53.565v-0.348c0-0.842-0.682-1.524-1.524-1.524h-52.041V280.01z"
				/>
			<path id="XMLID_586_" style="fill:#FFF5F5;" d="M205.913,278.138h53.525l-9.546-28.27c-0.328-0.971-1.302-1.633-2.405-1.633
				h-48.249c-1.699,0-2.91,1.52-2.405,3.016L205.913,278.138z"/>
			
				<rect id="XMLID_585_" x="205.913" y="278.138" transform="matrix(-1 -1.224647e-16 1.224647e-16 -1 465.6074 558.1485)" style="fill:#C9CDD1;" width="53.782" height="1.872"/>
			<path id="XMLID_582_" style="fill:#C9CDD1;" d="M225.071,262.838c0.172,1.141,1.298,1.818,2.502,1.717
				c1.208-0.101,2.253-0.97,2.178-2.14c-0.076-1.195-1.191-2.212-2.493-2.2c-0.081,0.001-0.148,0.022-0.203,0.054
				c-0.062-0.017-0.132-0.021-0.21-0.001C225.651,260.567,224.902,261.716,225.071,262.838z M227.051,260.953
				c0.039-0.01,0.071-0.024,0.101-0.04c0.026,0.006,0.054,0.011,0.084,0.012c0.626,0.031,1.218,0.301,1.511,0.812
				c0.705,1.229-0.285,2.073-1.33,2.118C225.466,263.938,225.316,261.388,227.051,260.953z"/>
		</g>
		<g>
			<path style="fill:#006149;" d="M352.873,232.824c-0.002-0.021-0.004-0.043-0.005-0.065c-0.133-1.886,1.181-3.71,0.814-5.565
				c-0.039-0.198-0.112-0.411-0.287-0.51c-0.296-0.167-0.651,0.093-0.863,0.359c-1.297,1.628-1.17,3.774-0.928,5.716
				c0.26,2.089-0.765,3.782-1.096,5.827c-0.231,1.426,0.034,2.714-0.262,4.099c-0.348,1.632-0.551,3.107-0.028,4.744
				c0.221,0.691,0.544,1.383,0.48,2.106c-0.078,0.88-0.711,1.599-1.048,2.416c-0.9,2.181,0.342,4.923-0.897,6.931
				c-0.129,0.208-0.322,0.422-0.566,0.409c-0.296-0.015-0.462-0.34-0.564-0.619c-1.399-3.821-2.798-8.132-2.234-12.249
				c0.124-0.901,0.354-1.788,0.415-2.695c0.056-0.834-0.031-1.67-0.118-2.501c-0.205-1.961-0.41-3.922-0.615-5.883
				c-0.038-0.359-0.082-0.736-0.292-1.03c-0.21-0.294-0.645-0.46-0.943-0.256c-0.211,0.144-0.287,0.416-0.33,0.668
				c-0.342,1.989,0.414,4.02,0.236,6.03c-0.1,1.127-0.491,2.206-0.707,3.317c-0.475,2.451,0.302,5.643,0.761,8.077
				c0.332,1.731,0.488,3.509,0.735,5.254c0.133,0.941,0.533,1.853,0.633,2.778c0.077,0.713-0.516,3.064-1.211,1.401
				c-0.284-0.68-0.407-1.428-0.357-2.163c0.027-0.389,0.101-0.779,0.055-1.166c-0.047-0.387-0.247-0.787-0.607-0.935
				c-0.369-0.152-0.817-0.012-1.173-0.193c-0.413-0.21-0.517-0.741-0.574-1.2c-0.172-1.384-0.337-2.831,0.146-4.139
				c0.153-0.415,0.37-0.81,0.448-1.245c0.191-1.056-0.658-1.521-0.851-2.425c-0.181-0.853,0.479-1.593,0.585-2.405
				c0.081-0.618-0.28-1.268-0.848-1.526c-0.169-0.077-0.364-0.129-0.479-0.275c-0.164-0.208-0.097-0.509-0.016-0.761
				c0.162-0.502,0.351-0.995,0.568-1.476c0.612-1.361-1.098-2.5-2.113-1.409c-0.448,0.482-0.447,1.216-0.419,1.874
				c0.169,4.004,0.34,8.028,1.142,11.955c0.55,2.694,1.405,5.347,2.714,7.772c0.61,1.13,1.497,2.146,2.035,3.283
				c0.777,1.639,1.293,3.941,3.688,3.453c1.344-0.274,2.371-1.339,3.232-2.406c1.284-1.592,2.45-3.745,1.564-5.588
				c-0.241-0.501-0.621-0.935-0.798-1.463c-0.146-0.437-0.142-0.908-0.125-1.368c0.06-1.616,0.26-3.227,0.597-4.809
				c0.388-1.818,1.163-3.973,0.617-5.836c-0.465-1.584-1.001-2.835-0.582-4.582c0.429-1.788,1.808-3.344,1.759-5.181
				C354.12,235.787,353.011,234.398,352.873,232.824z"/>
			<g>
				<path style="fill:#40A876;" d="M353.027,269.791c2.335-1.899,3.69-5.276,3.324-8.115c-0.187-1.448-0.672-3.135,0.317-4.21
					c0.332-0.361,0.792-0.589,1.099-0.971c0.747-0.929,0.306-2.302-0.225-3.368c-0.94-1.887-1.458-3.743-0.158-5.536
					c1.003-1.384,2.704-2.353,3.065-4.141c0.484-2.392-1.948-4.981-0.735-7.099c0.335-0.584,0.9-0.998,1.316-1.527
					c0.76-0.966,0.975-2.335,0.547-3.487c-0.271-0.731-0.969-1.723-1.762-1.962c-1.138-0.343-1.129,0.191-1.512,1.288
					c-0.698,2-1.002,4.135-0.876,6.251c0.19,3.192-1.071,6.729-1.582,9.885c-0.277,1.713-0.605,3.419-0.947,5.12
					c-0.211,1.048-0.365,2.147-0.68,3.168c-0.158,0.51-0.933,1.522-0.893,1.989c-0.351-4.116,1.734-8.031,2.264-12.129
					c0.047-0.362,0.077-0.752-0.097-1.073c-0.136-0.251-0.38-0.426-0.547-0.658c-0.833-1.157,0.267-3.852,0.44-5.208
					c0.298-2.342,0.4-4.722,0.574-7.076c0.21-2.85,0.614-5.593,0.274-8.478c-0.013-0.11-0.031-0.229-0.112-0.304
					c-0.122-0.113-0.332-0.063-0.442,0.06c-0.11,0.124-0.146,0.296-0.172,0.459c-0.667,4.167-0.848,8.425-1.503,12.624
					c-0.712,4.567-1.222,9.142-1.736,13.734c-0.495,4.43-1.58,8.827-2.104,13.278c-0.114,0.972-0.446,2.19-1.417,2.31
					c-0.862,0.107-1.52-0.823-1.628-1.685c-0.29-2.312,1.705-4.21,2.569-6.374c0.631-1.581,0.65-3.357,0.311-5.025
					c-0.346-1.704-1.005-3.642,0.02-5.046c0.413-0.565,1.056-0.951,1.382-1.569c0.243-0.461,0.282-0.999,0.303-1.52
					c0.068-1.635,0.018-3.276-0.15-4.904c-0.146-1.416-0.675-2.946-0.555-4.359c0.237-2.771,1.007-5.479,0.855-8.299
					c-0.131-2.436-2.064,1.346-2.12,2.329c-0.073,1.288,0.15,2.588-0.029,3.865c-0.203,1.443-0.915,2.849-0.686,4.288
					c0.03,0.188,0.075,0.384,0.016,0.564c-0.06,0.18-0.276,0.325-0.442,0.231c-0.084-0.048-0.13-0.141-0.165-0.23
					c-0.962-2.441,1.326-6.779-0.7-8.807c-1.602,1.986-1.216,6.528-1.107,8.954c0.278,6.203,1.332,12.497,0.147,18.67
					c-0.085,0.441-0.2,0.913-0.541,1.205c-0.567,0.487-1.5,0.212-1.982-0.359c-0.482-0.571-0.643-1.337-0.834-2.059
					c-0.191-0.722-0.464-1.482-1.074-1.914c-0.619,0.646-0.772,1.623-0.654,2.51c0.118,0.887,0.469,1.722,0.739,2.575
					c0.464,1.465,0.69,3.004,0.669,4.54c-0.023,1.61-0.306,3.287,0.281,4.786c0.984,2.515,5.332,4.892,7.879,3.87
					C351.889,270.594,352.484,270.232,353.027,269.791z"/>
			</g>
			<polygon style="fill:#0E398A;" points="338.169,262.117 359.176,262.473 353.646,280.395 341.645,280.561 			"/>
		</g>
		<g>
			<rect id="XMLID_599_" x="34.263" y="280.079" style="fill:#FFFFFF;" width="416.266" height="4.269"/>
			<rect x="407.978" y="282.246" style="fill:#FFFFFF;" width="4.052" height="111.441"/>
			<polygon style="fill:#FFFFFF;" points="370.672,392.791 366.619,392.791 392.782,282.246 396.834,282.246 			"/>
			<polygon style="fill:#FFFFFF;" points="110.128,392.791 114.18,392.791 88.018,282.246 83.965,282.246 			"/>
			<rect x="69.604" y="282.246" style="fill:#FFFFFF;" width="4.052" height="111.441"/>
		</g>
		<g>
			<path style="fill:#138F70;" d="M67.436,370.832c-0.082,0.649-0.153,1.301-0.212,1.957c-0.206,2.308-0.621,4.966-2.617,6.143
				c-1.789,1.055-4.216,0.361-5.669-1.123c-1.453-1.484-2.113-3.565-2.508-5.604c-1.017-5.25-0.573-10.775,1.271-15.795
				c1.145-3.117,4.405-7.854,4.033-11.218c-0.393-3.551-4.575-5.613-4.738-9.415c-0.18-4.227,3.627-7.799,5.813-11.038
				c0.79-1.17,1.473-2.48,1.524-3.891c0.177-4.967-7.012-7.484-7.495-12.431c-0.596-6.107,7.843-8.559,7.926-14.384
				c0.045-3.143-2.737-6.424-2.463-10.162c0.271-3.691,1.719-7.321,4.264-10.034c1.005-1.07,2.446-2.069,3.839-1.607
				c1.392,0.462,1.958,2.155,1.938,3.622c-0.02,1.466-0.422,2.947-0.124,4.383c0.893,4.309,3.858,5.859,3.483,10.762
				c-0.211,2.756-1.18,5.655-2.42,8.098c-4.434,8.734-3.106,7.714,2.191,15.264c2.791,3.978,2.792,9.708,0.002,13.687
				c-1.618,2.308-4.144,4.251-4.427,7.056c-0.132,1.307,0.256,2.542,0.762,3.767c0.588,1.424,1.336,2.837,1.611,4.34
				c0.391,2.134-0.193,4.312-0.772,6.403C70.674,356.755,68.354,363.576,67.436,370.832z"/>
			<path style="fill:#47BA9B;" d="M49.807,364.018c-0.396-2.723-0.791-5.446-1.187-8.169c-0.349-2.401-0.712-4.848-1.789-7.021
				c-0.959-1.936-2.45-3.58-3.328-5.554c-1.902-4.278-0.625-9.237,0.788-13.701c0.981-3.098,2.022-6.427,1.059-9.531
				c-0.504-1.626-1.52-3.035-2.373-4.508c-1.72-2.973-4.92-10.06-2.908-13.576c3.425-5.982,6.715-0.286,6.956,3.812
				c0.215,3.658,1.693,7.23,4.127,9.969c1.397,1.572,3.139,2.942,3.909,4.898c2.037,5.175-3.743,10.444-3.285,15.987
				c0.365,4.414,4.496,7.516,6.154,11.624c3.062,7.589,5.193,18.631,3.076,26.656c-0.367,1.391-0.932,2.843-2.128,3.643
				c-1.907,1.276-4.656,0.261-6.041-1.568c-1.385-1.829-1.759-4.206-2.089-6.477C50.436,368.341,50.122,366.179,49.807,364.018z"/>
			<path style="fill:#2155B5;" d="M62.196,400.576L62.196,400.576c-7.504,0-13.828-5.597-14.741-13.044l-2.287-18.66h33.728
				l-1.929,18.401C76.173,394.834,69.798,400.576,62.196,400.576z"/>
			<path style="fill:#47BA9B;" d="M67.931,361.418c0.292-2.822,0.027-5.865,1.501-8.288c1.952-3.209,6.565-4.609,7.377-8.276
				c0.795-3.589-2.643-7.441-1.044-10.751c1.341-2.773,5.473-3.299,6.743-6.106c1.12-2.476-0.567-5.237-1.01-7.918
				c-0.536-3.242,0.973-6.733,3.701-8.565c0.545-0.366,1.169-0.678,1.825-0.644c1.757,0.092,2.421,2.503,1.805,4.151
				c-0.616,1.648-1.961,2.957-2.504,4.63c-1.462,4.506,3.135,10.3-0.16,13.704c-0.979,1.011-2.431,1.437-3.458,2.399
				c-3.419,3.204-0.024,9.279-2.052,13.503c-1.358,2.828-4.834,4.118-6.314,6.884c-0.957,1.789-0.932,3.917-1.253,5.92
				c-0.347,2.168-1.184,4.348-2.826,5.805c-1.729,1.536-4.174,2.244-4.595-0.447C65.448,366.013,67.753,363.144,67.931,361.418z"/>
			
				<linearGradient id="SVGID_00000085954029234384925950000002137142635158793121_" gradientUnits="userSpaceOnUse" x1="61.5196" y1="364.6916" x2="65.0306" y2="393.3643">
				<stop  offset="0" style="stop-color:#201B59;stop-opacity:0.9148"/>
				<stop  offset="0.5554" style="stop-color:#2D3A8D;stop-opacity:0"/>
			</linearGradient>
			<path style="fill:url(#SVGID_00000085954029234384925950000002137142635158793121_);" d="M49.843,380.875
				c3.797-0.884,7.605-1.715,11.32-2.741c5.714-1.578,11.41-3.22,17.079-4.947c0.07-0.026,0.139-0.054,0.209-0.081l0.444-4.234
				H45.168l1.562,12.746C47.765,381.363,48.804,381.117,49.843,380.875"/>
			<polygon style="fill:#2155B5;" points="80.919,370.896 43.819,370.896 41.795,362.801 82.268,362.801 			"/>
		</g>
		<g>
			<path style="fill:#138F70;" d="M418.772,356.285c-1.122-4.351-2.628-8.907-1.404-13.231c0.815-2.882,2.779-5.337,3.579-8.224
				c1.302-4.697-0.654-9.752,0.202-14.55c0.814-4.563,4.039-8.291,5.776-12.588c2.286-5.658,1.909-12.071,3.846-17.857
				c0.622-1.859,1.562-3.734,3.218-4.784c1.656-1.05,4.17-0.931,5.268,0.693c0.627,0.927,0.684,2.119,0.638,3.238
				c-0.492,12.028-10.243,22.833-8.46,34.739c0.507,3.388,1.949,6.805,1.097,10.123c-0.844,3.288-3.747,5.636-5.146,8.729
				c-1.53,3.383-1.122,7.288-0.626,10.967c0.496,3.679,1.031,7.539-0.285,11.011c-0.683,1.803-6.317,8.018-8.291,4.788
				c-0.233-0.382,1.496-4.923,1.548-5.781C419.879,361.122,419.377,358.63,418.772,356.285z"/>
			<g>
				<path style="fill:#47BA9B;" d="M414.3,361.528c-0.001-0.093-0.004-0.187-0.008-0.28c-0.145-2.866-2.146-5.292-4.301-7.187
					c-3.572-3.142-6.964-11.315-7.59-16.069c-0.43-3.269,0.127-6.593-0.122-9.88c-0.384-5.081-2.655-9.794-4.172-14.658
					c-1.399-4.483-2.169-9.162-2.28-13.857c-0.044-1.856,0.194-4.042,1.791-4.99c1.311-0.778,3.084-0.322,4.208,0.708
					c1.124,1.03,1.721,2.507,2.16,3.966c2.189,7.263,1.363,15.325,4.503,22.23c1.433,3.151,3.67,6.002,4.313,9.403
					c0.699,3.699-0.59,7.597,0.332,11.247c1.543,6.115,7.522,9.581,8.012,16.197c0.055,0.744,0.054,1.501,0.264,2.216
					c0.323,1.102,1.11,1.995,1.742,2.954c1.641,2.491,4.256,7.966,1.591,10.147c-4.864,3.981-10.579-4.45-10.67-8.602
					C414.044,363.889,414.312,362.711,414.3,361.528z"/>
				<path style="fill:#47BA9B;" d="M429.533,353.198c0.484-1.644,0.984-3.322,1.974-4.721c1.833-2.59,5.23-4.074,6.193-7.097
					c0.398-1.251,0.309-2.598,0.47-3.901c0.286-2.322,1.455-4.586,3.381-5.913c1.926-1.328,4.628-1.579,6.629-0.367
					c2.591,1.57,3.381,4.906,3.871,7.895c1.525,9.292,2.301,19.362-2.22,27.622c-0.208,0.38-0.441,0.769-0.81,0.996
					c-1.053,0.646-2.357-0.407-2.936-1.498c-2.783-5.252,0.693-12.201-2.051-17.474c-0.217-0.417-0.544-0.861-1.014-0.882
					c-0.373-0.017-0.697,0.246-0.946,0.525c-1.394,1.564-1.564,3.937-2.944,5.513c-1.245,1.421-3.265,1.952-4.56,3.328
					c-1.081,1.149-1.525,2.74-1.931,4.265c-0.734,2.75-1.53,13.779-5.595,8.994C423.493,366.301,428.256,357.537,429.533,353.198z"
					/>
				<path style="fill:#2155B5;" d="M423.119,402.036h-0.567c-7.918,0-14.593-5.906-15.556-13.766l-2.497-20.37h36.315l-2.107,20.097
					C437.87,395.977,431.142,402.036,423.119,402.036z"/>
				
					<linearGradient id="SVGID_00000178883672502406989880000018091696114912631963_" gradientUnits="userSpaceOnUse" x1="422.1046" y1="363.3988" x2="425.8849" y2="394.271">
					<stop  offset="0" style="stop-color:#201B59;stop-opacity:0.9148"/>
					<stop  offset="0.5554" style="stop-color:#2D3A8D;stop-opacity:0"/>
				</linearGradient>
				<path style="fill:url(#SVGID_00000178883672502406989880000018091696114912631963_);" d="M421.721,377.872
					c6.152-1.699,12.285-3.467,18.39-5.327c0.075-0.028,0.15-0.058,0.225-0.087l0.478-4.559h-36.315l1.682,13.724
					C411.368,380.345,416.626,379.279,421.721,377.872z"/>
				<polygon style="fill:#2155B5;" points="442.992,370.079 403.046,370.079 400.867,361.363 444.445,361.363 				"/>
			</g>
		</g>
		<g>
			<g>
				<defs>
					<path id="SVGID_00000182498325972860047790000004925260676242601882_" d="M363.253,370.836c0.213-1.508,0.73-2.858,1.916-3.552
						c1.693-0.99,3.949-0.163,5.918-0.531c5.531-1.034,5.488-8.755,5.375-13.007c-0.072-2.705-0.193-5.409-0.363-8.11
						c-0.045-0.716-0.103-1.462-0.475-2.075c-0.67-1.105-2.201-1.428-3.444-1.073c-2.42,0.692-3.779,3.307-4.209,5.787
						c-0.429,2.48-0.219,5.06-0.87,7.491c-0.122,0.456-0.277,0.91-0.538,1.304c-0.297,0.448-0.725,0.803-1.21,1.034
						c-0.707,0.336-1.59,0.391-2.249-0.032c-0.764-0.49-0.636-1.107-0.632-1.852c0.005-0.888-0.123-1.804-0.228-2.711
						c-0.235-2.033-0.438-4.07-0.629-6.108c-0.376-4.005-0.702-8.016-1.12-12.017c-0.192-1.836-0.399-3.722-1.315-5.366
						c-3.962-7.112-9.998-0.864-10.553,4.322c-1.262,11.8,4.884,22.927,4.369,34.638c-0.022,0.493-0.047,1.001-0.272,1.45
						c-0.925,1.843-3.881,1.521-5.248,0.457c-2.142-1.667-1.375-5.278-1.378-7.451c-0.002-1.773-0.57-3.777-2.285-4.608
						c-1.945-0.942-4.483,0.188-5.592,1.926c-1.43,2.243-1.271,6.085-1.057,8.581c0.155,1.804,0.584,3.631,1.643,5.161
						c1.059,1.529,2.828,2.725,4.804,2.844c1.144,0.069,2.449-0.173,3.316,0.512c1.057,0.835,0.678,2.361,0.719,3.636
						c0.083,2.533,2.241,4.697,4.759,5.762c2.518,1.065,5.359,1.244,8.128,1.407c2.348-3.767,2.505-8.11,2.627-12.321
						C363.203,374.934,362.981,372.757,363.253,370.836z"/>
				</defs>
				<clipPath id="SVGID_00000062910429660704800920000007907910400334539956_">
					<use xlink:href="#SVGID_00000182498325972860047790000004925260676242601882_"  style="overflow:visible;"/>
				</clipPath>
				<g style="clip-path:url(#SVGID_00000062910429660704800920000007907910400334539956_);">
					<g>
						<path style="fill:#138F70;" d="M363.253,370.836c0.213-1.508,0.73-2.858,1.916-3.552c1.693-0.99,3.949-0.163,5.918-0.531
							c5.531-1.034,5.488-8.755,5.375-13.007c-0.072-2.705-0.193-5.409-0.363-8.11c-0.045-0.716-0.103-1.462-0.475-2.075
							c-0.67-1.105-2.201-1.428-3.444-1.073c-2.42,0.692-3.779,3.307-4.209,5.787c-0.429,2.48-0.219,5.06-0.87,7.491
							c-0.122,0.456-0.277,0.91-0.538,1.304c-0.297,0.448-0.725,0.803-1.21,1.034c-0.707,0.336-1.59,0.391-2.249-0.032
							c-0.764-0.49-0.636-1.107-0.632-1.852c0.005-0.888-0.123-1.804-0.228-2.711c-0.235-2.033-0.438-4.07-0.629-6.108
							c-0.376-4.005-0.702-8.016-1.12-12.017c-0.192-1.836-0.399-3.722-1.315-5.366c-3.962-7.112-9.998-0.864-10.553,4.322
							c-1.262,11.8,4.884,22.927,4.369,34.638c-0.022,0.493-0.047,1.001-0.272,1.45c-0.925,1.843-3.881,1.521-5.248,0.457
							c-2.142-1.667-1.375-5.278-1.378-7.451c-0.002-1.773-0.57-3.777-2.285-4.608c-1.945-0.942-4.483,0.188-5.592,1.926
							c-1.43,2.243-1.271,6.085-1.057,8.581c0.155,1.804,0.584,3.631,1.643,5.161c1.059,1.529,2.828,2.725,4.804,2.844
							c1.144,0.069,2.449-0.173,3.316,0.512c1.057,0.835,0.678,2.361,0.719,3.636c0.083,2.533,2.241,4.697,4.759,5.762
							c2.518,1.065,5.359,1.244,8.128,1.407c2.348-3.767,2.505-8.11,2.627-12.321C363.203,374.934,362.981,372.757,363.253,370.836z
							"/>
						<path style="fill:none;stroke:#47BA9B;stroke-width:0.5;stroke-miterlimit:10;" d="M355.8,327.25
							c2.819,19.569,5.25,39.488,1.779,58.97"/>
						<path style="fill:none;stroke:#47BA9B;stroke-width:0.5;stroke-miterlimit:10;" d="M353.092,327.117
							c-0.796,3.645-1.596,7.319-1.578,11.035c0.034,7.085,3.019,13.861,4.192,20.865c1.31,7.824,0.34,15.799-0.632,23.665"/>
						<path style="fill:none;stroke:#47BA9B;stroke-width:0.5;stroke-miterlimit:10;" d="M359.207,361.66
							c3.406-0.487,7.476-0.979,9.629-3.708c0.307-0.389,0.575-0.812,0.717-1.275c0.57-1.852,0.285-3.95,0.276-5.853
							c-0.008-1.824,0.034-5.024,0.034-7.391"/>
						<path style="fill:none;stroke:#47BA9B;stroke-width:0.5;stroke-miterlimit:10;" d="M356.131,374.657
							c-3.061,0.499-6.448,0.946-9.087-0.557c-1.615-0.919-2.71-2.475-3.289-4.131c-0.58-1.656-0.689-3.418-0.678-5.157
							c0.012-1.894,0.161-3.788,0.484-5.659"/>
						<path style="fill:none;stroke:#47BA9B;stroke-width:0.5;stroke-miterlimit:10;" d="M359.244,364.789
							c3.891-0.578,7.708-1.564,11.354-2.933c0.769-0.289,1.553-0.609,2.116-1.168c0.603-0.599,0.884-1.405,1.121-2.19
							c0.536-1.77,0.762-13.882,0.17-16.84"/>
					</g>
				</g>
			</g>
			<path style="fill:#FAD100;" d="M344.739,382.169l22.924-0.488l-1.25,10.222c-0.62,5.066-4.922,8.874-10.026,8.872l0,0
				c-4.937-0.001-9.149-3.572-9.958-8.442L344.739,382.169z"/>
		</g>
		<g>
			
				<ellipse transform="matrix(0.7071 -0.7071 0.7071 0.7071 -13.4672 260.47)" style="fill:#80B2BA;" cx="307.681" cy="146.491" rx="14.183" ry="14.183"/>
			<path style="fill:none;stroke:#FFFFFF;stroke-miterlimit:10;" d="M307.006,137.711c0,0.675,0.675,10.806,0.675,10.806
				l8.105-5.403"/>
		</g>
		<g>
			<path style="fill:none;stroke:#FFFFFF;stroke-miterlimit:10;" d="M262.472,268.063l7.574-4.631h36.839
				c3.767,0,6.821-3.071,6.821-6.86v-5.964c0-3.789-3.054-6.86-6.821-6.86h-37.591c-3.767,0-6.821,3.071-6.821,6.86V268.063z"/>
			<g>
				<path style="fill:#FFFFFF;" d="M282.332,253.59c0,0.799-0.644,1.447-1.439,1.447c-0.795,0-1.439-0.648-1.439-1.447
					s0.644-1.447,1.439-1.447C281.688,252.143,282.332,252.791,282.332,253.59z"/>
				<path style="fill:#FFFFFF;" d="M290.967,253.59c0,0.799-0.644,1.447-1.439,1.447c-0.795,0-1.439-0.648-1.439-1.447
					s0.644-1.447,1.439-1.447C290.323,252.143,290.967,252.791,290.967,253.59z"/>
				<path style="fill:#FFFFFF;" d="M299.602,253.59c0,0.799-0.644,1.447-1.439,1.447c-0.795,0-1.439-0.648-1.439-1.447
					s0.644-1.447,1.439-1.447C298.958,252.143,299.602,252.791,299.602,253.59z"/>
			</g>
		</g>
		<g>
			<path style="fill:none;stroke:#FFFFFF;stroke-miterlimit:10;" d="M356.69,171.819l7.574-4.631h36.839
				c3.767,0,6.821-3.071,6.821-6.86v-5.964c0-3.788-3.054-6.86-6.821-6.86h-37.591c-3.767,0-6.821,3.071-6.821,6.86V171.819z"/>
			<g>
				<path style="fill:#FFFFFF;" d="M376.55,157.346c0,0.799-0.644,1.447-1.439,1.447s-1.439-0.648-1.439-1.447
					c0-0.799,0.644-1.447,1.439-1.447S376.55,156.547,376.55,157.346z"/>
				<path style="fill:#FFFFFF;" d="M385.185,157.346c0,0.799-0.644,1.447-1.439,1.447s-1.439-0.648-1.439-1.447
					c0-0.799,0.644-1.447,1.439-1.447S385.185,156.547,385.185,157.346z"/>
				<path style="fill:#FFFFFF;" d="M393.82,157.346c0,0.799-0.644,1.447-1.439,1.447s-1.439-0.648-1.439-1.447
					c0-0.799,0.644-1.447,1.439-1.447S393.82,156.547,393.82,157.346z"/>
			</g>
		</g>
		<g>
			<path style="fill:none;stroke:#FFFFFF;stroke-miterlimit:10;" d="M272.169,200.186l-7.574-4.631h-36.839
				c-3.767,0-6.821-3.071-6.821-6.86v-5.964c0-3.788,3.054-6.86,6.821-6.86h37.591c3.767,0,6.821,3.071,6.821,6.86V200.186z"/>
			<g>
				<path style="fill:#FFFFFF;" d="M252.308,185.713c0,0.799,0.644,1.447,1.439,1.447s1.439-0.648,1.439-1.447
					c0-0.799-0.644-1.447-1.439-1.447S252.308,184.913,252.308,185.713z"/>
				<path style="fill:#FFFFFF;" d="M243.674,185.713c0,0.799,0.644,1.447,1.439,1.447s1.439-0.648,1.439-1.447
					c0-0.799-0.644-1.447-1.439-1.447S243.674,184.913,243.674,185.713z"/>
				<path style="fill:#FFFFFF;" d="M235.039,185.713c0,0.799,0.644,1.447,1.439,1.447s1.439-0.648,1.439-1.447
					c0-0.799-0.644-1.447-1.439-1.447S235.039,184.913,235.039,185.713z"/>
			</g>
		</g>
		<g>
			<path style="fill:none;stroke:#FFFFFF;stroke-miterlimit:10;" d="M112.007,132.857c1.259,3.707,2.143,7.541,2.637,11.425"/>
			<path style="fill:none;stroke:#FFFFFF;stroke-miterlimit:10;" d="M122.502,129.333c-0.731,4.248-1.462,8.496-2.194,12.744"/>
			<path style="fill:none;stroke:#FFFFFF;stroke-miterlimit:10;" d="M133.546,135.501c-1.671,1.625-3.028,3.57-3.975,5.699"/>
		</g>
	</g>
</g>
<g id="DESIGNED_BY_FREEPIK">
	<g id="XMLID_302_">
		<g id="XMLID_328_">
			<g id="XMLID_351_">
				<path id="XMLID_376_" style="fill:#112129;" d="M260.104,468.492c-0.432,0.443-0.803,0.931-1.108,1.453l-0.465-0.241
					c-0.067-0.298-0.349-0.503-0.659-0.466c-0.331,0.039-0.568,0.339-0.529,0.67c0.039,0.331,0.339,0.568,0.67,0.529
					c0.065-0.008,0.127-0.026,0.184-0.052l0.451,0.234c-0.251,0.554-0.433,1.139-0.539,1.744l0.746,0.132
					c0.23-1.306,0.85-2.507,1.792-3.473L260.104,468.492z"/>
				<path id="XMLID_375_" style="fill:#112129;" d="M265.592,466.19c-0.171,0-0.341,0.006-0.51,0.017l-0.074-0.626
					c0.188-0.149,0.296-0.389,0.266-0.645c-0.046-0.393-0.402-0.674-0.795-0.628c-0.393,0.046-0.674,0.402-0.628,0.795
					c0.03,0.254,0.189,0.461,0.405,0.564l0.073,0.624c-0.714,0.116-1.403,0.332-2.06,0.646l0.327,0.684
					c0.934-0.447,1.942-0.673,2.995-0.673c0.496,0,0.993,0.053,1.475,0.158l0.16-0.741
					C266.692,466.249,266.142,466.19,265.592,466.19z"/>
				<path id="XMLID_374_" style="fill:#112129;" d="M272.194,468.737c0.331-0.04,0.566-0.342,0.526-0.672
					c-0.04-0.331-0.341-0.566-0.672-0.526c-0.309,0.038-0.535,0.304-0.53,0.609l-0.416,0.363c-0.418-0.43-0.89-0.813-1.408-1.139
					l-0.404,0.641c1.134,0.715,2.021,1.726,2.563,2.925l0.69-0.313c-0.251-0.554-0.567-1.072-0.942-1.545l0.402-0.351
					C272.065,468.742,272.129,468.745,272.194,468.737z"/>
				<path id="XMLID_373_" style="fill:#112129;" d="M265.044,476.398c-0.386,0.023-0.775,0.035-1.157,0.035
					c-0.88,0-1.733-0.061-2.478-0.179c-0.39-0.062-0.846-0.155-1.27-0.292c1.047,1.861,3.07,3.125,5.388,3.125
					c2.855,0,5.262-1.916,5.949-4.504c-0.682,0.449-1.505,0.825-2.458,1.123C267.839,476.073,266.463,476.313,265.044,476.398z"/>
				<path id="XMLID_352_" style="fill:#112129;" d="M265.592,467.706c-3.352,0-6.08,2.666-6.08,5.943
					c0,0.426,0.046,0.849,0.137,1.261c0.674,0.483,2.706,0.89,5.348,0.731c2.879-0.173,5.297-0.957,6.672-2.159
					c-0.005-0.195-0.021-0.39-0.045-0.582C271.244,469.939,268.65,467.706,265.592,467.706z M263.432,474.221
					c-1.02,0-1.85-0.83-1.85-1.85c0-1.02,0.83-1.85,1.85-1.85c1.02,0,1.85,0.83,1.85,1.85
					C265.282,473.391,264.452,474.221,263.432,474.221z M268.17,473.312c-0.75,0-1.36-0.61-1.36-1.36c0-0.75,0.61-1.361,1.36-1.361
					s1.36,0.61,1.36,1.361C269.53,472.702,268.92,473.312,268.17,473.312z"/>
			</g>
			<path id="XMLID_349_" style="fill:#112129;" d="M281.595,469.573c-0.295-0.116-0.805-0.309-1.382-0.237
				c-0.551,0.069-0.844,0.341-0.844,1.007v0.866h2.228v1.717h-2.228v5.455h-1.932v-5.455h-1.34v-1.717h1.34v-0.888
				c0-1.68,0.896-2.783,2.568-2.783c0.643,0,1.157,0.122,1.59,0.308L281.595,469.573z"/>
			<path id="XMLID_347_" style="fill:#112129;" d="M286.298,472.905c-0.177-0.03-0.358-0.046-0.526-0.046
				c-0.896,0-1.51,0.548-1.51,1.613v3.908h-1.932v-7.172h1.873v0.785c0.451-0.673,1.14-0.977,2.021-0.977
				c0.414,0,0.848,0.128,1.094,0.337L286.298,472.905z"/>
			<path id="XMLID_344_" style="fill:#112129;" d="M293.965,474.783c0,0.222-0.015,0.489-0.037,0.651h-5.085
				c0.207,1.036,0.933,1.488,1.843,1.488c0.622,0,1.295-0.252,1.813-0.688l1.133,1.243c-0.814,0.748-1.85,1.088-3.057,1.088
				c-2.198,0-3.723-1.495-3.723-3.753c0-2.258,1.48-3.797,3.626-3.797C292.544,471.016,293.958,472.548,293.965,474.783z
				 M288.851,474.117h3.175c-0.178-0.918-0.733-1.436-1.562-1.436C289.554,472.681,289.021,473.229,288.851,474.117z"/>
			<path id="XMLID_341_" style="fill:#112129;" d="M301.618,474.783c0,0.222-0.015,0.489-0.037,0.651h-5.085
				c0.207,1.036,0.933,1.488,1.843,1.488c0.622,0,1.295-0.252,1.813-0.688l1.132,1.243c-0.814,0.748-1.85,1.088-3.057,1.088
				c-2.198,0-3.723-1.495-3.723-3.753c0-2.258,1.48-3.797,3.627-3.797C300.197,471.016,301.611,472.548,301.618,474.783z
				 M296.504,474.117h3.175c-0.178-0.918-0.733-1.436-1.562-1.436C297.207,472.681,296.674,473.229,296.504,474.117z"/>
			<path id="XMLID_335_" style="fill:#112129;" d="M309.964,474.791c0,2.154-1.495,3.775-3.471,3.775
				c-0.962,0-1.643-0.378-2.109-0.933v3.708h-1.924v-10.133h1.887V472c0.466-0.585,1.155-0.984,2.139-0.984
				C308.469,471.016,309.964,472.637,309.964,474.791z M304.287,474.791c0,1.132,0.748,1.976,1.843,1.976
				c1.14,0,1.85-0.881,1.85-1.976c0-1.095-0.71-1.976-1.85-1.976C305.035,472.814,304.287,473.658,304.287,474.791z"/>
			<path id="XMLID_331_" style="fill:#112129;" d="M313.068,468.862c0,0.696-0.54,1.229-1.236,1.229
				c-0.696,0-1.229-0.533-1.229-1.229c0-0.696,0.533-1.243,1.229-1.243C312.527,467.619,313.068,468.166,313.068,468.862z
				 M312.809,478.38h-1.932v-7.172h1.932V478.38z"/>
			<path id="XMLID_329_" style="fill:#112129;" d="M316.032,473.762l2.701-2.554h2.368l-3.479,3.375l3.501,3.797h-2.376
				l-2.716-2.901v2.901H314.1v-10.658h1.932V473.762z"/>
		</g>
		<g id="XMLID_410_">
			<path id="XMLID_435_" style="fill:#112129;" d="M184.412,478.315v-1.055c-0.527,0.718-1.391,1.23-2.387,1.23
				c-1.846,0-3.149-1.406-3.149-3.706c0-2.256,1.289-3.721,3.149-3.721c0.952,0,1.816,0.469,2.387,1.245v-3.765h1.099v9.77H184.412z
				 M184.412,476.396v-3.208c-0.395-0.615-1.245-1.143-2.124-1.143c-1.421,0-2.27,1.172-2.27,2.739c0,1.567,0.85,2.724,2.27,2.724
				C183.168,477.51,184.017,477.012,184.412,476.396z"/>
			<path id="XMLID_432_" style="fill:#112129;" d="M186.932,474.771c0-2.051,1.465-3.706,3.486-3.706
				c2.139,0,3.398,1.67,3.398,3.794v0.279h-5.727c0.088,1.333,1.025,2.446,2.549,2.446c0.805,0,1.626-0.322,2.182-0.893l0.527,0.718
				c-0.703,0.703-1.655,1.084-2.812,1.084C188.44,478.491,186.932,476.982,186.932,474.771z M190.403,471.973
				c-1.509,0-2.256,1.274-2.314,2.358h4.643C192.718,473.276,192.015,471.973,190.403,471.973z"/>
			<path id="XMLID_430_" style="fill:#112129;" d="M194.607,477.378l0.571-0.791c0.469,0.542,1.362,1.011,2.329,1.011
				c1.084,0,1.67-0.513,1.67-1.216c0-1.714-4.38-0.659-4.38-3.281c0-1.098,0.952-2.036,2.636-2.036c1.201,0,2.051,0.454,2.622,1.025
				l-0.513,0.762c-0.424-0.513-1.201-0.894-2.109-0.894c-0.967,0-1.567,0.483-1.567,1.113c0,1.552,4.38,0.527,4.38,3.281
				c0,1.187-0.952,2.138-2.783,2.138C196.306,478.491,195.325,478.139,194.607,477.378z"/>
			<path id="XMLID_427_" style="fill:#112129;" d="M201.477,469.497c0-0.41,0.337-0.747,0.732-0.747c0.41,0,0.747,0.337,0.747,0.747
				c0,0.41-0.337,0.732-0.747,0.732C201.814,470.229,201.477,469.908,201.477,469.497z M201.667,478.315v-7.075h1.099v7.075H201.667
				z"/>
			<path id="XMLID_424_" style="fill:#112129;" d="M204.582,480.132l0.556-0.82c0.586,0.703,1.289,0.967,2.3,0.967
				c1.172,0,2.27-0.571,2.27-2.124v-1.011c-0.513,0.718-1.377,1.26-2.373,1.26c-1.845,0-3.149-1.377-3.149-3.662
				c0-2.27,1.289-3.676,3.149-3.676c0.952,0,1.802,0.469,2.373,1.245v-1.069h1.098v6.87c0,2.344-1.641,3.076-3.369,3.076
				C206.237,481.186,205.417,480.952,204.582,480.132z M209.709,476.279v-3.091c-0.381-0.615-1.23-1.143-2.109-1.143
				c-1.421,0-2.27,1.128-2.27,2.695c0,1.553,0.849,2.695,2.27,2.695C208.478,477.436,209.328,476.895,209.709,476.279z"/>
			<path id="XMLID_422_" style="fill:#112129;" d="M217.413,478.315v-4.629c0-1.245-0.63-1.641-1.582-1.641
				c-0.864,0-1.685,0.527-2.095,1.099v5.17h-1.099v-7.075h1.099v1.025c0.498-0.586,1.464-1.201,2.519-1.201
				c1.479,0,2.256,0.747,2.256,2.285v4.966H217.413z"/>
			<path id="XMLID_419_" style="fill:#112129;" d="M219.932,474.771c0-2.051,1.465-3.706,3.486-3.706
				c2.139,0,3.398,1.67,3.398,3.794v0.279h-5.727c0.088,1.333,1.025,2.446,2.548,2.446c0.806,0,1.626-0.322,2.183-0.893l0.527,0.718
				c-0.703,0.703-1.655,1.084-2.812,1.084C221.441,478.491,219.932,476.982,219.932,474.771z M223.404,471.973
				c-1.509,0-2.256,1.274-2.314,2.358h4.643C225.718,473.276,225.015,471.973,223.404,471.973z"/>
			<path id="XMLID_416_" style="fill:#112129;" d="M233.35,478.315v-1.055c-0.527,0.718-1.392,1.23-2.388,1.23
				c-1.846,0-3.149-1.406-3.149-3.706c0-2.256,1.289-3.721,3.149-3.721c0.952,0,1.817,0.469,2.388,1.245v-3.765h1.098v9.77H233.35z
				 M233.35,476.396v-3.208c-0.396-0.615-1.245-1.143-2.124-1.143c-1.421,0-2.27,1.172-2.27,2.739c0,1.567,0.849,2.724,2.27,2.724
				C232.105,477.51,232.954,477.012,233.35,476.396z"/>
			<path id="XMLID_413_" style="fill:#112129;" d="M239.692,478.315v-9.77h1.098v3.765c0.572-0.776,1.421-1.245,2.388-1.245
				c1.845,0,3.149,1.465,3.149,3.721c0,2.299-1.304,3.706-3.149,3.706c-0.996,0-1.86-0.513-2.388-1.23v1.055H239.692z M242.9,477.51
				c1.436,0,2.285-1.157,2.285-2.724c0-1.568-0.85-2.739-2.285-2.739c-0.864,0-1.728,0.527-2.109,1.143v3.208
				C241.171,477.012,242.036,477.51,242.9,477.51z"/>
			<path id="XMLID_411_" style="fill:#112129;" d="M247.528,480.088c0.161,0.073,0.425,0.117,0.601,0.117
				c0.483,0,0.805-0.161,1.055-0.747l0.469-1.069l-2.959-7.148h1.187l2.358,5.801l2.344-5.801h1.201l-3.545,8.51
				c-0.425,1.025-1.143,1.421-2.08,1.435c-0.234,0-0.601-0.044-0.805-0.103L247.528,480.088z"/>
		</g>
	</g>
</g>
</svg>
