<?xml version="1.0" encoding="utf-8"?>
<!-- Generator: Adobe Illustrator 27.5.0, SVG Export Plug-In . SVG Version: 6.00 Build 0)  -->
<svg version="1.1" xmlns="http://www.w3.org/2000/svg" xmlns:xlink="http://www.w3.org/1999/xlink" x="0px" y="0px"
	 viewBox="0 0 500 500" style="enable-background:new 0 0 500 500;" xml:space="preserve">
<g id="Background_Simple">
	<g>
		<path style="fill:#92E3A9;" d="M464.497,130.564c-1.584-2.687-3.246-5.323-4.987-7.903
			c-23.183-34.346-63.071-57.838-102.312-68.458c-17.184-4.651-34.93-7.089-52.711-7.692
			c-116.614-3.953-163.062,87.955-201.604,111.673S5.045,222.421,8.998,307.411s65.225,165.039,183.816,169.98
			c118.591,4.941,126.497-48.424,192.71-68.19c43.819-13.08,74.952-57.26,90.197-98.088
			C496.496,255.471,495.517,183.197,464.497,130.564z"/>
		<path style="opacity:0.7;fill:#FFFFFF;" d="M464.497,130.564c-1.584-2.687-3.246-5.323-4.987-7.903
			c-23.183-34.346-63.071-57.838-102.312-68.458c-17.184-4.651-34.93-7.089-52.711-7.692
			c-116.614-3.953-163.062,87.955-201.604,111.673S5.045,222.421,8.998,307.411s65.225,165.039,183.816,169.98
			c118.591,4.941,126.497-48.424,192.71-68.19c43.819-13.08,74.952-57.26,90.197-98.088
			C496.496,255.471,495.517,183.197,464.497,130.564z"/>
	</g>
</g>
<g id="Wall">
	<g>
		<rect x="420" y="300.05" style="opacity:0.2;" width="42" height="17"/>
		<rect x="283.375" y="162.797" style="opacity:0.2;" width="42" height="17"/>
		<rect x="257.512" y="188.485" style="opacity:0.2;" width="42" height="17"/>
		<rect x="285.964" y="75.641" style="opacity:0.2;" width="42" height="17"/>
		<rect x="252" y="281.807" style="opacity:0.2;" width="42" height="17"/>
		<rect x="169.203" y="130.006" style="opacity:0.2;" width="42" height="17"/>
		<rect x="215.203" y="130.006" style="opacity:0.2;" width="42" height="17"/>
		<rect x="180" y="407.517" style="opacity:0.2;" width="42" height="17"/>
		<rect x="158" y="428.517" style="opacity:0.2;" width="42" height="17"/>
		<rect x="234.512" y="211.985" style="opacity:0.1;" width="42" height="17"/>
		<rect x="172.381" y="87.722" style="opacity:0.1;" width="42" height="17"/>
		<rect x="444" y="340.807" style="opacity:0.1;" width="42" height="17"/>
		<rect x="198" y="366.807" style="opacity:0.1;" width="42" height="17"/>
		<rect x="246" y="366.807" style="opacity:0.1;" width="42" height="17"/>
		<rect x="250" y="342.807" style="opacity:0.1;" width="42" height="17"/>
		<rect x="282.512" y="211.985" style="opacity:0.1;" width="42" height="17"/>
		<rect x="304" y="426.807" style="opacity:0.2;" width="42" height="17"/>
		<rect x="281" y="450.307" style="opacity:0.1;" width="42" height="17"/>
		<rect x="329" y="450.307" style="opacity:0.1;" width="42" height="17"/>
		<rect x="100.392" y="215.218" style="opacity:0.2;" width="42" height="17"/>
		<rect x="77.392" y="238.718" style="opacity:0.1;" width="42" height="17"/>
		<rect x="125.392" y="238.718" style="opacity:0.1;" width="42" height="17"/>
		<rect x="84" y="341.807" style="opacity:0.2;" width="42" height="17"/>
		<rect x="270" y="260.517" style="opacity:0.1;" width="42" height="17"/>
		<rect x="207" y="427.517" style="opacity:0.1;" width="42" height="17"/>
		<rect x="193.203" y="109.006" style="opacity:0.1;" width="42" height="17"/>
		<rect x="60" y="285.517" style="opacity:0.2;" width="42" height="17"/>
		<rect x="84" y="264.517" style="opacity:0.1;" width="42" height="17"/>
		<rect x="191" y="162.307" style="opacity:0.1;" width="42" height="17"/>
		<rect x="129.772" y="172.29" style="opacity:0.1;" width="42" height="17"/>
		<rect x="337" y="300.05" style="opacity:0.2;" width="42" height="17"/>
		<rect x="30.535" y="394.078" style="opacity:0.2;" width="42" height="17"/>
		<rect x="12.392" y="155.218" style="opacity:0.1;" width="42" height="17"/>
		<rect x="60.392" y="155.218" style="opacity:0.1;" width="42" height="17"/>
		<rect x="64.392" y="131.218" style="opacity:0.1;" width="42" height="17"/>
		<rect x="33" y="199.518" style="opacity:0.1;" width="42" height="17"/>
		<rect x="87.535" y="411.578" style="opacity:0.2;" width="42" height="17"/>
	</g>
</g>
<g id="Window">
	<g style="opacity:0.3;">
		<path style="fill:none;stroke:#000000;stroke-linecap:round;stroke-linejoin:round;stroke-miterlimit:10;" d="M327.297,25.495
			v239.834h150.967V25.495H327.297z M472.768,83.11h-66.544V34.226h66.544V83.11z M406.224,148.258h66.544v52.375h-66.544V148.258z
			 M406.224,141.872V89.496h66.544v52.375H406.224z M332.793,34.226h66.544V83.11h-66.205v6.386h66.205v52.375h-66.205v6.386h66.205
			v52.375h-66.205v6.386h66.205v49.579h-66.544V34.226z M406.224,256.598v-49.579h66.544v49.579H406.224z"/>
		
			<line style="fill:none;stroke:#000000;stroke-linecap:round;stroke-linejoin:round;stroke-miterlimit:10;" x1="389.8" y1="48.843" x2="356.227" y2="76.627"/>
		
			<line style="fill:none;stroke:#000000;stroke-linecap:round;stroke-linejoin:round;stroke-miterlimit:10;" x1="456.366" y1="103.254" x2="422.794" y2="131.038"/>
		
			<line style="fill:none;stroke:#000000;stroke-linecap:round;stroke-linejoin:round;stroke-miterlimit:10;" x1="380.538" y1="220.758" x2="346.966" y2="248.542"/>
		
			<line style="fill:none;stroke:#000000;stroke-linecap:round;stroke-linejoin:round;stroke-miterlimit:10;" x1="372.194" y1="56.947" x2="356.806" y2="69.681"/>
		
			<line style="fill:none;stroke:#000000;stroke-linecap:round;stroke-linejoin:round;stroke-miterlimit:10;" x1="453.81" y1="96.886" x2="438.422" y2="109.621"/>
		
			<line style="fill:none;stroke:#000000;stroke-linecap:round;stroke-linejoin:round;stroke-miterlimit:10;" x1="378.561" y1="229.441" x2="363.173" y2="242.175"/>
		
			<line style="fill:none;stroke:#000000;stroke-linecap:round;stroke-linejoin:round;stroke-miterlimit:10;" x1="373.93" y1="168.084" x2="358.543" y2="180.818"/>
		
			<line style="fill:none;stroke:#000000;stroke-linecap:round;stroke-linejoin:round;stroke-miterlimit:10;" x1="452.652" y1="221.916" x2="437.265" y2="234.65"/>
		
			<rect x="318.603" y="265.17" style="fill:none;stroke:#000000;stroke-linecap:round;stroke-linejoin:round;stroke-miterlimit:10;" width="169.021" height="20.997"/>
	</g>
</g>
<g id="Plants">
	<g style="opacity:0.3;">
		<polygon style="fill:none;stroke:#000000;stroke-linecap:round;stroke-linejoin:round;stroke-miterlimit:10;" points="
			78.837,117.782 79.461,111.739 39.427,111.739 40.051,117.782 		"/>
		<g>
			<polygon style="fill:none;stroke:#000000;stroke-linecap:round;stroke-linejoin:round;stroke-miterlimit:10;" points="
				77.196,133.671 41.692,133.671 37.254,90.697 81.634,90.697 			"/>
			<path style="fill:none;stroke:#000000;stroke-linecap:round;stroke-linejoin:round;stroke-miterlimit:10;" d="M44.505,90.389
				c0,0-5.64-0.806-10.876-5.237c-5.237-4.431-14.502-5.64-17.724-3.223c-3.223,2.417-6.445,5.64-6.445,5.64
				s2.417-8.862,8.862-10.876c6.445-2.014,10.474,0,14.099,1.611c3.625,1.611,5.237,2.82,9.265,5.237
				c4.028,2.417,6.445,4.431,6.445,4.431s-1.208-5.237-3.625-7.654c-2.417-2.417-16.919-12.89-16.919-12.89
				s8.057,2.014,13.293,4.431c5.237,2.417,9.265,6.848,9.668,8.862c0.403,2.014,2.014,5.64,2.014,5.64l1.611,4.028
				c0,0-0.403-6.042-0.806-10.473c-0.403-4.431-1.208-7.251-0.806-11.682c0.403-4.431,1.208-7.251,1.208-9.668
				c0-2.417,1.208-4.834,1.208-4.834s1.611,11.279,2.417,14.905c0.806,3.625,0.806,8.459,1.208,10.876
				c0.403,2.417,1.611,9.668,1.611,9.668s-0.806-6.042,1.611-9.265c2.417-3.223,3.223-5.64,4.834-8.057
				c1.611-2.417,3.625-6.445,3.625-6.445s0,6.445-1.611,10.474c-1.611,4.028-2.82,6.042-2.82,7.654c0,1.611,0,5.64,0,5.64
				s4.028-7.251,6.445-9.265c2.417-2.014,4.028-2.014,4.834-3.223c0.806-1.208,5.64-4.028,5.64-4.028s-2.82,6.445-3.625,7.654
				c-0.806,1.208-4.834,4.834-4.834,4.834s4.834-2.417,8.862-3.626c4.028-1.208,10.071-2.417,12.488-2.417
				c2.417,0,10.473-1.208,10.473-1.208s-7.251,3.223-11.682,4.834c-4.431,1.611-7.251,2.417-8.862,2.82
				c-1.611,0.403-1.611,0.403-1.611,0.403s5.64,0.806,11.279,2.82c5.64,2.014,7.251,3.626,8.056,4.834
				c0.806,1.208,1.209,3.223,1.209,3.223s2.417,2.014,2.417,3.625s-10.876-7.654-14.905-8.862
				c-4.028-1.209-10.404-0.901-10.404-0.901"/>
		</g>
	</g>
	<g style="opacity:0.3;">
		<polygon style="fill:none;stroke:#000000;stroke-linecap:round;stroke-linejoin:round;stroke-miterlimit:10;" points="
			104.043,148.201 103.62,144.107 130.746,144.107 130.323,148.201 		"/>
		<g>
			<polygon style="fill:none;stroke:#000000;stroke-linecap:round;stroke-linejoin:round;stroke-miterlimit:10;" points="
				105.155,158.967 129.211,158.967 132.218,129.849 102.148,129.849 			"/>
			<path style="fill:none;stroke:#000000;stroke-linecap:round;stroke-linejoin:round;stroke-miterlimit:10;" d="M127.305,129.641
				c0,0,3.821-0.546,7.369-3.548c3.548-3.002,9.826-3.821,12.009-2.184c2.184,1.638,4.367,3.821,4.367,3.821
				s-1.638-6.005-6.005-7.369c-4.367-1.365-7.096,0-9.553,1.092c-2.456,1.092-3.548,1.911-6.278,3.548
				c-2.729,1.638-4.367,3.002-4.367,3.002s0.819-3.548,2.456-5.186c1.638-1.638,11.464-8.734,11.464-8.734s-5.459,1.365-9.007,3.002
				c-3.548,1.638-6.278,4.64-6.551,6.005c-0.273,1.365-1.365,3.821-1.365,3.821l-1.092,2.729c0,0,0.273-4.094,0.546-7.097
				c0.273-3.002,0.819-4.913,0.546-7.915c-0.273-3.002-0.819-4.913-0.819-6.55c0-1.638-0.819-3.275-0.819-3.275
				s-1.092,7.642-1.638,10.099c-0.546,2.457-0.546,5.732-0.819,7.369c-0.273,1.638-1.092,6.551-1.092,6.551s0.546-4.094-1.092-6.278
				c-1.638-2.184-2.184-3.821-3.275-5.459c-1.092-1.638-2.456-4.367-2.456-4.367s0,4.367,1.092,7.096
				c1.092,2.729,1.911,4.094,1.911,5.186c0,1.092,0,3.821,0,3.821s-2.729-4.913-4.367-6.278c-1.638-1.365-2.729-1.365-3.275-2.184
				c-0.546-0.819-3.821-2.729-3.821-2.729s1.911,4.367,2.456,5.186c0.546,0.819,3.275,3.275,3.275,3.275s-3.275-1.638-6.005-2.457
				c-2.729-0.819-6.823-1.638-8.461-1.638c-1.638,0-7.096-0.819-7.096-0.819s4.913,2.184,7.915,3.275
				c3.002,1.092,4.913,1.638,6.005,1.911c1.092,0.273,1.092,0.273,1.092,0.273s-3.821,0.546-7.642,1.91
				c-3.821,1.365-4.913,2.457-5.459,3.275c-0.546,0.819-0.819,2.184-0.819,2.184S85,135.373,85,136.465
				c0,1.092,7.369-5.186,10.099-6.005c2.729-0.819,7.049-0.611,7.049-0.611"/>
		</g>
	</g>
	<g style="opacity:0.3;">
		<g>
			<polygon style="fill:none;stroke:#000000;stroke-linecap:round;stroke-linejoin:round;stroke-miterlimit:10;" points="
				156.266,79.307 156.751,74.61 125.635,74.61 126.12,79.307 			"/>
			<g>
				<polygon style="fill:none;stroke:#000000;stroke-linecap:round;stroke-linejoin:round;stroke-miterlimit:10;" points="
					154.991,91.657 127.396,91.657 123.946,58.255 158.44,58.255 				"/>
			</g>
		</g>
		<path style="fill:none;stroke:#000000;stroke-linecap:round;stroke-linejoin:round;stroke-miterlimit:10;" d="M123.946,58.255
			c0,0-3.835-3.767-6.071-4.725c-2.236-0.958-6.388-2.555-6.388-2.555s5.111,0,8.624,1.597c3.514,1.597,7.027,3.833,7.027,3.833
			s-3.194-4.472-5.749-7.666c-2.555-3.194-8.305-8.624-8.624-10.221c-0.319-1.597,7.666,5.43,13.096,9.582
			c5.43,4.152,6.388,7.027,6.388,7.027s-4.152-7.666-7.346-14.373c-3.194-6.708-6.069-10.541-7.027-11.818
			c-0.958-1.278,9.263,10.541,12.776,16.29c3.514,5.749,5.749,9.263,5.749,9.263s-3.833-19.165-4.472-23.636
			c-0.639-4.472-1.278-8.944-1.278-8.944s6.069,17.568,7.027,20.762c0.958,3.194,2.555,8.943,2.555,8.943s1.917-9.263,2.555-15.012
			s3.514-14.054,3.514-14.054s-1.278,17.887-1.597,22.359c-0.319,4.472-0.639,8.943-0.639,8.943s3.194-8.305,6.069-12.138
			c2.875-3.833,7.985-8.943,7.985-8.943s-5.43,10.221-6.708,13.415c-1.278,3.194-2.875,8.943-2.875,8.943s6.388-9.902,9.263-13.096
			c2.875-3.194,5.749-4.791,8.305-6.388c2.555-1.597-7.985,11.179-9.263,14.054c-1.278,2.875-2.875,5.43-2.875,5.43
			s1.916-2.555,7.027-4.472c5.11-1.917,14.054-3.833,15.332-3.833c1.278,0-7.985,3.833-11.179,5.11
			c-3.194,1.278-6.708,6.322-6.708,6.322"/>
	</g>
</g>
<g id="Character_4">
	<g>
		
			<ellipse transform="matrix(0.2392 -0.971 0.971 0.2392 102.1788 470.2762)" style="fill:#92E3A9;stroke:#263238;stroke-linecap:round;stroke-linejoin:round;stroke-miterlimit:10;" cx="351.196" cy="169.933" rx="27.572" ry="36.343"/>
		<path style="fill:#263238;stroke:#263238;stroke-linecap:round;stroke-linejoin:round;stroke-miterlimit:10;" d="M330.643,181.856
			c0,0-7.214,1.967-10.493-1.967c-3.279-3.935,1.64-15.412,7.05-20.658c5.41-5.247,20.658-7.542,28.528-6.722
			c7.87,0.82,17.215,6.722,18.527,12.952c1.312,6.23-1.312,12.297-1.476,14.264c-0.164,1.967-4.755,1.967-5.41,0.984
			c-0.656-0.984-10.493-15.412-12.461-16.068c-1.967-0.656-3.279,0.656-5.41,1.804c-2.131,1.148-18.363,8.034-18.363,8.034
			L330.643,181.856z"/>
		<path style="fill:#FFFFFF;stroke:#263238;stroke-linecap:round;stroke-linejoin:round;stroke-miterlimit:10;" d="M354.521,346.408
			l-3.238-21.048l-7.448,25.581l0.001,0.002c-1.8,3.077-3.93,7.051-4.904,10.137c-1.847,5.855,7.474,24.324,8.09,22.372
			c0.616-1.952,4.126-27.005,4.126-27.005s0.651-4.302,0.366-7.677L354.521,346.408z"/>
		<path style="fill:#263238;stroke:#263238;stroke-linecap:round;stroke-linejoin:round;stroke-miterlimit:10;" d="M350.201,361.305
			c0,0-6.74,2.295-6.74,16.605c0,3.902,5.561,44.891,5.561,51.747c0,12.928,0,28.441,0,28.441h37.236l4.597-27.005l3.447,26.43
			h37.347c0,0,3.735-41.656,4.022-46.827c0.287-5.171,2.873-16.375,2.011-31.889c-0.862-15.513-4.309-21.546-4.309-21.546
			l-82.339-1.436L350.201,361.305z"/>
		<path style="fill:#FFFFFF;stroke:#263238;stroke-linecap:round;stroke-linejoin:round;stroke-miterlimit:10;" d="M357.109,217.157
			c0,0-17.55,14.952-21.353,19.049c-3.944,4.248-2.302,27.661,2.739,43.794c5.041,16.133,10.39,41.075,10.642,46.117
			c0.252,5.041,1.064,35.188,1.064,35.188s31.317,12.352,50.475,9.327s32.77-11.091,32.77-11.091s-3.025-51.676-3.025-63.019
			s-2.521-48.903-5.042-62.011c-2.521-13.108-11.343-20.922-17.897-21.679c-6.554-0.756-31.07-1.856-31.07-1.856L357.109,217.157z"
			/>
		<g>
			<path style="fill:#FFFFFF;stroke:#263238;stroke-linecap:round;stroke-linejoin:round;stroke-miterlimit:10;" d="
				M348.245,213.616c0,0,7.922,22.225,9.242,22.445c1.32,0.22,4.841-3.301,4.841-3.301l14.083-21.785l-5.6-20.101
				c0,0-3.202,10.639-9.364,17.461C355.287,215.156,348.245,213.616,348.245,213.616z"/>
			<polygon style="fill:#263238;stroke:#263238;stroke-linecap:round;stroke-linejoin:round;stroke-miterlimit:10;" points="
				363.55,209.273 353.164,225.354 348.245,213.616 			"/>
		</g>
		<g>
			<path style="fill:#FFFFFF;stroke:#263238;stroke-linecap:round;stroke-linejoin:round;stroke-miterlimit:10;" d="
				M354.417,158.574c0,0-9.018,7.214-16.232,9.837c-7.214,2.623-10.821,3.607-10.821,3.607s2.295,14.592,2.951,18.691
				c0.656,4.099,2.131,10.985,5.083,13.936c2.951,2.951,10.165,10.001,13.444,11.805c3.279,1.803,8.853,0.328,10.493-0.492
				c1.639-0.82,11.149-15.248,11.641-17.215c0.492-1.967-0.164-7.87-0.164-7.87s4.263-2.295,4.919-4.591
				c0.656-2.295-0.82-10.821-2.131-11.969c-1.312-1.148-3.443,0.164-3.771,1.476c-0.328,1.312-1.312,3.279-1.312,3.279
				s-0.164-3.443-1.476-5.574c-1.312-2.131-1.312-2.951-4.427-5.411C359.499,165.625,354.417,158.574,354.417,158.574z"/>
			<path style="fill:none;stroke:#263238;stroke-linecap:round;stroke-linejoin:round;stroke-miterlimit:10;" d="M343.432,190.874
				l0.492,4.427c0,0,5.411-0.164,7.87-2.787"/>
			<path style="fill:none;stroke:#263238;stroke-linecap:round;stroke-linejoin:round;stroke-miterlimit:10;" d="M340.972,199.891
				c0,0,3.935,1.312,10.001-0.492c6.066-1.803,7.542-6.066,7.542-6.066"/>
			<path style="fill:none;stroke:#263238;stroke-linecap:round;stroke-linejoin:round;stroke-miterlimit:10;" d="M339.825,179.889
				c0,0-7.05-2.295-9.181,1.967"/>
			<path style="fill:none;stroke:#263238;stroke-linecap:round;stroke-linejoin:round;stroke-miterlimit:10;" d="M347.039,177.265
				c0,0,4.755-4.755,9.673-2.951"/>
			<path style="fill:#263238;" d="M339.094,186.189c0.466,1.276,0.327,2.499-0.311,2.732c-0.638,0.233-1.533-0.612-1.999-1.888
				c-0.466-1.276-0.327-2.499,0.311-2.732C337.733,184.068,338.628,184.913,339.094,186.189z"/>
			<path style="fill:#263238;" d="M354.349,181.504c0.466,1.276,0.327,2.499-0.311,2.732c-0.638,0.233-1.533-0.612-1.999-1.888
				c-0.466-1.276-0.327-2.499,0.311-2.732C352.988,179.383,353.883,180.228,354.349,181.504z"/>
		</g>
		<g>
			<path style="fill:#FFFFFF;stroke:#263238;stroke-linecap:round;stroke-linejoin:round;stroke-miterlimit:10;" d="
				M391.601,240.559l14.368,51.424c0,0-0.756,2.521-0.252,4.033c0.504,1.512,0.756,2.773,0.756,2.773s-4.033,20.166-7.562,32.518
				c-3.529,12.352-16.133,39.324-15.629,42.349c0.504,3.025-2.521,25.712-1.008,26.72c1.512,1.008,5.042,2.521,6.05,2.521
				s5.546,0.504,7.058,0.504c1.513,0,7.058-0.252,8.066-2.269s0.756-3.277-0.756-2.773c-1.513,0.504-4.033,0.756-4.033,0.756
				l-1.008-2.017c0,0,1.26-8.823,0-15.377c-1.26-6.554-1.764-8.823-1.764-8.823s31.51-51.172,32.77-60.751
				c1.26-9.579,3.277-20.166,3.277-24.956c0-4.789-5.042-47.895-6.554-52.684c-1.512-4.789-2.269-9.579-6.302-13.612
				c-4.033-4.033-6.806-4.033-8.823-4.033"/>
			<path style="fill:none;stroke:#263238;stroke-linecap:round;stroke-linejoin:round;stroke-miterlimit:10;" d="M408.498,297.414
				c0,0,7.402-3.084,13.725-0.309"/>
			<path style="fill:none;stroke:#263238;stroke-linecap:round;stroke-linejoin:round;stroke-miterlimit:10;" d="M413.279,291.862
				c0,0,8.482-2.005,13.879,4.318"/>
			<path style="fill:#FFFFFF;stroke:#263238;stroke-linecap:round;stroke-linejoin:round;stroke-miterlimit:10;" d="
				M401.293,322.205c-0.786,3.215-1.596,6.353-2.382,9.102c-3.529,12.352-16.133,39.324-15.629,42.349
				c0.504,3.025-2.521,25.712-1.008,26.72c1.513,1.008,5.042,2.521,6.05,2.521c1.008,0,5.546,0.504,7.058,0.504
				c1.513,0,7.058-0.252,8.066-2.269s0.756-3.277-0.756-2.773c-1.513,0.504-4.033,0.756-4.033,0.756l-1.008-2.017
				c0,0,1.26-8.823,0-15.377s-1.764-8.823-1.764-8.823s15.139-24.587,24.85-42.866C414.458,323.5,406.54,322.207,401.293,322.205z"
				/>
			<path style="fill:#FFFFFF;stroke:#263238;stroke-linecap:round;stroke-linejoin:round;stroke-miterlimit:10;" d="
				M392.511,398.732c0,0,2.499,2.115,3.365,2.788c0.865,0.673,1.154,1.346,2.788,1.538"/>
			<path style="fill:#FFFFFF;stroke:#263238;stroke-linecap:round;stroke-linejoin:round;stroke-miterlimit:10;" d="
				M387.609,399.982c0,0,3.749,2.788,6.056,3.365"/>
			<path style="fill:#FFFFFF;stroke:#263238;stroke-linecap:round;stroke-linejoin:round;stroke-miterlimit:10;" d="
				M383.475,399.405c0,0,1.73,2.307,3.653,3.172"/>
		</g>
		<path style="fill:#FFFFFF;stroke:#263238;stroke-linecap:round;stroke-linejoin:round;stroke-miterlimit:10;" d="M350.103,355.089
			c0,0,0.915,6.769,1.281,7.867c0.366,1.098-0.183,3.11,0.183,7.318c0.366,4.208,1.464,8.599-1.281,7.867
			c-2.744-0.732-4.025-7.867-3.842-9.697c0.183-1.83-3.11-7.318-3.11-7.318"/>
	</g>
</g>
<g id="Character_2">
	<g>
		<g>
			<path style="fill:#92E3A9;stroke:#263238;stroke-linecap:round;stroke-linejoin:round;stroke-miterlimit:10;" d="M296.82,317.971
				c-2.556-4.904-21.573-72.291-21.573-72.291c-3.581,9.807-5.869,58.175-5.869,58.175l2.081,25.652l-0.373,4.808
				c4.968-3.402,17.139-10.128,25.229-1.173c0.128-0.471,0.221-0.87,0.271-1.183C297.635,325.495,299.376,322.874,296.82,317.971z"
				/>
			<path style="fill:none;stroke:#263238;stroke-linecap:round;stroke-linejoin:round;stroke-miterlimit:10;" d="M290.69,324.458
				c1.291,0.223,2.544,0.574,3.717,1.091"/>
			<path style="fill:none;stroke:#263238;stroke-linecap:round;stroke-linejoin:round;stroke-miterlimit:10;" d="M272.861,326.833
				c0,0,6.394-2.506,13.18-2.68"/>
			<path style="fill:none;stroke:#263238;stroke-linecap:round;stroke-linejoin:round;stroke-miterlimit:10;" d="M293.162,321.76
				c0,0-5.607-3.397-10.097-2.06"/>
		</g>
		<polygon style="fill:#263238;stroke:#263238;stroke-linecap:round;stroke-linejoin:round;stroke-miterlimit:10;" points="
			179.614,457.429 180.797,406.05 184.449,377.857 269.436,374.958 277.015,395.169 281.684,458.098 238.665,458.098 
			230.538,416.417 228.211,420.429 227.319,457.206 		"/>
		<g>
			<g>
				<path style="fill:#92E3A9;stroke:#263238;stroke-linecap:round;stroke-linejoin:round;stroke-miterlimit:10;" d="
					M206.383,236.096c0,0-37.016,9.807-39.271,10.922c-2.256,1.114,2.723,34.771,6.214,47.031
					c3.492,12.259,11.984,57.284,11.984,57.284l-0.567,32.543c0,0,36.31,0.892,50.842-0.892c14.531-1.783,30.454-5.795,30.454-5.795
					s5.155-28.753,3.386-47.699c-1.769-18.946,3.384-65.977,3.46-69.097c0.076-3.121,2.363-14.711,2.363-14.711
					s-27.656-8.47-34.767-9.361C233.369,235.427,216.663,234.981,206.383,236.096z"/>
				<path style="fill:none;stroke:#263238;stroke-linecap:round;stroke-linejoin:round;stroke-miterlimit:10;" d="M199.41,244.401
					c0,0,4.612,12.71,15.498,20.295"/>
				<path style="fill:none;stroke:#263238;stroke-linecap:round;stroke-linejoin:round;stroke-miterlimit:10;" d="M237.595,242.146
					c0,0-1.964,4.92-5.169,10.25"/>
				
					<line style="fill:none;stroke:#263238;stroke-linecap:round;stroke-linejoin:round;stroke-miterlimit:10;" x1="231.746" y1="255.061" x2="229.837" y2="257.726"/>
			</g>
			<path style="fill:none;stroke:#263238;stroke-linecap:round;stroke-linejoin:round;stroke-miterlimit:10;" d="M218.418,380.246
				c8.605-0.508,24.375-1.889,34.614-5.463"/>
			<path style="fill:none;stroke:#263238;stroke-linecap:round;stroke-linejoin:round;stroke-miterlimit:10;" d="M212.302,380.522
				c0,0,0.979-0.023,2.663-0.098"/>
			<path style="fill:none;stroke:#263238;stroke-linecap:round;stroke-linejoin:round;stroke-miterlimit:10;" d="M247.725,370.969
				c-11.293,1.47-28.41,2.801-41.749-0.081"/>
			<path style="fill:none;stroke:#263238;stroke-linecap:round;stroke-linejoin:round;stroke-miterlimit:10;" d="M259.731,369.042
				c0,0-2.852,0.586-7.435,1.282"/>
			<path style="fill:none;stroke:#263238;stroke-linecap:round;stroke-linejoin:round;stroke-miterlimit:10;" d="M258.794,353.374
				c-6.834,3.954-19.882,10.674-32.819,12.798"/>
			<path style="fill:none;stroke:#263238;stroke-linecap:round;stroke-linejoin:round;stroke-miterlimit:10;" d="M263.669,350.387
				c0,0-0.923,0.619-2.562,1.616"/>
		</g>
		<path style="fill:#FFFFFF;stroke:#263238;stroke-linecap:round;stroke-linejoin:round;stroke-miterlimit:10;" d="M201.145,223.289
			l1.554,17.896c0,0,5.474,12.966,18.198,12.129c12.478-0.82,14.324-16.702,14.324-16.702l-2.524-18.89
			c0,0-10.959,9.146-17.104,8.351C209.448,225.277,201.145,223.289,201.145,223.289z"/>
		<g>
			<path style="fill:#FFFFFF;stroke:#263238;stroke-linecap:round;stroke-linejoin:round;stroke-miterlimit:10;" d="
				M188.466,202.096c0,0-2.269-2.89-3.984-0.275c-1.715,2.615,0.317,9.633,3.445,11.146c3.128,1.514,3.954,1.514,3.954,1.514
				s3.545,7.018,5.422,9.082c1.876,2.064,15.538,11.834,18.827,12.385s7.991-0.413,9.827-2.339
				c1.836-1.926,7.661-15.137,8.563-18.302c0.902-3.165,1.057-3.853,1.104-5.779c0.047-1.927-0.051-3.578-0.051-3.578
				s3.282-4.816,3.65-8.669c0.369-3.853-0.524-6.743-2.575-7.293c-2.051-0.55-4.353,3.578-4.353,3.578l-6.917-21.192
				c0,0-2.337-5.78-4.384-6.468c-2.048-0.688-16.815,1.101-23.071,3.715c-6.256,2.615-12.377,5.367-12.86,8.257
				C184.58,180.767,188.466,202.096,188.466,202.096z"/>
			<path style="fill:#263238;stroke:#263238;stroke-linecap:round;stroke-linejoin:round;stroke-miterlimit:10;" d="
				M199.786,172.436c0,0-11.813,2.351-12.501,4.275c-0.688,1.924-1.631,5.557-0.416,8.336c1.215,2.779,2.578,17.1,2.578,17.1
				s1.815,4.489,0.548,3.847c-1.267-0.641-2.206-5.985-2.618-6.626c-0.412-0.641-5.72-10.901-7.337-14.749
				c-1.617-3.847,1.892-7.481,2.767-8.336c0.876-0.855,1.762-2.137,1.762-2.137s-0.918-6.199,1.928-8.977
				c2.846-2.779,23.469-7.054,25.195-7.695c1.726-0.641,3.524-4.275,5.041-5.13c1.517-0.855,5.954,1.283,8.603,6.626
				c2.649,5.344,2.399,6.84,1.518,7.909c-0.881,1.069-0.881,1.069-0.881,1.069s2.982,0.428,4.166,4.489
				c1.184,4.061,2.801,7.908,2.723,11.115c-0.078,3.206-0.55,9.372-0.566,10.013c-0.016,0.641-0.747,0.033-1.336-2.104
				c-0.589-2.137-5.982-17.741-6.795-19.451c-0.813-1.71-1.841-3.42-2.253-4.061C221.498,167.307,203.956,167.948,199.786,172.436z"
				/>
			<path style="fill:#263238;stroke:#263238;stroke-linecap:round;stroke-linejoin:round;stroke-miterlimit:10;" d="
				M216.129,235.947c3.289,0.55,7.991-0.413,9.827-2.339c1.836-1.926,7.661-15.137,8.563-18.302c0.902-3.165,1.057-3.853,1.104-5.78
				c0.047-1.926-0.051-3.578-0.051-3.578l-2.903-12.993c-0.103,0.159-0.186,0.292-0.248,0.395c0.328,4.013,0.934,11.76,0.805,12.874
				c-0.174,1.514-1.866,3.165-3.524,3.44c-1.658,0.275-9.472-0.963-12.919-0.688c-3.447,0.275-4.578,1.514-7.226,2.89
				c-2.648,1.376-8.095,4.679-9.481,5.092c-1.386,0.413-3.977-0.55-5.045-1.926c-1.067-1.376-5.586-12.884-5.586-12.884
				c0.001,0.739-0.758,2.151-0.758,2.151l3.193,10.183c0,0,3.545,7.018,5.422,9.082C199.179,225.627,212.84,235.397,216.129,235.947
				z"/>
			<path style="fill:#FFFFFF;stroke:#263238;stroke-linecap:round;stroke-linejoin:round;stroke-miterlimit:10;" d="
				M214.502,189.574c0,0-2.265,2.615-1.872,3.44c0.393,0.826,5.53,15.962,5.352,17.614c-0.178,1.651-2.399,2.477-4.175,1.926
				c-1.775-0.55-2.894-5.504-2.894-5.504"/>
			<path style="fill:none;stroke:#263238;stroke-width:3;stroke-linecap:round;stroke-linejoin:round;stroke-miterlimit:10;" d="
				M216.875,188.197c0,0,4.9-3.44,9.246-1.101"/>
			<path style="fill:none;stroke:#263238;stroke-width:3;stroke-linecap:round;stroke-linejoin:round;stroke-miterlimit:10;" d="
				M204.004,191.225c0,0-7.528-1.651-10.834,4.128"/>
			<path style="fill:#263238;stroke:#263238;stroke-linecap:round;stroke-linejoin:round;stroke-miterlimit:10;" d="M203.24,198.254
				c0.273,1.139-0.076,2.212-0.779,2.396c-0.703,0.184-1.493-0.59-1.766-1.729c-0.272-1.139,0.076-2.212,0.779-2.396
				C202.177,196.34,202.967,197.115,203.24,198.254z"/>
			<path style="fill:#263238;stroke:#263238;stroke-linecap:round;stroke-linejoin:round;stroke-miterlimit:10;" d="M221.32,193.508
				c0.272,1.139-0.076,2.212-0.779,2.396c-0.703,0.184-1.493-0.59-1.766-1.73c-0.272-1.139,0.076-2.212,0.779-2.396
				C220.257,191.594,221.047,192.369,221.32,193.508z"/>
			<path style="fill:none;stroke:#858585;stroke-linecap:round;stroke-linejoin:round;stroke-miterlimit:10;" d="M208.555,219.159
				c0,0,9.589,1.789,15.247-4.541"/>
		</g>
		<g>
			<path style="fill:none;stroke:#263238;stroke-linecap:round;stroke-linejoin:round;stroke-miterlimit:10;" d="M296.587,331.959
				c-0.023,0.142-0.057,0.307-0.097,0.483C296.529,332.266,296.564,332.101,296.587,331.959z"/>
			<path style="fill:#FFFFFF;stroke:#263238;stroke-linecap:round;stroke-linejoin:round;stroke-miterlimit:10;" d="
				M296.315,333.142c-8.09-8.956-20.261-2.23-25.229,1.173l-2.577,23.704l-1.223,4.458c0,0-9.154,9.807-10.317,11.813
				c-1.163,2.006-2.984,3.566-4.349,4.681c-1.364,1.115-4.284,2.006-4.539,3.343c-0.255,1.337,4.186,2.006,5.54,1.337
				c1.354-0.669,4.784-4.235,4.784-4.235l-2.147,5.795l17.425,7.578c0,0,1.016-5.126,1.537-8.247
				c0.522-3.121,1.369-10.476,1.624-11.813c0.249-1.302,17.74-32.125,19.622-40.186
				C296.423,332.728,296.374,332.926,296.315,333.142z"/>
		</g>
		<g>
			<path style="fill:#FFFFFF;stroke:#263238;stroke-linecap:round;stroke-linejoin:round;stroke-miterlimit:10;" d="
				M167.111,247.018c0,0-4.561,4.235-5.555,8.47c-0.994,4.235-16.113,57.247-19.651,65.271c-3.538,8.024-4.141,14.488-2.21,17.609
				c1.93,3.121,36.783,27.899,36.783,27.899s3.709,12.482,4.748,15.603c1.039,3.121,2.915,8.47,2.915,8.47l13.976-6.464
				c0,0,2.604,2.898,4.355,4.235c1.751,1.337,3.963,2.006,4.442,0.669c0.478-1.337-2.104-5.127-2.104-5.127
				s-1.273-2.675-1.441-4.904c-0.169-2.229-3.415-6.241-4.704-8.247c-1.289-2.006-12.032-9.362-12.032-9.362l-21.915-34.362
				l8.609-32.729C173.326,294.048,165.552,256.156,167.111,247.018z"/>
			<path style="fill:#92E3A9;stroke:#263238;stroke-linecap:round;stroke-linejoin:round;stroke-miterlimit:10;" d="
				M164.717,326.777l9.921-27.766c0,0-9.086-42.854-7.526-51.993c0,0-4.561,4.235-5.555,8.47
				c-0.994,4.235-16.113,57.247-19.651,65.271c-3.538,8.024-4.141,14.488-2.21,17.609c0.548,0.885,3.558,4.81,9.509,8.069
				c2.029-3.881,7.296-12.9,18.741-13.683L164.717,326.777z"/>
			<path style="fill:none;stroke:#263238;stroke-linecap:round;stroke-linejoin:round;stroke-miterlimit:10;" d="M148.261,325.216
				c0,0,6.708-0.892,12.89,1.56"/>
			<path style="fill:none;stroke:#263238;stroke-linecap:round;stroke-linejoin:round;stroke-miterlimit:10;" d="M157.225,323.21
				c0,0,5.534,1.56,7.492,3.566"/>
		</g>
	</g>
</g>
<g id="Character_3">
	<g>
		<g>
			<path style="fill:#263238;stroke:#263238;stroke-linecap:round;stroke-linejoin:round;stroke-miterlimit:10;" d="M275.71,361.689
				c0,0-12.612,35.271-7.909,54.297c4.703,19.025,8.978,42.112,8.978,42.112h64.771c0,0,7.268-23.514,6.413-37.623
				s-2.565-29.927-2.565-29.927l-3.42-40.616H277.42L275.71,361.689z"/>
			<path style="fill:none;stroke:#858585;stroke-linecap:round;stroke-linejoin:round;stroke-miterlimit:10;" d="M306.278,396.533
				c0,0,10.688,22.659,15.391,40.402c4.703,17.743,4.489,20.949,4.489,20.949"/>
			<path style="fill:none;stroke:#858585;stroke-linecap:round;stroke-linejoin:round;stroke-miterlimit:10;" d="M318.249,415.558
				c0,0,11.33-9.833,14.75-21.59"/>
		</g>
		<path style="fill:#92E3A9;stroke:#263238;stroke-linecap:round;stroke-linejoin:round;stroke-miterlimit:10;" d="M313.332,254.806
			l-30.355,10.047c0,0,10.902,17.315,14.536,42.112c3.634,24.797,2.138,50.021,2.138,50.021s7.909,4.703,22.873,2.993
			c14.964-1.71,19.453-10.047,19.453-10.047s-1.069-41.471-6.627-57.931C329.792,275.541,313.332,254.806,313.332,254.806z"/>
		<g>
			<path style="fill:#263238;stroke:#263238;stroke-linecap:round;stroke-linejoin:round;stroke-miterlimit:10;" d="
				M268.167,181.155c0,0-7.322-0.578-10.405,7.708c-3.083,8.286-11.754,37.189-10.02,43.548c1.734,6.359,5.588,8.479,7.13,15.415
				c1.541,6.937-1.927,11.176-1.927,11.176s2.698,3.854,9.249,4.047c6.551,0.193,16.379-5.01,22.93-6.552
				c6.551-1.542,21.003-2.89,30.06-4.239c9.057-1.349,10.983-8.093,10.983-8.093s-6.166,0.578-6.551-3.276
				c-0.385-3.854,4.625-18.306,2.505-28.326c-2.12-10.02-16.572-20.04-22.93-25.05c-6.359-5.01-12.332-9.056-19.077-9.249
				S269.323,178.65,268.167,181.155z"/>
			<path style="fill:none;stroke:#858585;stroke-linecap:round;stroke-linejoin:round;stroke-miterlimit:10;" d="M264.891,217.381
				c0,0-5.781,10.02-5.01,18.884c0.771,8.864,7.515,9.442,8.864,8.286"/>
			<path style="fill:none;stroke:#858585;stroke-linecap:round;stroke-linejoin:round;stroke-miterlimit:10;" d="M301.888,202.736
				c0,0,13.874,12.91,15.993,26.592"/>
		</g>
		<path style="fill:#FFFFFF;stroke:#263238;stroke-linecap:round;stroke-linejoin:round;stroke-miterlimit:10;" d="M281.2,239.491
			l6.486,17.778c0,0,13.598,15.825,19.486,13.592c5.888-2.233,0.203-18.069,0-20.302c-0.203-2.233-2.03-13.197-2.03-13.197
			s-4.061,6.497-6.7,6.497C295.803,243.858,281.2,239.491,281.2,239.491z"/>
		<g>
			<path style="fill:#FFFFFF;stroke:#263238;stroke-linecap:round;stroke-linejoin:round;stroke-miterlimit:10;" d="
				M276.121,192.764c0,0-10.604,19.373-10.604,22.024c0,2.651,8.157,18.965,10.4,22.228c2.243,3.263,17.741,10.4,21.208,10.604
				c3.467,0.204,6.933-3.671,7.749-6.73c0.816-3.059,4.274-11.427,4.045-16.084c-0.085-1.74-6.37-21.295-8.205-22.314
				C298.879,201.472,276.121,192.764,276.121,192.764z"/>
			<path style="fill:none;stroke:#263238;stroke-linecap:round;stroke-linejoin:round;stroke-miterlimit:10;" d="M283.056,219.848
				c0,0-3.886-1.608-6.164,1.876"/>
			<path style="fill:none;stroke:#263238;stroke-linecap:round;stroke-linejoin:round;stroke-miterlimit:10;" d="M293.374,216.095
				c0,0,0.804-4.154,5.628-2.948"/>
			<path style="fill:none;stroke:#263238;stroke-linecap:round;stroke-linejoin:round;stroke-miterlimit:10;" d="M280.643,214.353
				c0,0-6.164-0.402-8.04,3.886"/>
			<path style="fill:none;stroke:#263238;stroke-linecap:round;stroke-linejoin:round;stroke-miterlimit:10;" d="M288.952,210.467
				c0,0,3.35-4.556,8.04-2.948"/>
			<path style="fill:none;stroke:#263238;stroke-linecap:round;stroke-linejoin:round;stroke-miterlimit:10;" d="M294.58,224.94
				c0,0-2.01,2.948-4.958,2.144"/>
			<path style="fill:#FFFFFF;stroke:#263238;stroke-linecap:round;stroke-linejoin:round;stroke-miterlimit:10;" d="
				M300.343,226.816c0,0-3.886,5.762-14.607,6.566c0,0,7.102,5.092,11.257,3.752C301.147,235.794,300.343,226.816,300.343,226.816z"
				/>
			<path style="fill:#FFFFFF;stroke:#263238;stroke-linecap:round;stroke-linejoin:round;stroke-miterlimit:10;" d="
				M269.387,225.074c0,0-3.484-1.608-4.02,2.68c-0.536,4.288,8.443,5.762,8.443,5.762L269.387,225.074z"/>
			<path style="fill:#FFFFFF;stroke:#263238;stroke-linecap:round;stroke-linejoin:round;stroke-miterlimit:10;" d="M304.07,209.624
				c0,0,0.037-1.747,1.744-1.31c1.708,0.437,4.571,5.565,4.27,8.633c-0.301,3.067-2.328,3.138-2.328,3.138L304.07,209.624z"/>
		</g>
		<path style="fill:#A3A3A3;stroke:#263238;stroke-linecap:round;stroke-linejoin:round;stroke-miterlimit:10;" d="M276.922,257.055
			c0,0-23.754,15.836-24.769,18.678c-1.015,2.842,16.242,87.097,16.242,87.097s-22.942,51.568-17.257,60.501
			c5.685,8.933,31.468,17.46,32.687,19.084s11.572-42.838,16.039-59.689c4.467-16.851,11.775-47.304,12.181-61.719
			c0.406-14.415-5.482-33.499-7.512-39.792c-2.03-6.294-5.685-17.257-5.685-17.257L276.922,257.055z"/>
		<path style="fill:#A3A3A3;stroke:#263238;stroke-linecap:round;stroke-linejoin:round;stroke-miterlimit:10;" d="M282.949,247.016
			c0,0,16.711,16.129,15.899,16.941c-0.812,0.812-10.354,15.024-10.354,15.024l-14.618-21.317L282.949,247.016z"/>
		<path style="fill:#A3A3A3;stroke:#263238;stroke-linecap:round;stroke-linejoin:round;stroke-miterlimit:10;" d="M310.014,263.145
			c0,0,14.618,17.866,20.708,30.656c6.091,12.79,8.933,35.529,8.933,44.462c0,8.933,0,16.851,0,16.851s6.294,42.635,8.324,49.741
			c2.03,7.106,5.279,20.302,5.279,20.302s2.436-0.812,2.233-9.745c-0.203-8.933-3.451-45.274-6.294-59.689
			c-2.842-14.415-4.023-38.315-5.851-42.578c-1.827-4.263-1.827-4.263-1.827-4.263l21.691-6.297c0,0-13.527-12.249-17.924-31.007
			c-2-8.534-6.444-13.101-9.083-14.928c-2.639-1.827-21.926-3.857-25.175-3.654C307.781,253.197,310.014,263.145,310.014,263.145z"
			/>
		<path style="fill:#A3A3A3;stroke:#263238;stroke-linecap:round;stroke-linejoin:round;stroke-miterlimit:10;" d="M310.014,263.145
			c0,0,0.609-2.639,1.827-2.233c1.218,0.406,11.572,6.294,12.587,5.685s-10.557-14.618-12.79-16.648
			c-2.233-2.03-4.466-3.248-4.466-3.248v3.857L310.014,263.145z"/>
		<path style="fill:#FFFFFF;stroke:#263238;stroke-linecap:round;stroke-linejoin:round;stroke-miterlimit:10;" d="M329.708,263.348
			c0,0,7.106,22.942,7.918,32.89"/>
		<g>
			<path style="fill:#FFFFFF;stroke:#263238;stroke-linecap:round;stroke-linejoin:round;stroke-miterlimit:10;" d="
				M333.759,309.258c0,0,4.133-16.531,5.125-17.523c0.992-0.992,9.092-4.464,9.754-4.629c0.661-0.165,5.951,3.637,6.778,4.464
				c0.827,0.827,4.464,3.141,3.802,4.464c-0.661,1.323-2.81,0.331-3.968,0.331s-6.613,3.472-6.943,3.967
				c-0.331,0.496-2.149,4.629-2.81,5.786C344.835,307.274,333.759,309.258,333.759,309.258z"/>
			<path style="fill:none;stroke:#263238;stroke-linecap:round;stroke-linejoin:round;stroke-miterlimit:10;" d="M356.924,292.909
				c0,0-2.175-0.87-2.828-0.544c-0.652,0.326-8.374,3.915-8.809,4.459c-0.435,0.544-0.979,1.414-0.979,1.414"/>
			<path style="fill:none;stroke:#263238;stroke-linecap:round;stroke-linejoin:round;stroke-miterlimit:10;" d="M342.243,295.736
				c0,0,1.305-1.74,2.61-2.501c1.305-0.761,5.873-2.501,6.416-2.719c0.544-0.217,2.61,0,2.61,0"/>
			<path style="fill:none;stroke:#263238;stroke-linecap:round;stroke-linejoin:round;stroke-miterlimit:10;" d="M350.508,288.559
				c0,0-8.7,3.154-9.244,3.915c-0.544,0.761-0.544,0.761-0.544,0.761"/>
		</g>
		<g>
			<path style="fill:#A3A3A3;stroke:#263238;stroke-linecap:round;stroke-linejoin:round;stroke-miterlimit:10;" d="
				M342.092,306.592c0,0,8.324-5.888,11.978-7.512c3.654-1.624,11.166,1.421,12.587,3.248s3.248,10.557,3.045,17.054
				c-0.203,6.497-0.406,9.339-4.872,10.76c-4.466,1.421-10.557,2.233-11.166,2.436c-0.609,0.203-1.218-12.181-5.076-18.881
				C344.731,306.998,342.092,306.592,342.092,306.592z"/>
			<path style="fill:#A3A3A3;stroke:#263238;stroke-linecap:round;stroke-linejoin:round;stroke-miterlimit:10;" d="
				M331.535,310.653c0,0,2.03,23.145,3.654,25.987c1.624,2.842,5.685,2.233,9.948,1.218c4.263-1.015,10.557-2.436,10.76-3.857
				c0.203-1.421,0-15.024-2.233-20.708c-2.233-5.685-6.091-9.745-9.136-8.933C341.483,305.171,331.535,307.201,331.535,310.653z"/>
		</g>
		<path style="fill:#FFFFFF;stroke:#263238;stroke-linecap:round;stroke-linejoin:round;stroke-miterlimit:10;" d="M312.764,348.768
			l24.797-21.326l-10.415-6.943l-19.838,8.762C307.308,329.261,312.598,343.313,312.764,348.768z"/>
		<g>
			<path style="fill:#A3A3A3;stroke:#263238;stroke-linecap:round;stroke-linejoin:round;stroke-miterlimit:10;" d="
				M300.696,360.505c0,0,2.645,0,6.282-2.976c3.637-2.976,6.943-4.96,5.951-13.391c-0.992-8.431-5.125-21.326-7.108-22.979
				c-1.984-1.653-14.713,0.331-15.044,1.157s10.084,15.87,10.911,24.632C302.514,355.711,300.696,360.505,300.696,360.505z"/>
			<path style="fill:#A3A3A3;stroke:#263238;stroke-linecap:round;stroke-linejoin:round;stroke-miterlimit:10;" d="
				M257.052,276.195c0,0-1.864-3.569-4.899-0.462c-3.036,3.107-4.689,11.869-2.54,22.449c2.149,10.58,8.1,54.884,10.415,60.34
				c2.314,5.455,4.464,10.58,8.596,10.745c4.133,0.165,17.689-1.653,26.946-5.29c9.258-3.637,8.762-14.548,5.621-23.971
				c-3.141-9.423-8.927-17.193-12.399-19.507c-3.472-2.315-5.29-5.29-8.927-12.068c-3.637-6.778-11.903-23.971-14.217-26.45"/>
			<path style="fill:none;stroke:#263238;stroke-linecap:round;stroke-linejoin:round;stroke-miterlimit:10;" d="M273.2,337.941
				c-0.831,0.761-1.693,1.448-2.575,2.025"/>
			<path style="fill:none;stroke:#263238;stroke-linecap:round;stroke-linejoin:round;stroke-miterlimit:10;" d="M283.385,323.677
				c0,0-3.328,6.815-8.047,12.09"/>
		</g>
		<g>
			<path style="fill:#FFFFFF;stroke:#263238;stroke-linecap:round;stroke-linejoin:round;stroke-miterlimit:10;" d="
				M336.073,313.225c0,0-24.301,2.314-30.583,2.149c-6.282-0.165-15.209-3.472-15.209-3.472s-10.746-4.464-13.06-5.621
				s-7.77-1.157-9.258-0.496c-1.488,0.661-4.794,3.306-4.298,4.96c0.496,1.653,2.48,0.496,3.472-0.331
				c0.992-0.826,2.645-1.488,2.645-1.488l5.29,1.157l0.992,1.323c0,0-7.274,1.323-8.266,1.819c-0.992,0.496-3.802,6.778-4.298,8.1
				c-0.496,1.322,0,1.157,0.992,1.157c0.992,0,0.992,0,0.992,0s-0.496,2.645,0.496,2.976c0.992,0.331,2.314-0.331,2.314-0.331
				s1.157,1.157,1.653,1.157c0.496,0,5.621-2.81,6.447-3.306c0.827-0.496,7.935,0.992,9.754,0.992c1.819,0,8.762-0.165,8.762-0.165
				s33.394,9.588,37.857,10.25c4.464,0.661,7.439,0.496,9.092-4.464C343.512,324.632,339.875,313.887,336.073,313.225z"/>
			<path style="fill:none;stroke:#263238;stroke-linecap:round;stroke-linejoin:round;stroke-miterlimit:10;" d="M268.294,325.128
				c0,0,4.464-4.96,5.621-5.621c1.157-0.661,3.472-1.488,3.472-1.488"/>
			<polyline style="fill:none;stroke:#263238;stroke-linecap:round;stroke-linejoin:round;stroke-miterlimit:10;" points="
				265.483,322.483 270.112,317.027 275.072,315.044 			"/>
		</g>
	</g>
</g>
<g id="Character_1">
	<path style="fill:none;stroke:#263238;stroke-linecap:round;stroke-linejoin:round;stroke-miterlimit:10;" d="M147.148,180.058
		c0,0,1.357,0.814,3.529,1.629c2.172,0.814,7.602,2.715,10.045,5.43c2.443,2.715,1.629,9.231,1.629,9.231"/>
	
		<line style="fill:none;stroke:#263238;stroke-linecap:round;stroke-linejoin:round;stroke-miterlimit:10;" x1="116.153" y1="202.644" x2="114.026" y2="207.207"/>
	<g>
		<path style="fill:#92E3A9;stroke:#263238;stroke-linecap:round;stroke-linejoin:round;stroke-miterlimit:10;" d="M99.007,188.313
			c0,0-1.481,6.994-2.977,8.597c-1.496,1.603-3.873,3.497-3.084,6.994c0.789,3.497,5.399,5.683,5.385,6.266
			c-0.014,0.583-8.358,2.186-8.131,4.808c0.228,2.623,2.481,5.828,2.481,5.828s-6.169,2.04-6.691,5.537
			c-0.522,3.497,1.579,6.994,1.547,8.305c-0.032,1.311-3.745,4.226-2.636,6.557c1.109,2.331,3.739,2.04,3.874,2.477
			c0.135,0.437-1.514,2.331-1.542,3.497c-0.028,1.166,0.821,2.186,0.821,2.186h49.25l-13.969-72.855l-18.533,7.14L99.007,188.313z"
			/>
		<path style="fill:#FFFFFF;stroke:#263238;stroke-linecap:round;stroke-linejoin:round;stroke-miterlimit:10;" d="M165.726,353.646
			c0,0,10.158,23.118,11.491,28.792c1.334,5.674,1.966,30.934-0.149,40.772c-3.851,17.914-14.887,34.887-14.887,34.887h-55.944
			l-11.536-53.866l16.848-52.477L165.726,353.646z"/>
		<polyline style="fill:none;stroke:#263238;stroke-linecap:round;stroke-linejoin:round;stroke-miterlimit:10;" points="
			156.448,398.201 151.739,410.391 153.982,457.837 		"/>
		<g>
			<path style="fill:#FFFFFF;stroke:#263238;stroke-linecap:round;stroke-linejoin:round;stroke-miterlimit:10;" d="
				M164.837,338.304c0,0,9.884,8.407,11.068,11.559c1.185,3.152,1.941,23.959,2.484,27.532c0.544,3.573-1.85,6.935-1.85,6.935
				l-8.522-21.227c0,0-0.821-9.457-1.016-10.088c-0.195-0.63-1.754-5.674-1.754-5.674L164.837,338.304z"/>
			<path style="fill:#FFFFFF;stroke:#263238;stroke-linecap:round;stroke-linejoin:round;stroke-miterlimit:10;" d="
				M172.984,357.639c0,0,0.118,3.783,0.472,6.515c0.354,2.732,1.493,7.776-0.85,9.037"/>
		</g>
		<g>
			<path style="fill:#92E3A9;stroke:#263238;stroke-linecap:round;stroke-linejoin:round;stroke-miterlimit:10;" d="
				M128.969,248.774l13.44,0.42l9.608,0.316l11.174,9.352c0,0,9.376,46.656,10.145,49.599c0.769,2.942-7.963,25.01-8.644,27.111
				c-0.682,2.102,1.033,18.074,1.033,18.074s-4.3,3.993-18.217,5.885c-13.917,1.892-29.957-3.993-29.957-3.993
				s10.551-27.742,12.804-42.663c0,0,1.96-28.793,1.318-36.989C131.032,267.689,128.969,248.774,128.969,248.774z"/>
			
				<line style="fill:none;stroke:#263238;stroke-linecap:round;stroke-linejoin:round;stroke-miterlimit:10;" x1="162.496" y1="317.832" x2="140.738" y2="328.869"/>
			
				<line style="fill:none;stroke:#263238;stroke-linecap:round;stroke-linejoin:round;stroke-miterlimit:10;" x1="161.235" y1="321.616" x2="151.144" y2="326.661"/>
		</g>
		<g>
			<g>
				<path style="fill:#FFFFFF;stroke:#263238;stroke-linecap:round;stroke-linejoin:round;stroke-miterlimit:10;" d="
					M125.287,233.324c0,0,8.084,27.988,9.13,32.943c1.046,4.954,11.395,10.783,17.738,7.577c6.343-3.206,4.306-9.325,3.232-13.114
					c-1.074-3.788-3.37-11.22-3.37-11.22l2.446-22.731c0,0-7.679,10.2-10.476,11.365
					C141.191,239.311,125.287,233.324,125.287,233.324z"/>
			</g>
			<polygon style="fill:#263238;stroke:#263238;stroke-linecap:round;stroke-linejoin:round;stroke-miterlimit:10;" points="
				140.412,240.688 151.005,250.91 153.607,228.98 			"/>
			
				<line style="fill:none;stroke:#263238;stroke-linecap:round;stroke-linejoin:round;stroke-miterlimit:10;" x1="151.377" y1="249.795" x2="150.82" y2="259.83"/>
		</g>
		<path style="fill:#263238;stroke:#263238;stroke-linecap:round;stroke-linejoin:round;stroke-miterlimit:10;" d="M152.09,247.199
			c0,0,14.97,42.767,16.627,52.435c1.657,9.668,2.026,11.769,2.155,15.132c0.128,3.363-2.572,10.718-2.572,10.718
			s10.614-13.03,10.679-24.379c0.065-11.349-7.644-45.63-11.242-47.707C153.435,245.139,152.09,247.199,152.09,247.199z"/>
		<path style="fill:none;stroke:#A3A3A3;stroke-linecap:round;stroke-linejoin:round;stroke-miterlimit:10;" d="M165.987,268.307
			c0,0,6.571,19.175,5.518,33.562"/>
		<path style="fill:#92E3A9;stroke:#263238;stroke-linecap:round;stroke-linejoin:round;stroke-miterlimit:10;" d="M115.193,199.824
			l6.79-9.617l31.427,31.91c0,0-1.91,18.651-1.924,19.234c-0.014,0.583,1.948,3.788,1.948,3.788s0.856,0.729,1.56,1.749
			c0.704,1.02-0.025,1.02-0.206,2.477c-0.181,1.457,0.821,2.186,1.532,2.914c0.711,0.729,2.442,1.457,3.447,2.04
			c1.006,0.583,0.1,1.894-0.661,3.206c-0.76,1.311-1.84,3.788-0.593,6.411c1.248,2.623,1.987,2.186,4.123,4.225
			c2.136,2.04-0.97,3.934-0.97,3.934s1.613-0.437,2.935-0.874c1.322-0.437,1.94-1.894,1.382-2.914
			c-0.558-1.02-1.643-4.371-1.191-4.954c0.451-0.583,4.581-2.623,5.785-4.226c1.205-1.603-0.1-1.894,0.934-2.477
			c1.034-0.583,3.106-1.894,3.592-3.934c0.487-2.04-1.93-4.517-1.184-5.245c0.746-0.729,3.548-5.215,3.58-6.526
			c0.032-1.311-1.629-3.529-1.629-3.529s1.083-0.872,1.768-5.098c0.685-4.226-2.634-5.537-2.869-7.868
			c-0.235-2.331,3.194-5.537,3.247-13.697c0.052-8.16-13.439-10.637-13.851-11.657c-0.412-1.02,0.064-2.623-0.175-4.808
			c-0.238-2.186-5.538-5.974-5.538-5.974s0.636-2.186,1.108-3.643c0.473-1.457-0.224-2.768-2.79-5.1
			c-2.566-2.331-14.978-13.26-20.195-14.425c-5.217-1.166-13.952,4.517-14.986,5.1c-1.034,0.583-9.29-1.457-11.817,0.583
			c-2.527,2.04-3.34,5.537-3.958,6.994c-0.618,1.457-2.804,1.457-4.151,2.914c-1.347,1.457-3.549,14.134-3.549,14.134"/>
		<path style="fill:#263238;stroke:#263238;stroke-linecap:round;stroke-linejoin:round;stroke-miterlimit:10;" d="M128.125,244.046
			c0,0,15.213,53.487,15.886,60.422c0.672,6.935-23.127,52.331-27.98,61.788c-4.853,9.457-15.43,38.25-17.14,48.128
			c-1.711,9.878-3.047,21.647-3.047,21.647s-12.672-6.095-20.951-11.349c-8.279-5.254-9.679-8.196-9.023-9.247
			c0.656-1.051,4.125-14.081,4.125-14.081s-7.162-7.986-6.721-8.827c0.441-0.841,16.719-56.744,16.719-56.744
			s4.284-89.95,5.965-89.95C87.638,245.832,128.125,244.046,128.125,244.046z"/>
		
			<line style="fill:none;stroke:#A3A3A3;stroke-linecap:round;stroke-linejoin:round;stroke-miterlimit:10;" x1="126.59" y1="269.586" x2="144.011" y2="304.468"/>
		<path style="fill:#263238;stroke:#263238;stroke-linecap:round;stroke-linejoin:round;stroke-miterlimit:10;" d="M96.03,246.462
			c0,0-12.549-2.522-14.732,0.841c-2.183,3.363-21.429,60.317-22.607,65.571s34.867,44.134,34.867,44.134l18.585-12.4
			l-21.948-30.894l11.999-44.134"/>
		<polyline style="fill:none;stroke:#A3A3A3;stroke-linecap:round;stroke-linejoin:round;stroke-miterlimit:10;" points="
			99.042,283.297 90.083,310.989 110.128,341.036 		"/>
		
			<line style="fill:none;stroke:#A3A3A3;stroke-linecap:round;stroke-linejoin:round;stroke-miterlimit:10;" x1="101.486" y1="274.609" x2="100.202" y2="278.705"/>
		<polygon style="fill:#FFFFFF;stroke:#263238;stroke-linecap:round;stroke-linejoin:round;stroke-miterlimit:10;" points="
			110.128,341.036 89.964,357.849 96.701,366.046 117.905,349.653 		"/>
		<path style="fill:#FFFFFF;stroke:#263238;stroke-linecap:round;stroke-linejoin:round;stroke-miterlimit:10;" d="M116.413,350.494
			c0,0,16.785,18.494,18.656,19.335c1.871,0.841,5.557,4.834,6.562,6.725c1.005,1.891,2.415,4.413,3.861,5.464
			c1.446,1.051,1.625,2.312-0.912,2.942c-2.537,0.63-4.854,0.841-6.254-2.102s-3.645-5.674-3.645-5.674l-14.341,10.718
			c0,0-3.087-11.349-3.451-13.661c-0.364-2.312-1.113-6.095-1.113-6.095l-9.653-9.247L116.413,350.494z"/>
		<g>
			<path style="fill:#92E3A9;stroke:#263238;stroke-linecap:round;stroke-linejoin:round;stroke-miterlimit:10;" d="M92.896,231.151
				c0,0-1.392,9.323-0.595,12.531c0.843,3.395,7.674,2.786,6.273,7.294c-0.451,1.453-2.217,3.003-1.664,4.652
				c0.566,1.689,2.789,1.785,4.023,2.744c2.269,1.763,1.457,3.654,2.228,6.148c0.558,1.804,2.477,2.427,2.997,3.857
				c0.616,1.694-0.566,2.752,1.314,4.593c3.274,3.206,5.736,3.789,6.181,3.497c0.444-0.291-0.412-1.02,1.652-2.04
				c2.065-1.02,6.045-2.914,5.355-4.517c-0.679-1.578-1.358-3.155-1.374-3.194c0.961,2.213,3.945-0.021,4.761-1.187
				c1.861-2.659-0.986-5.521-0.653-8.395c0.369-3.183,3.954-4.824,4.355-8.032c0.393-3.142-2.87-5.306-2.16-8.189
				c0.323-1.311,0.504-2.768,0.504-2.768s-0.949-2.914-2.382-3.934c-1.432-1.02-1.916-5.1-2.027-6.557"/>
			<path style="fill:#FFFFFF;stroke:#000000;stroke-linecap:round;stroke-linejoin:round;stroke-miterlimit:10;" d="
				M119.108,184.951c0,0-11.78,17.128-10.879,20.752c0.9,3.623,9.889,26.846,12.963,29.151c3.073,2.306,15.458,7.741,19.572,7.905
				c4.113,0.165,7.118-1.482,8.833-4.282c1.715-2.8,8.249-14.164,8.309-16.634c0.06-2.471-5.213-26.18-6.193-26.509
				C150.731,195.004,119.108,184.951,119.108,184.951z"/>
			<path style="fill:none;stroke:#263238;stroke-linecap:round;stroke-linejoin:round;stroke-miterlimit:10;" d="M137.109,203.148
				c0,0-0.339,4.571,0.082,6.057s4.291,6.857,4.383,7.771c0.092,0.914-1.416,1.829-3.492,2.629"/>
			<path style="fill:#FFFFFF;stroke:#263238;stroke-linecap:round;stroke-linejoin:round;stroke-miterlimit:10;" d="
				M110.527,212.784c0,0-2.579-2.306-3.965,0.494c-1.385,2.8-0.325,6.588,4.046,9.717c4.371,3.129,5.359,3.129,5.359,3.129
				L110.527,212.784z"/>
			<path style="fill:#FFFFFF;stroke:#263238;stroke-linecap:round;stroke-linejoin:round;stroke-miterlimit:10;" d="
				M153.628,201.255c0,0,2.334-1.153,3.415,1.812c1.081,2.964-0.585,10.541-0.585,10.541L153.628,201.255z"/>
			<path style="fill:#FFFFFF;stroke:#263238;stroke-linecap:round;stroke-linejoin:round;stroke-miterlimit:10;" d="
				M131.291,225.593c0,0,7.608-0.575,9.471-1.496c1.863-0.92,5.115-4.672,5.115-4.672s-0.008,8.243-4.024,9.656
				C139.031,230.073,131.291,225.593,131.291,225.593z"/>
			<path style="fill:#FFFFFF;stroke:#263238;stroke-linecap:round;stroke-linejoin:round;stroke-miterlimit:10;" d="M118.83,207.605
				c0,0,0.563-4.343,8.125-5.143"/>
			<path style="fill:#FFFFFF;stroke:#263238;stroke-linecap:round;stroke-linejoin:round;stroke-miterlimit:10;" d="
				M136.997,199.411c0,0,4.644-4.035,9.667,0.88"/>
			<path style="fill:#263238;" d="M128.213,209.813c0.398,1.341-0.03,2.667-0.957,2.962c-0.927,0.295-2.001-0.552-2.399-1.893
				c-0.398-1.341,0.03-2.667,0.957-2.963C126.74,207.625,127.814,208.472,128.213,209.813z"/>
			<path style="fill:#263238;" d="M143.76,205.506c0.398,1.341-0.03,2.667-0.957,2.962c-0.927,0.295-2-0.552-2.399-1.893
				c-0.398-1.341,0.03-2.667,0.957-2.962C142.288,203.318,143.362,204.165,143.76,205.506z"/>
		</g>
	</g>
</g>
<g id="Line">
	<g>
		
			<line style="fill:none;stroke:#263238;stroke-linecap:round;stroke-linejoin:round;stroke-miterlimit:10;" x1="464.791" y1="458.098" x2="17.026" y2="458.098"/>
		
			<line style="fill:none;stroke:#263238;stroke-linecap:round;stroke-linejoin:round;stroke-miterlimit:10;" x1="488.566" y1="458.098" x2="471.924" y2="458.098"/>
	</g>
</g>
</svg>
