<?xml version="1.0" encoding="utf-8"?>
<!-- Generator: Adobe Illustrator 27.5.0, SVG Export Plug-In . SVG Version: 6.00 Build 0)  -->
<svg version="1.1" xmlns="http://www.w3.org/2000/svg" xmlns:xlink="http://www.w3.org/1999/xlink" x="0px" y="0px"
	 viewBox="0 0 500 500" style="enable-background:new 0 0 500 500;" xml:space="preserve">
<g id="Background_Simple">
	<g>
		<path style="opacity:0.7;fill:#FFFFFF;" d="M67.931,167.086c0,0-27.877,71.988,11.297,144.503
			c39.174,72.516,119.879,110.802,184.469,143.548c64.59,32.746,131.661,16.799,163.534-36.838
			c31.873-53.637-11.845-91.928-11.897-168.418c-0.051-76.49,11.447-96.742-29.963-161.364
			c-41.41-64.623-143.059-78.925-219.9-30.996C88.631,105.45,67.931,167.086,67.931,167.086z"/>
	</g>
	<g>
		<path style="fill:#92E3A9;" d="M132.044,427.572c23.6,24.915,81.54,15.79,106.636,0
			c81.459-51.255,224.245-136.568,230.708-260.168c2.747-52.536-43.577-80.121-62.933-88.214
			c-46.482-19.435-97.477-25.269-147.808-27.52c-52.571-2.351-108.963-0.52-156.311,25.129
			c-17.934,9.715-34.853,22.175-46.435,39.184c-11.765,17.278-18.534,37.854-20.33,58.623c-2.896,33.501,6.117,67.092,19.746,97.832
			s31.805,59.203,48.487,88.399C114.688,379.886,112.161,406.582,132.044,427.572z"/>
		<path style="opacity:0.7;fill:#FFFFFF;" d="M132.044,427.572c23.6,24.915,81.54,15.79,106.636,0
			c81.459-51.255,224.245-136.568,230.708-260.168c2.747-52.536-43.577-80.121-62.933-88.214
			c-46.482-19.435-97.477-25.269-147.808-27.52c-52.571-2.351-108.963-0.52-156.311,25.129
			c-17.934,9.715-34.853,22.175-46.435,39.184c-11.765,17.278-18.534,37.854-20.33,58.623c-2.896,33.501,6.117,67.092,19.746,97.832
			s31.805,59.203,48.487,88.399C114.688,379.886,112.161,406.582,132.044,427.572z"/>
	</g>
</g>
<g id="Graphics">
	<g>
		<g>
			<path style="fill:none;stroke:#263238;stroke-miterlimit:10;" d="M130.232,175.083l-47.8-14.485
				c-1.855-0.562-2.904-2.522-2.341-4.378l8.529-28.145c0.562-1.855,2.522-2.904,4.378-2.341l47.8,14.485
				c1.855,0.562,2.904,2.522,2.341,4.377l-8.529,28.145C134.047,174.596,132.087,175.645,130.232,175.083z"/>
			<line style="fill:none;stroke:#263238;stroke-miterlimit:10;" x1="87.176" y1="132.837" x2="141.695" y2="149.357"/>
			<line style="fill:none;stroke:#263238;stroke-miterlimit:10;" x1="85.517" y1="138.312" x2="140.036" y2="154.833"/>
			<path style="fill:none;stroke:#263238;stroke-miterlimit:10;" d="M123.453,165.062c-0.293,0.967-0.155,1.959,0.307,2.779
				c-0.777,0.391-1.717,0.493-2.626,0.218c-1.876-0.568-2.939-2.542-2.371-4.417c0.568-1.876,2.551-2.936,4.427-2.368
				c0.909,0.276,1.632,0.892,2.061,1.648C124.411,163.346,123.745,164.095,123.453,165.062z"/>
			<path style="fill:none;stroke:#263238;stroke-miterlimit:10;" d="M130.242,167.115c-0.568,1.874-2.548,2.934-4.423,2.366
				c-1.875-0.568-2.934-2.548-2.366-4.423c0.568-1.875,2.548-2.934,4.423-2.366C129.75,163.261,130.809,165.241,130.242,167.115z"/>
		</g>
		<g>
			<path style="fill:none;stroke:#263238;stroke-miterlimit:10;" d="M458.154,238.4l-39.648-12.014
				c-1.855-0.562-2.904-2.522-2.341-4.378l6.949-22.932c0.562-1.855,2.522-2.904,4.377-2.341l39.648,12.014
				c1.855,0.562,2.904,2.522,2.341,4.378l-6.949,22.932C461.969,237.914,460.009,238.962,458.154,238.4z"/>
			<line style="fill:none;stroke:#263238;stroke-miterlimit:10;" x1="422.038" y1="202.623" x2="468.405" y2="216.673"/>
			<line style="fill:none;stroke:#263238;stroke-miterlimit:10;" x1="420.627" y1="207.28" x2="466.994" y2="221.33"/>
			<path style="fill:none;stroke:#263238;stroke-miterlimit:10;" d="M452.891,230.03c-0.249,0.822-0.132,1.666,0.261,2.363
				c-0.661,0.333-1.46,0.419-2.233,0.185c-1.595-0.483-2.5-2.162-2.016-3.757c0.483-1.595,2.17-2.497,3.765-2.014
				c0.773,0.234,1.388,0.758,1.753,1.402C453.706,228.571,453.14,229.208,452.891,230.03z"/>
			<path style="fill:none;stroke:#263238;stroke-miterlimit:10;" d="M458.664,231.776c-0.483,1.594-2.167,2.495-3.761,2.012
				c-1.594-0.483-2.495-2.167-2.012-3.761c0.483-1.594,2.167-2.495,3.761-2.012C458.246,228.498,459.147,230.182,458.664,231.776z"
				/>
		</g>
		<g>
			
				<rect x="349.796" y="110.955" transform="matrix(0.9092 -0.4163 0.4163 0.9092 -18.4413 170.4548)" style="fill:none;stroke:#263238;stroke-miterlimit:10;" width="63.665" height="33.116"/>
			<path style="fill:none;stroke:#263238;stroke-miterlimit:10;" d="M412.488,124.953l-8.76-19.131
				c-1.705,0.781-3.719,0.031-4.5-1.673l-46.786,21.423c0.781,1.705,0.031,3.719-1.673,4.5l8.76,19.13
				c1.705-0.781,3.719-0.031,4.5,1.673l46.786-21.423C410.034,127.749,410.783,125.734,412.488,124.953z"/>
			
				<ellipse transform="matrix(0.793 -0.6092 0.6092 0.793 1.3123 258.888)" style="fill:none;stroke:#263238;stroke-miterlimit:10;" cx="381.629" cy="127.513" rx="8.703" ry="8.703"/>
			<g>
				<path style="fill:#263238;" d="M383.99,131.74l0.651,1.421l-0.618,0.283l-0.645-1.409c-1.24,0.493-2.581,0.568-3.47,0.228
					l0.036-0.869c0.823,0.296,2.005,0.264,3.072-0.15l-1.489-3.251c-1.513,0.289-3.09,0.503-3.837-1.129
					c-0.543-1.187-0.16-2.603,1.663-3.618l-0.651-1.422l0.618-0.283l0.645,1.409c0.944-0.387,1.995-0.54,2.86-0.382l0.025,0.871
					c-0.896-0.128-1.795,0-2.529,0.29l1.5,3.276c1.549-0.306,3.202-0.584,3.96,1.073C386.332,129.277,385.905,130.729,383.99,131.74
					z M381.131,127.128l-1.415-3.09c-1.222,0.694-1.492,1.61-1.135,2.389C379.012,127.366,379.998,127.332,381.131,127.128z
					 M384.903,128.541c-0.447-0.976-1.502-0.897-2.684-0.67l1.415,3.09C384.948,130.24,385.265,129.332,384.903,128.541z"/>
			</g>
		</g>
		<g>
			
				<rect x="39.581" y="237.714" transform="matrix(0.9963 -0.0861 0.0861 0.9963 -21.2427 6.2527)" style="fill:none;stroke:#263238;stroke-miterlimit:10;" width="44.508" height="23.151"/>
			<path style="fill:none;stroke:#263238;stroke-miterlimit:10;" d="M82.753,254.863l-1.267-14.655
				c-1.306,0.113-2.456-0.854-2.569-2.16l-35.84,3.099c0.113,1.306-0.854,2.456-2.16,2.569l1.267,14.655
				c1.306-0.113,2.456,0.854,2.569,2.16l35.84-3.099C80.48,256.126,81.448,254.976,82.753,254.863z"/>
			<path style="fill:none;stroke:#263238;stroke-miterlimit:10;" d="M67.897,248.765c0.289,3.348-2.19,6.296-5.538,6.586
				c-3.348,0.289-6.297-2.19-6.586-5.538c-0.29-3.348,2.19-6.297,5.538-6.586C64.659,242.938,67.608,245.417,67.897,248.765z"/>
			<g>
				<path style="fill:#263238;" d="M62.396,252.627l0.094,1.089l-0.473,0.041l-0.093-1.079c-0.932,0.033-1.833-0.233-2.338-0.666
					l0.228-0.563c0.472,0.389,1.258,0.645,2.058,0.623l-0.215-2.49c-1.064-0.166-2.152-0.396-2.26-1.646
					c-0.079-0.909,0.507-1.751,1.946-1.99l-0.094-1.089l0.473-0.041l0.093,1.079c0.713-0.033,1.441,0.114,1.973,0.421l-0.188,0.579
					c-0.56-0.295-1.181-0.422-1.733-0.404l0.217,2.51c1.092,0.163,2.245,0.369,2.355,1.638
					C64.517,251.557,63.894,252.412,62.396,252.627z M61.598,248.919l-0.205-2.367c-0.968,0.17-1.361,0.709-1.309,1.306
					C60.147,248.577,60.805,248.787,61.598,248.919z M63.749,250.736c-0.065-0.748-0.778-0.944-1.609-1.072l0.205,2.367
					C63.379,251.865,63.801,251.342,63.749,250.736z"/>
			</g>
		</g>
		<g>
			<circle style="fill:none;stroke:#263238;stroke-miterlimit:10;" cx="444.331" cy="104.012" r="8.703"/>
			<g>
				<path style="fill:#263238;" d="M444.719,108.839v1.563h-0.68v-1.55c-1.333-0.068-2.583-0.558-3.25-1.237l0.395-0.775
					c0.625,0.612,1.713,1.074,2.855,1.142v-3.576c-1.496-0.367-3.019-0.829-3.019-2.624c0-1.305,0.938-2.434,3.019-2.597v-1.563
					h0.68v1.55c1.02,0.041,2.039,0.34,2.76,0.843l-0.34,0.802c-0.762-0.489-1.632-0.747-2.42-0.788v3.603
					c1.536,0.367,3.154,0.802,3.154,2.624C447.873,107.575,446.88,108.717,444.719,108.839z M444.039,103.455v-3.399
					c-1.4,0.123-2.026,0.843-2.026,1.7C442.013,102.789,442.924,103.169,444.039,103.455z M446.88,106.31
					c0-1.074-0.992-1.441-2.161-1.727v3.399C446.214,107.873,446.88,107.18,446.88,106.31z"/>
			</g>
		</g>
		<g>
			
				<ellipse transform="matrix(0.9733 -0.2294 0.2294 0.9733 -38.3454 93.9769)" style="fill:none;stroke:#263238;stroke-miterlimit:10;" cx="385.042" cy="211.92" rx="8.703" ry="8.703"/>
			<g>
				<path style="fill:#263238;" d="M382.845,216.235l-0.819,1.332l-0.579-0.356l0.811-1.32c-1.1-0.756-1.909-1.828-2.121-2.756
					l0.742-0.453c0.212,0.848,0.897,1.812,1.835,2.468l1.872-3.046c-1.082-1.096-2.137-2.287-1.198-3.816
					c0.684-1.112,2.074-1.582,3.931-0.631l0.819-1.332l0.579,0.356l-0.811,1.32c0.847,0.569,1.559,1.357,1.909,2.164l-0.709,0.505
					c-0.393-0.816-0.999-1.491-1.649-1.939l-1.887,3.069c1.116,1.117,2.267,2.335,1.313,3.887
					C386.194,216.81,384.75,217.263,382.845,216.235z M385.085,211.293l1.78-2.896c-1.257-0.629-2.168-0.343-2.616,0.387
					C383.708,209.664,384.285,210.465,385.085,211.293z M386.01,215.213c0.562-0.915-0.091-1.747-0.937-2.603l-1.78,2.896
					C384.624,216.196,385.555,215.954,386.01,215.213z"/>
			</g>
		</g>
		<g>
			<path style="fill:none;stroke:#263238;stroke-miterlimit:10;" d="M260.183,43.987c1.998,4.372,0.073,9.535-4.299,11.533
				c-4.372,1.998-9.535,0.073-11.533-4.299c-1.998-4.372-0.073-9.536,4.299-11.533C253.022,37.69,258.186,39.615,260.183,43.987z"/>
			<g>
				<path style="fill:#263238;" d="M254.626,51.833l0.65,1.422l-0.618,0.283l-0.644-1.41c-1.241,0.492-2.581,0.566-3.47,0.225
					l0.037-0.869c0.823,0.297,2.004,0.265,3.072-0.148l-1.486-3.252c-1.513,0.288-3.09,0.5-3.836-1.132
					c-0.542-1.187-0.158-2.604,1.666-3.616l-0.65-1.422l0.618-0.283l0.644,1.41c0.944-0.386,1.996-0.538,2.861-0.38l0.024,0.87
					c-0.896-0.128-1.795-0.002-2.529,0.289l1.497,3.277c1.55-0.304,3.202-0.581,3.96,1.076
					C256.969,49.372,256.541,50.823,254.626,51.833z M251.77,47.218l-1.413-3.091c-1.223,0.694-1.493,1.609-1.137,2.388
					C249.65,47.455,250.637,47.422,251.77,47.218z M255.54,48.634c-0.446-0.977-1.501-0.898-2.683-0.672l1.412,3.091
					C255.584,50.333,255.902,49.426,255.54,48.634z"/>
			</g>
		</g>
		<g>
			<path style="fill:none;stroke:#263238;stroke-miterlimit:10;" d="M230.879,396.329c3,6.565,0.11,14.319-6.456,17.319
				c-6.565,3-14.319,0.109-17.319-6.456c-3-6.565-0.109-14.319,6.456-17.319C220.126,386.874,227.88,389.764,230.879,396.329z"/>
			<g>
				<path style="fill:#263238;" d="M222.534,408.111l0.976,2.135l-0.928,0.424l-0.967-2.117c-1.863,0.739-3.876,0.85-5.211,0.338
					l0.055-1.305c1.235,0.446,3.01,0.398,4.613-0.222l-2.231-4.884c-2.273,0.432-4.64,0.751-5.76-1.7
					c-0.815-1.783-0.237-3.91,2.502-5.43l-0.976-2.135l0.928-0.424l0.967,2.117c1.418-0.58,2.997-0.808,4.296-0.571l0.036,1.307
					c-1.346-0.193-2.695-0.003-3.797,0.433l2.248,4.921c2.327-0.457,4.809-0.873,5.946,1.615
					C226.053,404.415,225.409,406.595,222.534,408.111z M218.245,401.181l-2.121-4.642c-1.836,1.041-2.242,2.416-1.707,3.586
					C215.062,401.536,216.544,401.487,218.245,401.181z M223.907,403.308c-0.67-1.466-2.254-1.349-4.029-1.009l2.121,4.642
					C223.973,405.859,224.45,404.496,223.907,403.308z"/>
			</g>
		</g>
		<g>
			<path style="fill:none;stroke:#263238;stroke-miterlimit:10;" d="M43.655,193.226c-5.422,4.764-13.68,4.23-18.444-1.192
				c-4.764-5.422-4.23-13.68,1.192-18.444c5.422-4.764,13.68-4.23,18.444,1.192C49.612,180.204,49.078,188.462,43.655,193.226z"/>
			<g>
				<path style="fill:#263238;" d="M29.969,188.629l-1.764,1.55l-0.674-0.767l1.748-1.536c-1.245-1.571-1.931-3.467-1.825-4.893
					l1.265-0.323c-0.071,1.311,0.486,2.997,1.542,4.353l4.034-3.544c-1.069-2.052-2.056-4.227-0.032-6.006
					c1.472-1.294,3.676-1.353,5.921,0.832l1.764-1.55l0.674,0.767l-1.748,1.536c0.964,1.191,1.638,2.637,1.784,3.949l-1.241,0.411
					c-0.203-1.344-0.774-2.582-1.509-3.511l-4.065,3.571c1.108,2.097,2.221,4.354,0.166,6.159
					C34.521,190.934,32.249,190.946,29.969,188.629z M35.369,182.526l3.834-3.369c-1.526-1.458-2.959-1.451-3.926-0.601
					C34.112,179.58,34.586,180.985,35.369,182.526z M34.964,188.56c1.211-1.064,0.642-2.548-0.194-4.149l-3.834,3.369
					C32.54,189.359,33.982,189.423,34.964,188.56z"/>
			</g>
		</g>
		<g>
			<path style="fill:none;stroke:#263238;stroke-miterlimit:10;" d="M101.411,299.128c2.231,2.678,1.869,6.657-0.809,8.888
				c-2.678,2.231-6.657,1.869-8.888-0.809c-2.231-2.678-1.869-6.657,0.809-8.888C95.201,296.088,99.18,296.45,101.411,299.128z"/>
			<g>
				<path style="fill:#263238;" d="M99.019,305.677l0.726,0.871l-0.379,0.315L98.646,306c-0.774,0.581-1.698,0.888-2.385,0.819
					l-0.14-0.615c0.632,0.051,1.453-0.197,2.121-0.689l-1.66-1.992c-1.004,0.49-2.067,0.939-2.9-0.061
					c-0.606-0.727-0.607-1.791,0.476-2.848l-0.726-0.871l0.379-0.315l0.719,0.863c0.587-0.45,1.294-0.757,1.929-0.811l0.183,0.604
					c-0.651,0.081-1.256,0.341-1.714,0.684l1.672,2.007c1.026-0.508,2.13-1.017,2.975-0.002
					C100.189,303.509,100.166,304.606,99.019,305.677z M96.141,302.993l-1.578-1.894c-0.723,0.718-0.738,1.41-0.34,1.887
					C94.703,303.562,95.387,303.351,96.141,302.993z M99.049,303.265c-0.498-0.598-1.222-0.342-2.005,0.041l1.578,1.894
					C99.404,304.445,99.453,303.75,99.049,303.265z"/>
			</g>
		</g>
		<g>
			<path style="fill:none;stroke:#263238;stroke-miterlimit:10;" d="M297.585,429.168c2.231,2.678,1.869,6.657-0.809,8.888
				c-2.678,2.231-6.657,1.869-8.888-0.809c-2.231-2.678-1.869-6.657,0.809-8.888S295.354,426.491,297.585,429.168z"/>
			<g>
				<path style="fill:#263238;" d="M295.193,435.717l0.726,0.871l-0.379,0.315l-0.719-0.863c-0.774,0.581-1.698,0.888-2.385,0.819
					l-0.14-0.615c0.632,0.051,1.453-0.197,2.121-0.689l-1.66-1.992c-1.004,0.49-2.066,0.939-2.9-0.061
					c-0.606-0.727-0.607-1.791,0.477-2.848l-0.726-0.871l0.379-0.316l0.719,0.864c0.587-0.45,1.294-0.757,1.929-0.811l0.183,0.604
					c-0.651,0.081-1.256,0.341-1.714,0.684l1.672,2.007c1.026-0.508,2.13-1.017,2.975-0.002
					C296.363,433.549,296.34,434.646,295.193,435.717z M292.315,433.033l-1.578-1.894c-0.723,0.718-0.738,1.41-0.34,1.887
					C290.877,433.602,291.561,433.391,292.315,433.033z M295.223,433.305c-0.498-0.598-1.222-0.342-2.005,0.041l1.578,1.894
					C295.578,434.485,295.627,433.79,295.223,433.305z"/>
			</g>
		</g>
		<g>
			<path style="fill:none;stroke:#263238;stroke-miterlimit:10;" d="M123.459,65.068c2.231,2.678,1.869,6.657-0.809,8.888
				c-2.678,2.231-6.657,1.869-8.888-0.809c-2.231-2.678-1.869-6.657,0.809-8.888C117.248,62.028,121.228,62.39,123.459,65.068z"/>
			<g>
				<path style="fill:#263238;" d="M121.066,71.617l0.726,0.871l-0.379,0.315l-0.719-0.863c-0.774,0.581-1.698,0.888-2.385,0.819
					l-0.14-0.615c0.632,0.051,1.453-0.197,2.121-0.689l-1.66-1.992c-1.004,0.49-2.067,0.939-2.9-0.061
					c-0.606-0.727-0.607-1.791,0.477-2.848l-0.726-0.871l0.379-0.316l0.719,0.864c0.587-0.45,1.294-0.757,1.929-0.811l0.183,0.604
					c-0.652,0.081-1.256,0.341-1.714,0.684l1.672,2.007c1.026-0.508,2.13-1.017,2.975-0.002
					C122.237,69.449,122.213,70.546,121.066,71.617z M118.189,68.933l-1.578-1.894c-0.723,0.718-0.738,1.41-0.34,1.887
					C116.751,69.502,117.435,69.291,118.189,68.933z M121.096,69.205c-0.498-0.598-1.222-0.342-2.005,0.041l1.578,1.894
					C121.451,70.385,121.5,69.69,121.096,69.205z"/>
			</g>
		</g>
	</g>
</g>
<g id="Device">
	<g>
		<path style="opacity:0.2;fill-opacity:0.7;" d="M260.809,327.806c0,0-7.706,39.139-54.996,47.962c0,0-12.351,9.85-16.461,15.684
			c-4.11,5.834-26.036,15.742-48.304,46.656s-55.499-67.267-55.499-67.267l73.378-95.305L260.809,327.806z"/>
		<g>
			<path style="fill:#FFFFFF;" d="M302.842,144.075c0,0,25.501-12.464,31.112-10.312c5.61,2.152,10.966,15.046-10.456,27.398
				c-21.421,12.352-15.046,35.361-15.046,35.361h15.301c0,0,9.18,3.741,12.751,8.544c3.57,4.803,6.12,21.214,8.16,26.779
				c2.04,5.565,1.02,11.125-4.59,12.935c0,0-3.57,15.562-2.55,22.457c1.02,6.895,0.51,11.344-6.12,12.18
				c-6.63,0.836-13.261-4.794-12.751-12.18l-5.1,18.479l3.57,7.103c0,0,6.63,2.224,13.771,8.344
				c7.14,6.12,14.281,7.791,12.241,14.606c-2.04,6.815-6.12,14.17-27.542,5.647c-21.421-8.523-39.272-42-39.272-42l-12.868-116.739
				L302.842,144.075z"/>
			<path style="opacity:0.4;fill:#92E3A9;" d="M329.683,211.141c-11.563,15.762,1.227,33.906,1.227,33.906
				s-7.999,4.463-8.226,15.844c-0.091,4.727,1.1,11.344,2.518,17.462c-3.972-1.927-6.899-6.118-6.545-11.117l-5.109,18.48
				l3.572,7.099c0,0,4.745,1.591,10.517,5.781c-3.172,7.281-4.136,16.28-3.854,25.561c-2.4-0.618-5.118-1.509-8.19-2.736
				c-21.425-8.526-39.269-42.005-39.269-42.005l-12.871-116.742l39.387-18.598c0,0,13.935-6.808,23.47-9.499
				c-0.736,8.926,1.018,18.153,2.263,23.298c-1.491,1.1-3.182,2.2-5.072,3.29c-21.425,12.344-15.053,35.36-15.053,35.36h15.307
				c0,0,8.726,3.554,12.462,8.19C334.109,206.06,331.901,208.114,329.683,211.141z"/>
			<path style="fill:#FFFFFF;" d="M262.953,308.967c0,0-27.743,54.394-77.746,66.729c0,0-1.909,10.763-10.372,15.38
				c-4.518,2.463-22.752,29.797-38.769,54.74L47.44,391.449c5.463-5.399,11.681-11.617,18.043-18.107
				c18.498-18.862,38.232-40.05,44.277-50.458c5.399-9.299,12.226-25.443,18.18-40.614c7.617-19.398,13.817-37.223,13.817-37.223
				l29.561-32.86l46.477-51.667l2.009,6.608L262.953,308.967z"/>
			<path style="opacity:0.4;fill:#92E3A9;" d="M217.795,160.52l45.159,148.448c0,0-27.743,54.394-77.746,66.729
				c0,0-1.909,10.763-10.372,15.38c-4.054,2.209-19.162,24.461-33.787,47.031c5.418-18.598,21.116-48.249,21.116-48.249
				c-10.072-11.926-7.136-24.497-3.109-20.916c3.9,3.482,14.162,13.635,14.808,14.271c-4.454-5.245-5.481-13.453-5.481-13.453
				s12.48,8.299,13.489-5.036c1.009-13.335-7.481-45.795-7.481-45.795l-22.243-85.427L217.795,160.52z"/>
			<g>
				<path style="fill:none;stroke:#263238;stroke-linecap:round;stroke-linejoin:round;stroke-miterlimit:10;" d="M263.453,162.677
					l39.389-18.602c0,0,25.501-12.464,31.112-10.312c5.61,2.152,10.966,15.046-10.456,27.398
					c-21.421,12.352-15.046,35.361-15.046,35.361h15.301c0,0,9.18,3.741,12.751,8.544c3.57,4.803,6.12,21.214,8.16,26.779
					c2.04,5.565,1.02,11.125-4.59,12.935c0,0-3.57,15.562-2.55,22.457c1.02,6.895,0.51,11.344-6.12,12.18
					c-6.63,0.836-13.261-4.794-12.751-12.18l-5.1,18.479l3.57,7.103c0,0,6.63,2.224,13.771,8.344
					c7.14,6.12,14.281,7.791,12.241,14.606c-2.04,6.815-6.12,14.17-27.542,5.647c-21.421-8.523-39.272-42-39.272-42"/>
				<path style="fill:none;stroke:#263238;stroke-linecap:round;stroke-linejoin:round;stroke-miterlimit:10;" d="M340.074,244.78
					c-7.65,2.065-16.576,0.535-19.891-12.98c-3.315-13.516,3.317-27.954,7.65-29.327"/>
				<path style="fill:none;stroke:#263238;stroke-linecap:round;stroke-linejoin:round;stroke-miterlimit:10;" d="M318.653,267.237
					c0,0-0.51-17.407,5.865-21.704"/>
			</g>
			<path style="opacity:0.4;fill:#92E3A9;" d="M132.622,353.708c0,0-18.689-2.327-22.861-10.69
				c-3.454-6.917-22.152,18.962-44.277,30.324c18.498-18.862,38.232-40.05,44.277-50.458c5.399-9.299,12.226-25.443,18.18-40.614
				c0,0.009,0,0.009,0,0.018c-0.3,12.581-7.008,31.842-5.09,41.868c0,0-7.199,1.782-5.754,9.745
				C118.532,341.855,132.622,353.708,132.622,353.708z"/>
			<g>
				<path style="fill:none;stroke:#263238;stroke-linecap:round;stroke-linejoin:round;stroke-miterlimit:10;" d="M262.951,308.966
					c0,0-27.739,54.397-77.747,66.733c0,0-1.906,10.76-10.367,15.377c-4.516,2.465-22.75,29.794-38.773,54.744"/>
				<path style="fill:none;stroke:#263238;stroke-linecap:round;stroke-linejoin:round;stroke-miterlimit:10;" d="M47.44,391.452
					c21.355-21.111,54.191-54.582,62.318-68.57c12.304-21.176,32.002-77.838,32.002-77.838l76.038-84.522"/>
				<path style="fill:none;stroke:#263238;stroke-linecap:round;stroke-linejoin:round;stroke-miterlimit:10;" d="M174.393,225.067
					c0,0,11.677,10.462,14.959,19.977"/>
			</g>
		</g>
		<g>
			<path style="fill:#263238;" d="M312.26,353.708H186.584c-3.716,0-6.728-3.012-6.728-6.728V79.445
				c0-3.716,3.012-6.728,6.728-6.728H312.26c3.716,0,6.728,3.012,6.728,6.728v267.536
				C318.988,350.696,315.976,353.708,312.26,353.708z"/>
			<path style="fill:#92E3A9;stroke:#263238;stroke-linecap:round;stroke-linejoin:round;stroke-miterlimit:10;" d="M277.006,80.366
				l-2.656,4.878c-0.582,1.069-1.702,1.735-2.92,1.735h-44.016c-1.218,0-2.338-0.665-2.92-1.735l-2.656-4.878
				c-0.582-1.069-1.702-1.735-2.92-1.735h-30.727c-1.836,0-3.325,1.488-3.325,3.325v263.058c0,1.836,1.489,3.325,3.325,3.325
				h122.461c1.836,0,3.325-1.488,3.325-3.325V81.956c0-1.836-1.488-3.325-3.325-3.325h-30.727
				C278.708,78.631,277.588,79.297,277.006,80.366z"/>
			<g>
				<g>
					<circle style="fill:none;stroke:#FFFFFF;stroke-miterlimit:10;" cx="239.884" cy="80.936" r="1.795"/>
					<path style="fill:none;stroke:#FFFFFF;stroke-miterlimit:10;" d="M260.754,80.936c0,0.614-0.498,1.112-1.112,1.112
						c-0.614,0-1.112-0.498-1.112-1.112c0-0.614,0.498-1.112,1.112-1.112C260.257,79.824,260.754,80.322,260.754,80.936z"/>
				</g>
				<path style="fill:#FFFFFF;" d="M255.767,80.239h-10.872c-0.385,0-0.697,0.312-0.697,0.697l0,0c0,0.385,0.312,0.697,0.697,0.697
					h10.872c0.385,0,0.697-0.312,0.697-0.697l0,0C256.464,80.551,256.152,80.239,255.767,80.239z"/>
			</g>
			<g>
				<g>
					
						<rect x="195.91" y="85.32" style="fill:none;stroke:#263238;stroke-linecap:round;stroke-linejoin:round;stroke-miterlimit:10;" width="11.725" height="4.984"/>
					
						<rect x="207.635" y="86.159" style="fill:none;stroke:#263238;stroke-linecap:round;stroke-linejoin:round;stroke-miterlimit:10;" width="1.82" height="3.306"/>
				</g>
				<g>
					
						<rect x="288.678" y="88.497" style="fill:none;stroke:#263238;stroke-linecap:round;stroke-linejoin:round;stroke-miterlimit:10;" width="2.081" height="1.807"/>
					
						<rect x="292.736" y="86.679" style="fill:none;stroke:#263238;stroke-linecap:round;stroke-linejoin:round;stroke-miterlimit:10;" width="2.081" height="3.625"/>
					
						<rect x="296.795" y="84.862" style="fill:none;stroke:#263238;stroke-linecap:round;stroke-linejoin:round;stroke-miterlimit:10;" width="2.081" height="5.443"/>
					
						<rect x="300.853" y="83.044" style="fill:none;stroke:#263238;stroke-linecap:round;stroke-linejoin:round;stroke-miterlimit:10;" width="2.081" height="7.261"/>
				</g>
			</g>
			<rect x="185.702" y="136.764" style="opacity:0.5;fill:#FFFFFF;" width="127.439" height="121.545"/>
			<g>
				<path style="fill:#263238;" d="M220.903,117.347v2.116c0,2.604-1.256,4.023-3.814,4.023h-1.209v6.116h-2.558v-16.278h3.767
					C219.647,113.323,220.903,114.742,220.903,117.347z M215.88,115.649v5.511h1.209c0.814,0,1.256-0.372,1.256-1.535v-2.442
					c0-1.163-0.442-1.535-1.256-1.535H215.88z"/>
				<path style="fill:#263238;" d="M230.067,129.602h-2.581l-0.442-2.953h-3.139l-0.442,2.953h-2.349l2.604-16.278h3.744
					L230.067,129.602z M224.231,124.439h2.465l-1.21-8.232h-0.046L224.231,124.439z"/>
				<path style="fill:#263238;" d="M232.511,124.206l-3.232-10.883h2.674l1.93,7.419h0.046l1.93-7.419h2.442l-3.232,10.883v5.395
					h-2.558V124.206z"/>
				<path style="fill:#263238;" d="M244.722,124.881h0.046l1.721-11.558h3.558v16.278h-2.419v-11.674h-0.046l-1.721,11.674h-2.418
					l-1.86-11.511h-0.047v11.511h-2.232v-16.278h3.558L244.722,124.881z"/>
				<path style="fill:#263238;" d="M254.469,120.184h3.512v2.325h-3.512v4.768h4.419v2.325h-6.977v-16.278h6.977v2.326h-4.419
					V120.184z"/>
				<path style="fill:#263238;" d="M262.796,117.812h-0.046v11.79h-2.303v-16.278h3.209l2.582,9.744h0.046v-9.744h2.279v16.278
					h-2.628L262.796,117.812z"/>
				<path style="fill:#263238;" d="M269.658,113.323h7.907v2.326h-2.675v13.953h-2.558v-13.953h-2.675V113.323z"/>
				<path style="fill:#263238;" d="M282.125,113.138c2.488,0,3.767,1.488,3.767,4.093v0.511h-2.418v-0.674
					c0-1.163-0.465-1.604-1.279-1.604c-0.813,0-1.278,0.442-1.278,1.604c0,1.186,0.511,2.07,2.186,3.535
					c2.14,1.884,2.813,3.232,2.813,5.093c0,2.604-1.302,4.093-3.813,4.093c-2.512,0-3.814-1.488-3.814-4.093v-1h2.418v1.163
					c0,1.163,0.512,1.582,1.325,1.582c0.814,0,1.326-0.419,1.326-1.582c0-1.186-0.512-2.069-2.186-3.535
					c-2.139-1.883-2.814-3.232-2.814-5.092C278.357,114.626,279.637,113.138,282.125,113.138z"/>
			</g>
			<g>
				
					<rect x="195.91" y="151.486" style="fill:#FFFFFF;stroke:#263238;stroke-linecap:round;stroke-linejoin:round;stroke-miterlimit:10;" width="107.024" height="15.993"/>
				
					<rect x="195.91" y="181.483" style="fill:#FFFFFF;stroke:#263238;stroke-linecap:round;stroke-linejoin:round;stroke-miterlimit:10;" width="107.024" height="15.993"/>
				
					<rect x="195.91" y="208.753" style="fill:#FFFFFF;stroke:#263238;stroke-linecap:round;stroke-linejoin:round;stroke-miterlimit:10;" width="107.024" height="15.993"/>
				
					<rect x="195.91" y="230.569" style="fill:#FFFFFF;stroke:#263238;stroke-linecap:round;stroke-linejoin:round;stroke-miterlimit:10;" width="50.667" height="18.72"/>
				
					<rect x="252.267" y="230.569" style="fill:#FFFFFF;stroke:#263238;stroke-linecap:round;stroke-linejoin:round;stroke-miterlimit:10;" width="50.667" height="18.72"/>
				<g>
					<path style="fill:#263238;" d="M202.581,148.701v0.433h-3.346v-4.732h3.245v0.433h-2.744v1.683h2.447v0.426h-2.447v1.757
						H202.581z"/>
					<path style="fill:#263238;" d="M209.521,147.072v2.062h-0.48v-2.014c0-0.751-0.378-1.136-1.02-1.136
						c-0.73,0-1.19,0.473-1.19,1.284v1.866h-0.48v-2.014c0-0.751-0.378-1.136-1.027-1.136c-0.723,0-1.19,0.473-1.19,1.284v1.866
						h-0.479v-3.556h0.46v0.649c0.25-0.426,0.709-0.676,1.305-0.676c0.588,0,1.048,0.25,1.264,0.75
						c0.257-0.46,0.764-0.75,1.406-0.75C208.954,145.551,209.521,146.051,209.521,147.072z"/>
					<path style="fill:#263238;" d="M213.507,146.93v2.204h-0.46v-0.554c-0.216,0.365-0.635,0.588-1.224,0.588
						c-0.804,0-1.298-0.419-1.298-1.034c0-0.547,0.352-1.007,1.372-1.007h1.129v-0.216c0-0.608-0.345-0.939-1.007-0.939
						c-0.46,0-0.893,0.162-1.183,0.419l-0.216-0.358c0.358-0.304,0.886-0.48,1.447-0.48
						C212.986,145.551,213.507,146.011,213.507,146.93z M213.027,148.066v-0.581h-1.116c-0.689,0-0.913,0.27-0.913,0.635
						c0,0.413,0.332,0.669,0.899,0.669C212.438,148.789,212.837,148.532,213.027,148.066z"/>
					<path style="fill:#263238;" d="M214.701,144.456c0-0.183,0.155-0.338,0.352-0.338c0.196,0,0.352,0.148,0.352,0.331
						c0,0.196-0.149,0.352-0.352,0.352C214.856,144.801,214.701,144.645,214.701,144.456z M214.81,145.578h0.479v3.556h-0.479
						V145.578z"/>
					<path style="fill:#263238;" d="M216.627,144.118h0.479v5.016h-0.479V144.118z"/>
				</g>
				<g>
					<path style="fill:#263238;" d="M205.889,160.977v0.433h-3.346v-4.732h3.245v0.433h-2.744v1.683h2.447v0.426h-2.447v1.757
						H205.889z"/>
					<path style="fill:#263238;" d="M212.83,159.349v2.062h-0.48v-2.014c0-0.751-0.378-1.136-1.02-1.136
						c-0.73,0-1.19,0.473-1.19,1.284v1.866h-0.48v-2.014c0-0.751-0.378-1.136-1.027-1.136c-0.723,0-1.19,0.473-1.19,1.284v1.866
						h-0.479v-3.556h0.459v0.649c0.25-0.426,0.71-0.676,1.305-0.676c0.588,0,1.048,0.25,1.264,0.75
						c0.257-0.459,0.764-0.75,1.406-0.75C212.262,157.828,212.83,158.328,212.83,159.349z"/>
					<path style="fill:#263238;" d="M216.814,159.206v2.204h-0.46v-0.554c-0.216,0.365-0.635,0.588-1.224,0.588
						c-0.804,0-1.298-0.419-1.298-1.034c0-0.547,0.352-1.007,1.373-1.007h1.129v-0.216c0-0.608-0.345-0.939-1.007-0.939
						c-0.459,0-0.892,0.162-1.183,0.419l-0.216-0.358c0.358-0.304,0.886-0.48,1.447-0.48
						C216.294,157.828,216.814,158.287,216.814,159.206z M216.335,160.342v-0.582h-1.116c-0.689,0-0.913,0.271-0.913,0.635
						c0,0.413,0.332,0.669,0.9,0.669C215.747,161.065,216.145,160.809,216.335,160.342z"/>
					<path style="fill:#263238;" d="M218.009,156.732c0-0.183,0.155-0.338,0.352-0.338c0.196,0,0.352,0.148,0.352,0.331
						c0,0.196-0.149,0.352-0.352,0.352C218.165,157.077,218.009,156.922,218.009,156.732z M218.118,157.855h0.48v3.556h-0.48
						V157.855z"/>
					<path style="fill:#263238;" d="M219.936,156.395h0.479v5.016h-0.479V156.395z"/>
					<path style="fill:#263238;" d="M225.024,159.349v2.062h-0.48v-2.014c0-0.751-0.392-1.136-1.068-1.136
						c-0.764,0-1.244,0.473-1.244,1.284v1.866h-0.479v-3.556h0.459v0.656c0.257-0.433,0.737-0.683,1.352-0.683
						C224.43,157.828,225.024,158.328,225.024,159.349z"/>
					<path style="fill:#263238;" d="M229.011,159.206v2.204h-0.459v-0.554c-0.216,0.365-0.635,0.588-1.224,0.588
						c-0.804,0-1.298-0.419-1.298-1.034c0-0.547,0.352-1.007,1.372-1.007h1.129v-0.216c0-0.608-0.345-0.939-1.007-0.939
						c-0.459,0-0.892,0.162-1.183,0.419l-0.216-0.358c0.358-0.304,0.886-0.48,1.447-0.48
						C228.491,157.828,229.011,158.287,229.011,159.206z M228.531,160.342v-0.582h-1.116c-0.689,0-0.913,0.271-0.913,0.635
						c0,0.413,0.332,0.669,0.899,0.669C227.943,161.065,228.342,160.809,228.531,160.342z"/>
					<path style="fill:#263238;" d="M236.181,159.349v2.062h-0.48v-2.014c0-0.751-0.378-1.136-1.02-1.136
						c-0.73,0-1.19,0.473-1.19,1.284v1.866h-0.48v-2.014c0-0.751-0.378-1.136-1.027-1.136c-0.723,0-1.19,0.473-1.19,1.284v1.866
						h-0.479v-3.556h0.459v0.649c0.25-0.426,0.71-0.676,1.305-0.676c0.588,0,1.048,0.25,1.264,0.75
						c0.257-0.459,0.764-0.75,1.406-0.75C235.613,157.828,236.181,158.328,236.181,159.349z"/>
					<path style="fill:#263238;" d="M240.592,159.781h-2.974c0.054,0.743,0.622,1.237,1.399,1.237c0.433,0,0.818-0.155,1.088-0.466
						l0.271,0.311c-0.318,0.378-0.811,0.581-1.372,0.581c-1.109,0-1.866-0.757-1.866-1.812c0-1.055,0.737-1.805,1.737-1.805
						c1.001,0,1.724,0.737,1.724,1.805C240.599,159.673,240.592,159.727,240.592,159.781z M237.618,159.423h2.521
						c-0.061-0.696-0.567-1.183-1.264-1.183C238.186,158.24,237.679,158.727,237.618,159.423z"/>
					<path style="fill:#263238;" d="M247.546,159.619c0,1.149-0.426,1.825-1.123,1.825c-0.439,0-0.736-0.271-0.764-0.737
						c-0.271,0.466-0.757,0.737-1.352,0.737c-0.96,0-1.676-0.73-1.676-1.75c0-1.014,0.717-1.737,1.676-1.737
						c0.581,0,1.062,0.257,1.338,0.709v-0.683h0.439v2.562c0,0.378,0.189,0.514,0.419,0.514c0.419,0,0.689-0.52,0.689-1.433
						c0-1.588-1.143-2.643-2.778-2.643c-1.656,0-2.785,1.109-2.785,2.711c0,1.602,1.116,2.724,2.758,2.724
						c0.405,0,0.906-0.095,1.298-0.297l0.115,0.331c-0.406,0.209-0.96,0.311-1.413,0.311c-1.859,0-3.13-1.278-3.13-3.069
						c0-1.798,1.291-3.056,3.157-3.056C246.248,156.638,247.546,157.848,247.546,159.619z M245.653,159.693
						c0-0.818-0.554-1.345-1.284-1.345c-0.75,0-1.291,0.534-1.291,1.345c0,0.811,0.541,1.358,1.291,1.358
						C245.099,161.052,245.653,160.518,245.653,159.693z"/>
					<path style="fill:#263238;" d="M251.653,159.781h-2.974c0.054,0.743,0.622,1.237,1.399,1.237c0.433,0,0.818-0.155,1.088-0.466
						l0.271,0.311c-0.318,0.378-0.811,0.581-1.373,0.581c-1.109,0-1.866-0.757-1.866-1.812c0-1.055,0.737-1.805,1.737-1.805
						c1.001,0,1.724,0.737,1.724,1.805C251.66,159.673,251.653,159.727,251.653,159.781z M248.679,159.423h2.521
						c-0.061-0.696-0.567-1.183-1.264-1.183C249.247,158.24,248.74,158.727,248.679,159.423z"/>
					<path style="fill:#263238;" d="M258.506,159.349v2.062h-0.48v-2.014c0-0.751-0.378-1.136-1.02-1.136
						c-0.73,0-1.19,0.473-1.19,1.284v1.866h-0.48v-2.014c0-0.751-0.379-1.136-1.027-1.136c-0.724,0-1.19,0.473-1.19,1.284v1.866
						h-0.48v-3.556h0.459v0.649c0.25-0.426,0.71-0.676,1.305-0.676c0.588,0,1.049,0.25,1.265,0.75
						c0.257-0.459,0.764-0.75,1.405-0.75C257.938,157.828,258.506,158.328,258.506,159.349z"/>
					<path style="fill:#263238;" d="M262.491,159.206v2.204h-0.46v-0.554c-0.217,0.365-0.635,0.588-1.224,0.588
						c-0.804,0-1.298-0.419-1.298-1.034c0-0.547,0.352-1.007,1.373-1.007h1.129v-0.216c0-0.608-0.346-0.939-1.008-0.939
						c-0.46,0-0.893,0.162-1.184,0.419l-0.216-0.358c0.358-0.304,0.886-0.48,1.446-0.48
						C261.971,157.828,262.491,158.287,262.491,159.206z M262.012,160.342v-0.582h-1.116c-0.689,0-0.913,0.271-0.913,0.635
						c0,0.413,0.332,0.669,0.9,0.669C261.423,161.065,261.822,160.809,262.012,160.342z"/>
					<path style="fill:#263238;" d="M263.685,156.732c0-0.183,0.156-0.338,0.352-0.338c0.196,0,0.352,0.148,0.352,0.331
						c0,0.196-0.148,0.352-0.352,0.352C263.842,157.077,263.685,156.922,263.685,156.732z M263.795,157.855h0.479v3.556h-0.479
						V157.855z"/>
					<path style="fill:#263238;" d="M265.611,156.395h0.48v5.016h-0.48V156.395z"/>
					<path style="fill:#263238;" d="M267.119,161.072c0-0.21,0.162-0.365,0.358-0.365c0.196,0,0.365,0.156,0.365,0.365
						c0,0.209-0.169,0.372-0.365,0.372C267.281,161.444,267.119,161.282,267.119,161.072z"/>
					<path style="fill:#263238;" d="M268.402,159.632c0-1.061,0.771-1.805,1.832-1.805c0.602,0,1.108,0.236,1.393,0.703
						l-0.358,0.243c-0.243-0.358-0.622-0.527-1.034-0.527c-0.777,0-1.346,0.554-1.346,1.386c0,0.838,0.568,1.386,1.346,1.386
						c0.412,0,0.791-0.162,1.034-0.52l0.358,0.243c-0.284,0.46-0.791,0.703-1.393,0.703
						C269.173,161.444,268.402,160.694,268.402,159.632z"/>
					<path style="fill:#263238;" d="M272.146,159.632c0-1.055,0.77-1.805,1.811-1.805c1.041,0,1.806,0.75,1.806,1.805
						c0,1.055-0.765,1.812-1.806,1.812C272.916,161.444,272.146,160.687,272.146,159.632z M275.275,159.632
						c0-0.831-0.561-1.386-1.318-1.386c-0.757,0-1.324,0.554-1.324,1.386c0,0.832,0.567,1.386,1.324,1.386
						C274.715,161.018,275.275,160.464,275.275,159.632z"/>
					<path style="fill:#263238;" d="M282.607,159.349v2.062h-0.479v-2.014c0-0.751-0.379-1.136-1.021-1.136
						c-0.73,0-1.189,0.473-1.189,1.284v1.866h-0.48v-2.014c0-0.751-0.379-1.136-1.027-1.136c-0.724,0-1.189,0.473-1.189,1.284v1.866
						h-0.48v-3.556h0.46v0.649c0.25-0.426,0.71-0.676,1.305-0.676c0.588,0,1.048,0.25,1.264,0.75c0.257-0.459,0.764-0.75,1.406-0.75
						C282.04,157.828,282.607,158.328,282.607,159.349z"/>
				</g>
				<g>
					<path style="fill:#263238;" d="M203.395,189.563l0.838,0.473l-0.155,0.284l-0.845-0.493v0.959h-0.311l0.007-0.959l-0.845,0.493
						l-0.162-0.284l0.845-0.473l-0.845-0.473l0.162-0.291l0.845,0.501l-0.007-0.96h0.311v0.96l0.845-0.501l0.155,0.291
						L203.395,189.563z"/>
					<path style="fill:#263238;" d="M206.138,189.563l0.838,0.473l-0.155,0.284l-0.845-0.493v0.959h-0.311l0.007-0.959l-0.845,0.493
						l-0.162-0.284l0.845-0.473l-0.845-0.473l0.162-0.291l0.845,0.501l-0.007-0.96h0.311v0.96l0.845-0.501l0.155,0.291
						L206.138,189.563z"/>
					<path style="fill:#263238;" d="M208.881,189.563l0.838,0.473l-0.155,0.284l-0.845-0.493v0.959h-0.311l0.007-0.959l-0.845,0.493
						l-0.162-0.284l0.845-0.473l-0.845-0.473l0.162-0.291l0.845,0.501l-0.007-0.96h0.311v0.96l0.845-0.501l0.155,0.291
						L208.881,189.563z"/>
					<path style="fill:#263238;" d="M211.624,189.563l0.838,0.473l-0.155,0.284l-0.845-0.493v0.959h-0.311l0.007-0.959l-0.845,0.493
						l-0.162-0.284l0.845-0.473l-0.845-0.473l0.162-0.291l0.845,0.501l-0.007-0.96h0.311v0.96l0.845-0.501l0.155,0.291
						L211.624,189.563z"/>
					<path style="fill:#263238;" d="M214.367,189.563l0.838,0.473l-0.155,0.284l-0.845-0.493v0.959h-0.311l0.007-0.959l-0.845,0.493
						l-0.162-0.284l0.845-0.473l-0.845-0.473l0.162-0.291l0.845,0.501l-0.007-0.96h0.311v0.96l0.845-0.501l0.155,0.291
						L214.367,189.563z"/>
					<path style="fill:#263238;" d="M217.11,189.563l0.838,0.473l-0.155,0.284l-0.845-0.493v0.959h-0.311l0.007-0.959l-0.845,0.493
						l-0.162-0.284l0.845-0.473l-0.845-0.473l0.162-0.291l0.845,0.501l-0.007-0.96h0.311v0.96l0.845-0.501l0.155,0.291
						L217.11,189.563z"/>
					<path style="fill:#263238;" d="M219.854,189.563l0.838,0.473l-0.155,0.284l-0.845-0.493v0.959h-0.311l0.007-0.959l-0.845,0.493
						l-0.162-0.284l0.845-0.473l-0.845-0.473l0.162-0.291l0.845,0.501l-0.007-0.96h0.311v0.96l0.845-0.501l0.155,0.291
						L219.854,189.563z"/>
					<path style="fill:#263238;" d="M222.597,189.563l0.838,0.473l-0.155,0.284l-0.845-0.493v0.959h-0.311l0.007-0.959l-0.845,0.493
						l-0.162-0.284l0.845-0.473l-0.845-0.473l0.162-0.291l0.845,0.501l-0.007-0.96h0.311v0.96l0.845-0.501l0.155,0.291
						L222.597,189.563z"/>
					<path style="fill:#263238;" d="M225.34,189.563l0.838,0.473l-0.155,0.284l-0.845-0.493v0.959h-0.311l0.007-0.959l-0.845,0.493
						l-0.162-0.284l0.845-0.473l-0.845-0.473l0.162-0.291l0.845,0.501l-0.007-0.96h0.311v0.96l0.845-0.501l0.155,0.291
						L225.34,189.563z"/>
					<path style="fill:#263238;" d="M228.083,189.563l0.838,0.473l-0.155,0.284l-0.845-0.493v0.959h-0.311l0.007-0.959l-0.845,0.493
						l-0.162-0.284l0.845-0.473l-0.845-0.473l0.162-0.291l0.845,0.501l-0.007-0.96h0.311v0.96l0.845-0.501l0.155,0.291
						L228.083,189.563z"/>
					<path style="fill:#263238;" d="M230.826,189.563l0.838,0.473l-0.155,0.284l-0.845-0.493v0.959h-0.311l0.007-0.959l-0.845,0.493
						l-0.162-0.284l0.845-0.473l-0.845-0.473l0.162-0.291l0.845,0.501l-0.007-0.96h0.311v0.96l0.845-0.501l0.155,0.291
						L230.826,189.563z"/>
				</g>
				<g>
					<path style="fill:#263238;" d="M202.939,176.021c0,1.007-0.73,1.616-1.934,1.616h-1.27v1.494h-0.501v-4.732h1.771
						C202.209,174.399,202.939,175.007,202.939,176.021z M202.439,176.021c0-0.757-0.5-1.19-1.446-1.19h-1.257v2.366h1.257
						C201.939,177.198,202.439,176.765,202.439,176.021z"/>
					<path style="fill:#263238;" d="M206.567,176.927v2.204h-0.46v-0.554c-0.216,0.365-0.635,0.588-1.224,0.588
						c-0.804,0-1.298-0.419-1.298-1.034c0-0.547,0.352-1.007,1.373-1.007h1.129v-0.216c0-0.608-0.345-0.939-1.007-0.939
						c-0.46,0-0.893,0.162-1.183,0.419l-0.216-0.358c0.358-0.304,0.886-0.48,1.447-0.48
						C206.047,175.548,206.567,176.008,206.567,176.927z M206.087,178.063v-0.582h-1.116c-0.689,0-0.913,0.271-0.913,0.635
						c0,0.413,0.331,0.669,0.899,0.669C205.499,178.786,205.898,178.529,206.087,178.063z"/>
					<path style="fill:#263238;" d="M207.377,178.725l0.216-0.378c0.284,0.223,0.764,0.399,1.264,0.399
						c0.676,0,0.953-0.23,0.953-0.582c0-0.926-2.305-0.196-2.305-1.602c0-0.581,0.5-1.014,1.406-1.014
						c0.46,0,0.96,0.129,1.257,0.331l-0.209,0.385c-0.311-0.216-0.683-0.304-1.048-0.304c-0.642,0-0.926,0.251-0.926,0.588
						c0,0.96,2.305,0.236,2.305,1.602c0,0.615-0.541,1.014-1.467,1.014C208.235,179.165,207.667,178.976,207.377,178.725z"/>
					<path style="fill:#263238;" d="M210.681,178.725l0.216-0.378c0.284,0.223,0.764,0.399,1.264,0.399
						c0.676,0,0.953-0.23,0.953-0.582c0-0.926-2.305-0.196-2.305-1.602c0-0.581,0.5-1.014,1.406-1.014
						c0.46,0,0.96,0.129,1.257,0.331l-0.21,0.385c-0.311-0.216-0.683-0.304-1.048-0.304c-0.642,0-0.926,0.251-0.926,0.588
						c0,0.96,2.305,0.236,2.305,1.602c0,0.615-0.541,1.014-1.467,1.014C211.54,179.165,210.972,178.976,210.681,178.725z"/>
					<path style="fill:#263238;" d="M219.63,175.575l-1.345,3.556h-0.453l-1.122-2.914l-1.122,2.914h-0.453l-1.338-3.556h0.459
						l1.115,3.021l1.143-3.021h0.412l1.136,3.021l1.129-3.021H219.63z"/>
					<path style="fill:#263238;" d="M219.892,177.353c0-1.055,0.77-1.805,1.811-1.805s1.805,0.75,1.805,1.805
						s-0.764,1.812-1.805,1.812S219.892,178.408,219.892,177.353z M223.021,177.353c0-0.831-0.561-1.386-1.318-1.386
						c-0.757,0-1.325,0.554-1.325,1.386c0,0.832,0.567,1.386,1.325,1.386C222.46,178.739,223.021,178.185,223.021,177.353z"/>
					<path style="fill:#263238;" d="M226.278,175.548v0.466c-0.041,0-0.081-0.007-0.115-0.007c-0.744,0-1.197,0.473-1.197,1.312
						v1.812h-0.479v-3.556h0.459v0.696C225.169,175.798,225.622,175.548,226.278,175.548z"/>
					<path style="fill:#263238;" d="M230.353,174.115v5.016h-0.46v-0.703c-0.291,0.48-0.784,0.737-1.372,0.737
						c-1.014,0-1.771-0.737-1.771-1.812c0-1.075,0.757-1.805,1.771-1.805c0.568,0,1.054,0.243,1.352,0.703v-2.136H230.353z
						 M229.879,177.353c0-0.831-0.567-1.386-1.318-1.386c-0.757,0-1.325,0.554-1.325,1.386c0,0.832,0.567,1.386,1.325,1.386
						C229.312,178.739,229.879,178.185,229.879,177.353z"/>
				</g>
				<g>
					<path style="fill:#263238;" d="M237.463,214.984v4.732h-0.487v-4.299h-1.115v-0.433H237.463z"/>
					<path style="fill:#263238;" d="M241.822,219.283v0.433h-3.319v-0.345l1.967-1.927c0.534-0.527,0.636-0.845,0.636-1.169
						c0-0.548-0.385-0.886-1.109-0.886c-0.554,0-0.98,0.169-1.291,0.527l-0.345-0.297c0.365-0.433,0.953-0.676,1.676-0.676
						c0.96,0,1.568,0.487,1.568,1.278c0,0.453-0.142,0.858-0.777,1.48l-1.609,1.581H241.822z"/>
					<path style="fill:#263238;" d="M245.559,218.357c0,0.791-0.575,1.399-1.717,1.399c-0.683,0-1.338-0.236-1.703-0.608
						l0.236-0.385c0.304,0.318,0.852,0.547,1.467,0.547c0.784,0,1.217-0.365,1.217-0.953c0-0.567-0.399-0.939-1.277-0.939h-0.338
						v-0.358l1.311-1.643h-2.42v-0.433h3.042v0.345l-1.338,1.683C245.051,217.066,245.559,217.6,245.559,218.357z"/>
					<path style="fill:#263238;" d="M250.261,218.472h-0.946v1.244h-0.487v-1.244h-2.67v-0.352l2.508-3.137h0.54l-2.42,3.056h2.055
						v-1.095h0.473v1.095h0.946V218.472z"/>
					<path style="fill:#263238;" d="M255.688,218.323c0,0.805-0.561,1.433-1.718,1.433c-0.683,0-1.331-0.236-1.696-0.608
						l0.236-0.385c0.305,0.318,0.846,0.547,1.453,0.547c0.805,0,1.23-0.392,1.23-0.966c0-0.608-0.379-0.987-1.582-0.987h-1.007
						l0.243-2.373h2.589v0.433h-2.163l-0.162,1.508h0.608C255.146,216.924,255.688,217.485,255.688,218.323z"/>
					<path style="fill:#263238;" d="M259.855,218.303c0,0.885-0.695,1.453-1.615,1.453c-1.258,0-1.939-0.872-1.939-2.366
						c0-1.609,0.879-2.447,2.162-2.447c0.426,0,0.825,0.075,1.123,0.257l-0.197,0.392c-0.242-0.162-0.566-0.223-0.918-0.223
						c-1.022,0-1.678,0.656-1.678,1.941c0,0.108,0.008,0.243,0.021,0.385c0.236-0.52,0.791-0.811,1.446-0.811
						C259.2,216.883,259.855,217.438,259.855,218.303z M259.376,218.316c0-0.622-0.46-1.021-1.191-1.021
						c-0.723,0-1.217,0.446-1.217,1.034c0,0.521,0.434,1.014,1.251,1.014C258.902,219.344,259.376,218.945,259.376,218.316z"/>
					<path style="fill:#263238;" d="M263.701,214.984v0.345l-1.982,4.387h-0.526l1.946-4.299h-2.434v0.886h-0.479v-1.318H263.701z"
						/>
					<path style="fill:#263238;" d="M267.85,218.398c0,0.838-0.71,1.359-1.839,1.359c-1.136,0-1.825-0.521-1.825-1.359
						c0-0.567,0.324-0.966,0.912-1.163c-0.479-0.189-0.742-0.547-0.742-1.041c0-0.771,0.654-1.25,1.655-1.25
						c1.001,0,1.67,0.48,1.67,1.25c0,0.494-0.271,0.852-0.757,1.041C267.518,217.431,267.85,217.836,267.85,218.398z
						 M267.35,218.391c0-0.581-0.5-0.947-1.339-0.947c-0.838,0-1.331,0.365-1.331,0.947c0,0.588,0.493,0.953,1.331,0.953
						C266.85,219.344,267.35,218.979,267.35,218.391z M266.011,217.059c0.737,0,1.177-0.331,1.177-0.845
						c0-0.534-0.467-0.858-1.177-0.858c-0.716,0-1.169,0.324-1.169,0.852C264.842,216.728,265.273,217.059,266.011,217.059z"/>
					<path style="fill:#263238;" d="M273.707,217.31c0,1.608-0.878,2.447-2.163,2.447c-0.426,0-0.824-0.074-1.122-0.257l0.196-0.392
						c0.243,0.162,0.568,0.223,0.92,0.223c1.021,0,1.676-0.656,1.676-1.94c0-0.108-0.007-0.244-0.021-0.385
						c-0.236,0.52-0.79,0.811-1.446,0.811c-0.94,0-1.595-0.554-1.595-1.419c0-0.886,0.696-1.454,1.615-1.454
						C273.024,214.943,273.707,215.815,273.707,217.31z M273.038,216.37c0-0.52-0.433-1.014-1.25-1.014
						c-0.683,0-1.156,0.399-1.156,1.027c0,0.622,0.46,1.02,1.189,1.02C272.545,217.404,273.038,216.958,273.038,216.37z"/>
					<path style="fill:#263238;" d="M275.707,214.984v4.732h-0.487v-4.299h-1.115v-0.433H275.707z"/>
					<path style="fill:#263238;" d="M276.835,217.35c0-1.507,0.791-2.407,1.886-2.407s1.893,0.899,1.893,2.407
						c0,1.507-0.798,2.406-1.893,2.406S276.835,218.857,276.835,217.35z M280.113,217.35c0-1.264-0.567-1.96-1.393-1.96
						c-0.824,0-1.393,0.696-1.393,1.96c0,1.264,0.568,1.96,1.393,1.96C279.546,219.31,280.113,218.614,280.113,217.35z"/>
					<path style="fill:#263238;" d="M282.605,214.984v4.732h-0.487v-4.299h-1.115v-0.433H282.605z"/>
					<path style="fill:#263238;" d="M286.815,214.984v4.732h-0.487v-4.299h-1.115v-0.433H286.815z"/>
					<path style="fill:#263238;" d="M289.254,214.984v4.732h-0.487v-4.299h-1.115v-0.433H289.254z"/>
					<path style="fill:#263238;" d="M293.613,219.283v0.433h-3.319v-0.345l1.967-1.927c0.534-0.527,0.636-0.845,0.636-1.169
						c0-0.548-0.386-0.886-1.108-0.886c-0.555,0-0.98,0.169-1.291,0.527l-0.345-0.297c0.364-0.433,0.953-0.676,1.676-0.676
						c0.96,0,1.568,0.487,1.568,1.278c0,0.453-0.142,0.858-0.777,1.48l-1.608,1.581H293.613z"/>
					<path style="fill:#263238;" d="M295.531,214.984v4.732h-0.487v-4.299h-1.115v-0.433H295.531z"/>
				</g>
				<g>
					<path style="fill:#263238;" d="M215.785,213.898v-0.719c0-0.695-0.564-1.259-1.259-1.259h-12.766
						c-0.695,0-1.259,0.563-1.259,1.259v0.719H215.785z"/>
					<path style="fill:#263238;" d="M200.502,214.887v5.304c0,0.695,0.563,1.259,1.259,1.259h12.766
						c0.695,0,1.259-0.564,1.259-1.259v-5.304H200.502z"/>
				</g>
				<g>
					<path style="fill:#263238;" d="M200.692,242.802c0-1.507,0.791-2.407,1.886-2.407c1.095,0,1.893,0.899,1.893,2.407
						c0,1.507-0.798,2.406-1.893,2.406C201.483,245.208,200.692,244.309,200.692,242.802z M203.97,242.802
						c0-1.264-0.568-1.961-1.393-1.961c-0.825,0-1.393,0.696-1.393,1.961c0,1.264,0.568,1.96,1.393,1.96
						C203.402,244.762,203.97,244.065,203.97,242.802z"/>
					<path style="fill:#263238;" d="M208.802,243.849c0,0.838-0.71,1.359-1.839,1.359c-1.135,0-1.825-0.52-1.825-1.359
						c0-0.567,0.325-0.966,0.913-1.163c-0.48-0.189-0.743-0.547-0.743-1.041c0-0.77,0.655-1.25,1.656-1.25
						c1.001,0,1.67,0.48,1.67,1.25c0,0.494-0.271,0.852-0.757,1.041C208.47,242.883,208.802,243.288,208.802,243.849z
						 M208.301,243.843c0-0.582-0.5-0.946-1.338-0.946c-0.838,0-1.332,0.365-1.332,0.946c0,0.588,0.494,0.953,1.332,0.953
						C207.801,244.796,208.301,244.431,208.301,243.843z M206.963,242.511c0.737,0,1.176-0.331,1.176-0.845
						c0-0.534-0.466-0.858-1.176-0.858c-0.716,0-1.169,0.324-1.169,0.852C205.793,242.18,206.226,242.511,206.963,242.511z"/>
					<path style="fill:#263238;" d="M211.186,239.476h0.439l-2.23,6.367h-0.439L211.186,239.476z"/>
					<path style="fill:#263238;" d="M214.97,244.735v0.433h-3.319v-0.345l1.967-1.926c0.534-0.527,0.636-0.845,0.636-1.169
						c0-0.548-0.385-0.886-1.109-0.886c-0.554,0-0.98,0.169-1.291,0.527l-0.345-0.297c0.365-0.433,0.953-0.676,1.676-0.676
						c0.96,0,1.568,0.487,1.568,1.278c0,0.453-0.142,0.858-0.777,1.48l-1.609,1.582H214.97z"/>
					<path style="fill:#263238;" d="M218.788,243.775c0,0.805-0.561,1.433-1.717,1.433c-0.683,0-1.332-0.236-1.696-0.608
						l0.236-0.385c0.304,0.318,0.845,0.547,1.454,0.547c0.804,0,1.23-0.392,1.23-0.966c0-0.608-0.378-0.987-1.581-0.987h-1.007
						l0.243-2.373h2.589v0.433h-2.163l-0.162,1.508h0.608C218.247,242.376,218.788,242.937,218.788,243.775z"/>
				</g>
				<g>
					<path style="fill:#263238;" d="M202.895,237.388v0.268h-2.077v-2.938h2.014v0.269h-1.704v1.045h1.519v0.265h-1.519v1.091
						H202.895z"/>
					<path style="fill:#263238;" d="M205.434,237.657l-0.948-1.292l-0.944,1.292h-0.357l1.116-1.511l-1.045-1.427h0.357l0.885,1.2
						l0.881-1.2h0.335l-1.04,1.419l1.12,1.519H205.434z"/>
					<path style="fill:#263238;" d="M208.547,235.727c0,0.625-0.453,1.003-1.2,1.003h-0.789v0.927h-0.311v-2.938h1.099
						C208.094,234.719,208.547,235.097,208.547,235.727z M208.236,235.727c0-0.47-0.311-0.739-0.898-0.739h-0.78v1.469h0.78
						C207.926,236.456,208.236,236.188,208.236,235.727z"/>
					<path style="fill:#263238;" d="M210.365,234.719h1.196c0.94,0,1.574,0.605,1.574,1.469c0,0.865-0.634,1.469-1.574,1.469h-1.196
						V234.719z M211.544,237.388c0.78,0,1.284-0.495,1.284-1.2c0-0.705-0.503-1.2-1.284-1.2h-0.869v2.4H211.544z"/>
					<path style="fill:#263238;" d="M215.439,236.289v1.368h-0.286v-0.344c-0.134,0.227-0.395,0.365-0.759,0.365
						c-0.499,0-0.806-0.26-0.806-0.642c0-0.34,0.218-0.625,0.852-0.625h0.701v-0.134c0-0.378-0.214-0.583-0.625-0.583
						c-0.286,0-0.554,0.101-0.734,0.26l-0.134-0.223c0.222-0.188,0.55-0.298,0.898-0.298
						C215.116,235.433,215.439,235.718,215.439,236.289z M215.141,236.994v-0.361h-0.692c-0.428,0-0.566,0.168-0.566,0.395
						c0,0.256,0.206,0.416,0.558,0.416C214.776,237.443,215.024,237.283,215.141,236.994z"/>
					<path style="fill:#263238;" d="M217.415,237.523c-0.117,0.105-0.294,0.155-0.466,0.155c-0.415,0-0.646-0.235-0.646-0.642
						v-1.334h-0.395v-0.251h0.395v-0.483h0.298v0.483h0.671v0.251h-0.671v1.318c0,0.26,0.134,0.403,0.382,0.403
						c0.122,0,0.244-0.038,0.327-0.113L217.415,237.523z"/>
					<path style="fill:#263238;" d="M219.801,236.645h-1.847c0.034,0.461,0.386,0.768,0.869,0.768c0.268,0,0.508-0.097,0.676-0.29
						l0.168,0.193c-0.197,0.235-0.504,0.361-0.852,0.361c-0.688,0-1.158-0.47-1.158-1.124c0-0.655,0.458-1.121,1.079-1.121
						c0.621,0,1.07,0.458,1.07,1.121C219.805,236.578,219.801,236.612,219.801,236.645z M217.954,236.423h1.565
						c-0.038-0.432-0.352-0.734-0.785-0.734C218.307,235.689,217.992,235.991,217.954,236.423z"/>
				</g>
				<g>
					<path style="fill:#263238;" d="M256.543,240.436v4.732h-0.486v-4.299h-1.115v-0.433H256.543z"/>
					<path style="fill:#263238;" d="M260.902,244.735v0.433h-3.319v-0.345l1.967-1.926c0.534-0.527,0.636-0.845,0.636-1.169
						c0-0.548-0.385-0.886-1.109-0.886c-0.554,0-0.98,0.169-1.291,0.527l-0.344-0.297c0.365-0.433,0.953-0.676,1.676-0.676
						c0.96,0,1.568,0.487,1.568,1.278c0,0.453-0.142,0.858-0.777,1.48l-1.609,1.582H260.902z"/>
					<path style="fill:#263238;" d="M264.639,243.809c0,0.791-0.574,1.399-1.717,1.399c-0.684,0-1.339-0.236-1.703-0.608
						l0.236-0.385c0.304,0.318,0.851,0.547,1.467,0.547c0.783,0,1.217-0.365,1.217-0.953c0-0.567-0.399-0.939-1.277-0.939h-0.339
						v-0.358l1.312-1.643h-2.42v-0.433h3.042v0.345l-1.339,1.684C264.131,242.518,264.639,243.052,264.639,243.809z"/>
				</g>
				<g>
					<path style="fill:#263238;" d="M255.098,236.188c0-0.86,0.655-1.494,1.541-1.494c0.428,0,0.813,0.143,1.074,0.428l-0.197,0.197
						c-0.24-0.243-0.533-0.348-0.869-0.348c-0.709,0-1.242,0.52-1.242,1.217c0,0.697,0.533,1.217,1.242,1.217
						c0.336,0,0.629-0.105,0.869-0.352l0.197,0.197c-0.261,0.286-0.646,0.433-1.079,0.433
						C255.753,237.682,255.098,237.048,255.098,236.188z"/>
					<path style="fill:#263238;" d="M262.379,234.719l-0.99,2.938h-0.328l-0.859-2.505l-0.865,2.505h-0.322l-0.99-2.938h0.318
						l0.848,2.526l0.877-2.526h0.289l0.865,2.539l0.859-2.539H262.379z"/>
				</g>
			</g>
			<g>
				<path style="fill:#263238;" d="M230.306,270.584h-2.636l-0.568,1.264h-0.52l2.163-4.731h0.493l2.163,4.731h-0.527
					L230.306,270.584z M230.123,270.178l-1.136-2.541l-1.136,2.541H230.123z"/>
				<path style="fill:#263238;" d="M231.689,270.07c0-1.062,0.771-1.806,1.831-1.806c0.602,0,1.109,0.237,1.393,0.703l-0.358,0.243
					c-0.244-0.357-0.622-0.526-1.035-0.526c-0.777,0-1.345,0.554-1.345,1.386c0,0.838,0.567,1.386,1.345,1.386
					c0.413,0,0.791-0.163,1.035-0.521l0.358,0.243c-0.284,0.459-0.791,0.703-1.393,0.703
					C232.46,271.882,231.689,271.131,231.689,270.07z"/>
				<path style="fill:#263238;" d="M237.765,271.631c-0.189,0.17-0.473,0.251-0.75,0.251c-0.669,0-1.041-0.379-1.041-1.034v-2.15
					h-0.636v-0.405h0.636v-0.777h0.48v0.777h1.082v0.405h-1.082v2.123c0,0.419,0.216,0.648,0.615,0.648
					c0.196,0,0.392-0.061,0.527-0.183L237.765,271.631z"/>
				<path style="fill:#263238;" d="M238.527,267.17c0-0.183,0.155-0.338,0.352-0.338c0.196,0,0.352,0.148,0.352,0.331
					c0,0.196-0.149,0.352-0.352,0.352C238.683,267.515,238.527,267.359,238.527,267.17z M238.636,268.292h0.479v3.556h-0.479
					V268.292z"/>
				<path style="fill:#263238;" d="M240.095,270.07c0-1.055,0.77-1.806,1.812-1.806c1.041,0,1.805,0.751,1.805,1.806
					c0,1.054-0.764,1.811-1.805,1.811C240.865,271.882,240.095,271.124,240.095,270.07z M243.224,270.07
					c0-0.832-0.561-1.386-1.318-1.386c-0.757,0-1.325,0.554-1.325,1.386c0,0.831,0.567,1.386,1.325,1.386
					C242.663,271.456,243.224,270.901,243.224,270.07z"/>
				<path style="fill:#263238;" d="M247.961,269.786v2.062h-0.48v-2.015c0-0.75-0.392-1.136-1.068-1.136
					c-0.764,0-1.244,0.474-1.244,1.285v1.865h-0.479v-3.556h0.46v0.656c0.257-0.433,0.737-0.684,1.352-0.684
					C247.367,268.265,247.961,268.766,247.961,269.786z"/>
				<path style="fill:#263238;" d="M251.637,267.549v1.858h2.446v0.433h-2.446v2.008h-0.501v-4.731h3.245v0.433H251.637z"/>
				<path style="fill:#263238;" d="M255.136,267.17c0-0.183,0.155-0.338,0.352-0.338c0.196,0,0.352,0.148,0.352,0.331
					c0,0.196-0.149,0.352-0.352,0.352C255.291,267.515,255.136,267.359,255.136,267.17z M255.244,268.292h0.479v3.556h-0.479
					V268.292z"/>
				<path style="fill:#263238;" d="M260.353,268.292v3.123c0,1.224-0.601,1.777-1.777,1.777c-0.649,0-1.285-0.195-1.656-0.547
					l0.242-0.365c0.338,0.304,0.853,0.486,1.4,0.486c0.898,0,1.31-0.412,1.31-1.291v-0.452c-0.297,0.452-0.805,0.689-1.385,0.689
					c-1.015,0-1.785-0.71-1.785-1.73c0-1.021,0.771-1.718,1.785-1.718c0.594,0,1.107,0.244,1.405,0.71v-0.683H260.353z
					 M259.887,269.982c0-0.771-0.568-1.298-1.352-1.298c-0.784,0-1.346,0.526-1.346,1.298c0,0.771,0.562,1.304,1.346,1.304
					C259.318,271.286,259.887,270.753,259.887,269.982z"/>
				<path style="fill:#263238;" d="M264.9,268.292v3.556h-0.459v-0.648c-0.25,0.432-0.71,0.683-1.277,0.683
					c-0.906,0-1.502-0.508-1.502-1.528v-2.061h0.48v2.015c0,0.757,0.393,1.143,1.068,1.143c0.743,0,1.21-0.48,1.21-1.291v-1.866
					H264.9z"/>
				<path style="fill:#263238;" d="M268.035,268.265v0.467c-0.041,0-0.081-0.007-0.115-0.007c-0.743,0-1.196,0.474-1.196,1.311
					v1.812h-0.48v-3.556h0.459v0.696C266.927,268.516,267.379,268.265,268.035,268.265z"/>
				<path style="fill:#263238;" d="M271.962,270.219h-2.974c0.053,0.743,0.621,1.237,1.398,1.237c0.433,0,0.818-0.156,1.089-0.467
					l0.27,0.311c-0.317,0.379-0.81,0.582-1.372,0.582c-1.108,0-1.865-0.758-1.865-1.811c0-1.055,0.736-1.806,1.737-1.806
					c1,0,1.724,0.737,1.724,1.806C271.969,270.11,271.962,270.164,271.962,270.219z M268.988,269.86h2.521
					c-0.061-0.696-0.567-1.183-1.264-1.183C269.556,268.678,269.049,269.164,268.988,269.86z"/>
			</g>
			<g>
				<path style="fill:#263238;" d="M232.432,290.824v2.08h-1.857v-2.024c-1.838-0.111-3.603-0.687-4.624-1.485l1.021-2.266
					c0.928,0.688,2.265,1.189,3.603,1.318v-3.101c-2.062-0.502-4.364-1.189-4.364-3.845c0-1.968,1.43-3.658,4.364-3.992v-2.062
					h1.857v2.024c1.393,0.111,2.748,0.482,3.77,1.133l-0.928,2.284c-0.947-0.539-1.913-0.854-2.841-0.966v3.157
					c2.061,0.482,4.327,1.17,4.327,3.788C236.759,288.8,235.348,290.472,232.432,290.824z M230.575,282.616v-2.637
					c-0.984,0.223-1.374,0.762-1.374,1.374C229.201,282.004,229.758,282.356,230.575,282.616z M233.769,287.092
					c0-0.65-0.538-1.003-1.337-1.281v2.563C233.36,288.169,233.769,287.685,233.769,287.092z"/>
				<path style="fill:#263238;" d="M247.714,288.225v2.451h-9.824v-1.95l5.014-4.735c1.151-1.096,1.356-1.764,1.356-2.396
					c0-1.021-0.706-1.615-2.08-1.615c-1.114,0-2.061,0.427-2.692,1.3l-2.191-1.411c1.003-1.467,2.823-2.414,5.163-2.414
					c2.897,0,4.828,1.485,4.828,3.844c0,1.263-0.353,2.414-2.173,4.104l-2.99,2.822H247.714z"/>
				<path style="fill:#263238;" d="M248.92,284.177c0-4.29,2.376-6.723,5.572-6.723c3.212,0,5.57,2.433,5.57,6.723
					c0,4.289-2.358,6.722-5.57,6.722C251.297,290.898,248.92,288.466,248.92,284.177z M257.035,284.177
					c0-2.953-1.039-4.179-2.543-4.179c-1.486,0-2.526,1.226-2.526,4.179c0,2.952,1.04,4.178,2.526,4.178
					C255.996,288.354,257.035,287.129,257.035,284.177z"/>
				<path style="fill:#263238;" d="M261.529,284.177c0-4.29,2.377-6.723,5.57-6.723c3.213,0,5.571,2.433,5.571,6.723
					c0,4.289-2.358,6.722-5.571,6.722C263.906,290.898,261.529,288.466,261.529,284.177z M269.645,284.177
					c0-2.953-1.041-4.179-2.545-4.179c-1.485,0-2.525,1.226-2.525,4.179c0,2.952,1.04,4.178,2.525,4.178
					C268.603,288.354,269.645,287.129,269.645,284.177z"/>
			</g>
			<path style="fill:#263238;" d="M270.15,323.777h-41.456c-5.358,0-9.702-4.344-9.702-9.702l0,0c0-5.358,4.344-9.702,9.702-9.702
				h41.456c5.358,0,9.702,4.344,9.702,9.702l0,0C279.852,319.434,275.508,323.777,270.15,323.777z"/>
			<g>
				<path style="fill:#FFFFFF;" d="M236.116,313.043c0,1.214-0.88,1.947-2.33,1.947h-1.532v1.801h-0.603v-5.704h2.135
					C235.236,311.087,236.116,311.82,236.116,313.043z M235.513,313.043c0-0.913-0.603-1.435-1.744-1.435h-1.516v2.853h1.516
					C234.91,314.461,235.513,313.94,235.513,313.043z"/>
				<path style="fill:#FFFFFF;" d="M240.492,314.135v2.656h-0.554v-0.668c-0.261,0.44-0.766,0.709-1.475,0.709
					c-0.97,0-1.564-0.506-1.564-1.247c0-0.66,0.424-1.214,1.654-1.214h1.361v-0.261c0-0.733-0.416-1.133-1.214-1.133
					c-0.554,0-1.076,0.195-1.426,0.505l-0.261-0.432c0.432-0.366,1.068-0.578,1.744-0.578
					C239.864,312.473,240.492,313.026,240.492,314.135z M239.913,315.504v-0.701h-1.344c-0.831,0-1.1,0.326-1.1,0.766
					c0,0.497,0.399,0.807,1.083,0.807C239.204,316.375,239.685,316.065,239.913,315.504z"/>
				<path style="fill:#FFFFFF;" d="M245.584,312.505l-2.143,4.8c-0.358,0.839-0.815,1.107-1.426,1.107
					c-0.399,0-0.782-0.13-1.043-0.391l0.269-0.432c0.212,0.212,0.473,0.325,0.782,0.325c0.383,0,0.644-0.179,0.888-0.717
					l0.188-0.415l-1.914-4.278h0.603l1.613,3.643l1.613-3.643H245.584z"/>
				<path style="fill:#FFFFFF;" d="M250.465,316.832v0.937h-0.407v-0.929c-0.799-0.041-1.548-0.334-1.948-0.741l0.236-0.465
					c0.375,0.367,1.027,0.644,1.711,0.685v-2.143c-0.896-0.221-1.809-0.497-1.809-1.573c0-0.782,0.562-1.458,1.809-1.556v-0.938
					h0.407v0.929c0.611,0.024,1.222,0.204,1.654,0.506l-0.203,0.48c-0.457-0.293-0.978-0.448-1.451-0.473v2.159
					c0.921,0.22,1.89,0.48,1.89,1.572C252.355,316.074,251.761,316.759,250.465,316.832z M250.058,313.605v-2.037
					c-0.839,0.073-1.214,0.505-1.214,1.019C248.844,313.206,249.39,313.434,250.058,313.605z M251.761,315.316
					c0-0.643-0.595-0.864-1.295-1.035v2.037C251.361,316.253,251.761,315.838,251.761,315.316z"/>
				<path style="fill:#FFFFFF;" d="M257.057,316.27v0.521h-4v-0.416l2.371-2.322c0.644-0.635,0.766-1.018,0.766-1.409
					c0-0.66-0.465-1.067-1.336-1.067c-0.668,0-1.182,0.204-1.557,0.636l-0.416-0.358c0.44-0.521,1.149-0.815,2.021-0.815
					c1.157,0,1.891,0.587,1.891,1.54c0,0.546-0.172,1.035-0.938,1.785l-1.939,1.906H257.057z"/>
				<path style="fill:#FFFFFF;" d="M257.758,313.94c0-1.817,0.953-2.901,2.273-2.901c1.32,0,2.281,1.084,2.281,2.901
					c0,1.816-0.961,2.9-2.281,2.9C258.711,316.84,257.758,315.756,257.758,313.94z M261.709,313.94c0-1.525-0.684-2.363-1.678-2.363
					c-0.994,0-1.679,0.839-1.679,2.363c0,1.523,0.685,2.362,1.679,2.362C261.025,316.302,261.709,315.463,261.709,313.94z"/>
				<path style="fill:#FFFFFF;" d="M263.152,313.94c0-1.817,0.953-2.901,2.273-2.901c1.319,0,2.281,1.084,2.281,2.901
					c0,1.816-0.962,2.9-2.281,2.9C264.105,316.84,263.152,315.756,263.152,313.94z M267.103,313.94c0-1.525-0.685-2.363-1.678-2.363
					c-0.994,0-1.68,0.839-1.68,2.363c0,1.523,0.685,2.362,1.68,2.362C266.419,316.302,267.103,315.463,267.103,313.94z"/>
			</g>
		</g>
		<g>
			<path style="fill:#FFFFFF;" d="M186.689,293.242c1.5,23.052-9.181,48.722-9.181,48.722l-57.685-16.244l-10.063-2.836
				c9.981-13.898,14.762-41.25,12.153-63.393c-0.2-1.672-0.327-3.245-0.409-4.736c-0.954-18.262,6.581-23.607,12.999-31.678
				c6.954-8.735,22.579-41.741,22.579-49.549c0-7.817,19.543-26.924,15.198-48.631c0,0,5.908-3.663,11.853-0.655
				c2.691,1.364,5.39,4.09,7.554,9.145c5.09,11.899-2.054,45.504-8.135,53.749l-11.708,48.477c0,0,3.945,6.808,7.826,19.171
				C182.689,264.427,185.662,277.434,186.689,293.242z"/>
			<path style="opacity:0.4;fill:#92E3A9;" d="M121.505,254.755c3.263,8.945,6.736,14.953,6.436,27.533
				c-0.3,12.581-7.008,31.842-5.09,41.868c0,0-1.518,0.373-3.027,1.564l-10.063-2.836c9.981-13.898,14.762-41.25,12.153-63.393
				C121.714,257.818,121.587,256.246,121.505,254.755z"/>
			<path style="opacity:0.4;fill:#92E3A9;" d="M183.553,187.135l-11.708,48.477c0,0,3.945,6.808,7.826,19.171
				c-0.009-0.009-0.009-0.018-0.018-0.027c-7.917-12.781-14.617-16.571-14.617-16.571c5.281-6.336,9.354-52.631,9.354-52.631
				s16.553-19.452,14.962-39.805c-0.736-9.363-2.991-16.516-5.218-21.507c2.691,1.364,5.39,4.09,7.554,9.145
				C196.779,145.285,189.634,178.89,183.553,187.135z"/>
			<g>
				<path style="fill:none;stroke:#263238;stroke-linecap:round;stroke-linejoin:round;stroke-miterlimit:10;" d="M109.758,322.882
					c9.986-13.894,14.762-41.247,12.157-63.39c-2.605-22.143,5.644-27.685,12.591-36.42c6.947-8.735,22.577-41.732,22.577-49.548
					s19.538-26.919,15.196-48.628c0,0,12.474-7.728,19.409,8.493c5.087,11.898-2.055,45.497-8.134,53.746l-11.709,48.476
					c0,0,12.496,21.547,14.841,57.63c1.498,23.051-9.182,48.723-9.182,48.723"/>
				<path style="fill:none;stroke:#263238;stroke-linecap:round;stroke-linejoin:round;stroke-miterlimit:10;" d="M148.324,360.409
					c0,0,13.129,8.086,20.787,20.865"/>
				<path style="fill:none;stroke:#263238;stroke-linecap:round;stroke-linejoin:round;stroke-miterlimit:10;" d="M185.204,375.698
					c0,0-11.31,1.608-21.532-10.615c-6.552-7.835-26.442-11.375-31.021-31.857"/>
			</g>
		</g>
	</g>
</g>
<g id="Hand">
	<g>
		<path style="opacity:0.2;fill-opacity:0.7;" d="M349.576,436.255c-28.949-13.848-11.414-24.945-51.244-42.137
			c-39.831-17.192-40.236-31.876-35.43-65.663c4.806-33.787,0.987-69.702,12.582-72.752c11.595-3.05-9.068-49.64,4.437-66.112
			l66.444,129.239L349.576,436.255z"/>
		<g>
			<path style="fill:#FFFFFF;" d="M457.451,434.908c-1.363-3.89-2.745-8.135-3.809-11.98c-1.382-5.027-2.463-9.008-5.009-13.644
				c-0.4-0.745-0.836-1.527-1.318-2.363c-2.709-4.827-6.417-11.444-8.59-19.562c-1.454-5.472-0.027-18.943,1.363-31.978
				c0.982-9.381,1.909-18.234,1.645-23.252l-0.082-1.782c-0.682-13.126-2.1-40.45-5.045-48.013
				c-2.845-7.281-5.508-8.372-10.362-10.317c-0.5-0.218-1.018-0.418-1.573-0.654c-1.818-0.764-4.918-2.363-8.49-4.209
				c-8.054-4.172-18.071-9.363-23.161-10.053c-6.717-0.891-13.199,0.427-14.271,0.664c-6.272-4.818-16.944-11.017-20.116-11.135
				c-2.609-0.127-8.281,1.5-11.026,2.354c-0.636,0.2-1.127,0.354-1.372,0.436c-2.291-1.7-4.209-2.973-5.454-3.581
				c-0.136-0.064-0.264-0.118-0.373-0.164c-3.527-1.454-8.863-1.509-11.771-1.427c-0.882,0.036-1.563,0.091-1.882,0.118
				c-5.481-8.445-10.89-16.853-13.235-20.543c-4.899-7.763-20.07-39.696-20.225-40.032c-0.036-0.082-0.1-0.136-0.2-0.164
				c0,0-0.046-0.027-0.136-0.046c-1.182-0.345-9.872-2.554-13.362,5.872c-3.818,9.163,1.636,29.297,6.954,36.605
				c2.563,3.527,9.544,17.88,16.644,32.742c-1.827,1.691-16.38,15.144-23.452,17.653c-5.79,2.045-4.436,31.724-3.345,55.558
				c0.409,8.799,0.754,16.371,0.654,20.916c-0.2,8.799,15.807,20.925,31.324,32.642c14.026,10.617,28.524,21.589,30.224,29.56
				c0.473,2.245,1.809,4.063,3.409,6.109c2.672,3.4,6.108,7.408,7.572,15.016c0.427,2.273,4.09,5.254,6.963,10.126h105.143
				C460.805,444.107,459.151,439.79,457.451,434.908z M311.785,276.807c5.09,10.663,8.235,17.044,8.981,17.716
				c0.745,0.682,0.718,4.09,0.691,7.372c-0.036,2.9-0.064,6.009,0.3,8.635c-1.236,1.091-9.063,8.217-10.644,13.98l-6.654-7.836
				l-1.682-24.561C303.785,291.069,310.63,283.843,311.785,276.807z"/>
			<path style="opacity:0.4;fill:#92E3A9;" d="M427.309,345.307c2.469,23.05,2.505,35.548,5.274,42.22
				c4.675,11.263,11.565,13.543,11.565,13.543c-1.995-3.903-4.027-8.494-5.424-13.714c-1.454-5.467-0.027-18.939,1.36-31.976
				c0.982-9.378,1.917-18.237,1.654-23.257l-0.089-1.78c-0.681-13.126-2.095-40.446-5.044-48.009
				c-2.839-7.283-5.507-8.372-10.357-10.322c-0.503-0.215-1.025-0.415-1.577-0.652c-1.82-0.758-4.913-2.36-8.49-4.208
				c-8.055-4.168-18.074-9.362-23.158-10.05c-6.72-0.889-13.203,0.42-14.272,0.659c-6.274-4.814-16.943-11.013-20.121-11.137
				c-2.605-0.122-9.646,1.93-12.392,2.79c11.973,9.795,29.283,21.973,29.283,21.973c13.67,2.718,11.919,8.655,17.444,11.972
				c5.005,3.004,9.79-5.781,13.967-6.555c5.514-1.021,11.787,4.829,11.507,11.884C417.664,308.242,425.19,325.524,427.309,345.307z"
				/>
			<path style="opacity:0.4;fill:#92E3A9;" d="M358.212,273.878c0,0-10.835-8.982-16.023-12.025
				c-5.188-3.043-5.994-13.346-1.914-15.856c0.143-0.088,0.3-0.141,0.504-0.156c-0.129-0.063-0.259-0.125-0.373-0.169
				c-3.528-1.456-8.857-1.508-11.768-1.422c6.042,11.173,10.788,19.745,12.084,21.62
				C345.085,272.178,358.212,273.878,358.212,273.878z"/>
			<path style="opacity:0.4;fill:#92E3A9;" d="M341.781,413.838c0.454-2.391-3.482-9.39-5.208-12.226
				c-3.936-6.481-49.568-46.804-42.95-57.567c6.59-10.79,12.644-2.79,16.826-2.1c3.009,0.5,11.244-4.409,11.199-4.818
				c-0.936-8.29,6.717-13.68,6.717-13.68s-0.709-32.996-2.463-32.433c-1.764,0.563-22.825-49.558-22.825-49.558
				s-22.252-29.597-20.998-43.404c1.255-13.789,10.899-14.099,10.899-14.099l-0.018-0.373c-1.182-0.345-9.872-2.554-13.362,5.872
				c-3.818,9.163,1.636,29.297,6.954,36.605c2.563,3.527,9.544,17.88,16.644,32.742c-1.827,1.691-16.38,15.144-23.452,17.653
				c-5.79,2.045-4.436,31.724-3.345,55.558c0.409,8.799,0.754,16.371,0.654,20.916c-0.2,8.799,15.807,20.925,31.324,32.642
				c14.026,10.617,28.524,21.589,30.224,29.56c0.473,2.245,1.809,4.063,3.409,6.109
				C341.745,418.337,341.545,415.101,341.781,413.838z M311.785,276.807c5.09,10.663,8.235,17.044,8.981,17.716
				c0.745,0.682,0.718,4.09,0.691,7.372c-0.036,2.9-0.064,6.009,0.3,8.635c-1.236,1.091-9.063,8.217-10.644,13.98l-6.654-7.836
				l-1.682-24.561C303.785,291.069,310.63,283.843,311.785,276.807z"/>
			<g>
				<path style="fill:none;stroke:#263238;stroke-linecap:round;stroke-linejoin:round;stroke-miterlimit:10;" d="M351.962,273.749
					c0,0-6.678-1.755-11.244-7.876c-4.566-6.12-22.516-33.994-27.491-41.862s-20.248-40.055-20.248-40.055s-9.4-3.146-13.059,5.636
					c-3.659,8.783,1.353,28.613,6.918,36.256c5.565,7.643,32.059,66.512,34.163,68.416c2.105,1.904-1.051,17.594,3.159,21.391"/>
				<path style="fill:none;stroke:#263238;stroke-linecap:round;stroke-linejoin:round;stroke-miterlimit:10;" d="M322.144,310.674
					c0,0-9.702,8.451-10.84,14.615l-7.199-8.471l-1.701-24.838c0,0,8.685-8.698,9.162-16.444"/>
				<path style="fill:none;stroke:#263238;stroke-linecap:round;stroke-linejoin:round;stroke-miterlimit:10;" d="M303.632,258.882
					c0,0-16.108,15.197-23.768,17.911c-7.66,2.714-2.078,59.656-2.458,76.151c-0.38,16.494,57.956,45.212,61.535,62.099
					c1.423,6.712,7.298,8.083,10.894,20.953"/>
				<path style="fill:none;stroke:#263238;stroke-linecap:round;stroke-linejoin:round;stroke-miterlimit:10;" d="M326.563,244.732
					c0,0,8.766-0.789,13.707,1.263c4.941,2.052,25.011,19.291,29.837,22.585c4.826,3.295,12.121,4.537,13.504,8.084"/>
				<path style="fill:none;stroke:#263238;stroke-linecap:round;stroke-linejoin:round;stroke-miterlimit:10;" d="M346.174,249.807
					c0,0,9.029-2.98,12.435-2.831c3.406,0.15,16.38,7.805,22.18,12.9c5.8,5.094,11.621,7.911,15.113,9.182"/>
				<path style="fill:none;stroke:#263238;stroke-linecap:round;stroke-linejoin:round;stroke-miterlimit:10;" d="M378.676,258.147
					c0,0,6.987-1.674,14.306-0.688c7.319,0.986,25.702,11.8,31.557,14.239c5.855,2.44,8.664,2.888,11.737,10.771
					c3.073,7.883,4.492,37.843,5.111,49.679c0.619,11.837-5.546,45.752-3.006,55.296c2.54,9.544,7.15,16.897,9.942,22.005"/>
				<path style="fill:none;stroke:#263238;stroke-linecap:round;stroke-linejoin:round;stroke-miterlimit:10;" d="M302.404,291.98
					c0,0-1.457-5.834-3.383-6.582"/>
				<path style="fill:none;stroke:#263238;stroke-linecap:round;stroke-linejoin:round;stroke-miterlimit:10;" d="M304.104,316.819
					c0,0,1.3,6.502,2.73,10.054c1.431,3.552-0.8,8.685-0.8,8.685"/>
				<path style="fill:none;stroke:#263238;stroke-linecap:round;stroke-linejoin:round;stroke-miterlimit:10;" d="M311.303,325.289
					c-0.238,5.678,5.417,12.316,6.787,11.379"/>
				<path style="fill:none;stroke:#263238;stroke-linecap:round;stroke-linejoin:round;stroke-miterlimit:10;" d="M340.074,291.98
					c0,0,6.064-9.818,11.888-10.297c5.824-0.479,12.537,7.78,16.133,7.006c3.596-0.773,8.106-6.058,14.144-7.026
					c6.038-0.968,8.868,1.938,13.664,2.178c4.796,0.24,5.275-6.16,11.029-7.035c5.754-0.876,7.672,2.043,11.507,2.741
					c3.836,0.698,4.801-2.282,7.911-4.011"/>
			</g>
		</g>
	</g>
</g>
</svg>
